GeezHandwritingwithRules.ufo
<glyph name="numbersign" format="2">
  <advance width="1331"/>
  <unicode hex="0023"/>
  <outline>
    <contour>
      <point x="1096" y="915" type="curve"/>
      <point x="1094" y="885"/>
      <point x="1079" y="870"/>
      <point x="1051" y="870" type="curve" smooth="yes"/>
      <point x="809" y="870" type="line"/>
      <point x="762" y="596" type="line"/>
      <point x="999" y="596" type="line" smooth="yes"/>
      <point x="1026" y="596"/>
      <point x="1042" y="580"/>
      <point x="1044" y="549" type="curve"/>
      <point x="1042" y="518"/>
      <point x="1026" y="504"/>
      <point x="999" y="504" type="curve" smooth="yes"/>
      <point x="745" y="504" type="line"/>
      <point x="686" y="164" type="line" smooth="yes"/>
      <point x="681.306" y="136.946"/>
      <point x="664" y="125"/>
      <point x="633" y="127" type="curve"/>
      <point x="602" y="135"/>
      <point x="591.405" y="152.928"/>
      <point x="596" y="180" type="curve" smooth="yes"/>
      <point x="651" y="504" type="line"/>
      <point x="379" y="504" type="line"/>
      <point x="319" y="164" type="line" smooth="yes"/>
      <point x="314.228" y="136.959"/>
      <point x="297" y="125"/>
      <point x="266" y="127" type="curve"/>
      <point x="236" y="135"/>
      <point x="224.323" y="152.943"/>
      <point x="229" y="180" type="curve" smooth="yes"/>
      <point x="285" y="504" type="line"/>
      <point x="80" y="504" type="line" smooth="yes"/>
      <point x="51" y="504"/>
      <point x="35.001" y="518"/>
      <point x="33.001" y="549" type="curve"/>
      <point x="35.001" y="580"/>
      <point x="51" y="596"/>
      <point x="80" y="596" type="curve" smooth="yes"/>
      <point x="301" y="596" type="line"/>
      <point x="350" y="870" type="line"/>
      <point x="131" y="870" type="line" smooth="yes"/>
      <point x="102" y="870"/>
      <point x="86.001" y="885"/>
      <point x="84.001" y="915" type="curve"/>
      <point x="86.001" y="946"/>
      <point x="102.001" y="963"/>
      <point x="131.001" y="963" type="curve" smooth="yes"/>
      <point x="367.001" y="963" type="line"/>
      <point x="422.001" y="1288" type="line" smooth="yes"/>
      <point x="426.911" y="1317.02"/>
      <point x="444.001" y="1329"/>
      <point x="475.001" y="1327" type="curve"/>
      <point x="506.001" y="1319"/>
      <point x="518.612" y="1300.07"/>
      <point x="514.001" y="1274" type="curve" smooth="yes"/>
      <point x="459.001" y="963" type="line"/>
      <point x="733.001" y="963" type="line"/>
      <point x="791.001" y="1288" type="line" smooth="yes"/>
      <point x="796.171" y="1316.97"/>
      <point x="813.001" y="1329"/>
      <point x="844.001" y="1327" type="curve"/>
      <point x="872.001" y="1319"/>
      <point x="885.693" y="1300.06"/>
      <point x="881.001" y="1274" type="curve" smooth="yes"/>
      <point x="825.001" y="963" type="line"/>
      <point x="1051" y="963" type="line" smooth="yes"/>
      <point x="1079" y="963"/>
      <point x="1094" y="946"/>
    </contour>
    <contour>
      <point x="717" y="870" type="line"/>
      <point x="442" y="870" type="line"/>
      <point x="395" y="596" type="line"/>
      <point x="668" y="596" type="line"/>
    </contour>
  </outline>
</glyph>
<glyph name="three" format="2">
  <advance width="1024"/>
  <unicode hex="0033"/>
  <outline>
    <contour>
      <point x="879" y="377" type="curve" smooth="yes"/>
      <point x="879" y="270"/>
      <point x="842.252" y="179.747"/>
      <point x="768" y="106" type="curve" smooth="yes"/>
      <point x="695.249" y="33.7445"/>
      <point x="604" y="-2"/>
      <point x="498" y="-2" type="curve" smooth="yes"/>
      <point x="422" y="-2"/>
      <point x="344.012" y="26.0165"/>
      <point x="268" y="84" type="curve" smooth="yes"/>
      <point x="188.012" y="145.016"/>
      <point x="147" y="213"/>
      <point x="147" y="287" type="curve" smooth="yes"/>
      <point x="147" y="326"/>
      <point x="166" y="344"/>
      <point x="201" y="344" type="curve" smooth="yes"/>
      <point x="219" y="344"/>
      <point x="236" y="336"/>
      <point x="246" y="317" type="curve"/>
      <point x="256" y="258"/>
      <point x="284.423" y="208.494"/>
      <point x="334" y="166" type="curve" smooth="yes"/>
      <point x="382.426" y="124.492"/>
      <point x="438" y="104"/>
      <point x="498" y="104" type="curve" smooth="yes"/>
      <point x="573" y="104"/>
      <point x="638.257" y="131.736"/>
      <point x="692" y="184" type="curve" smooth="yes"/>
      <point x="747.257" y="237.736"/>
      <point x="774" y="303"/>
      <point x="774" y="379" type="curve" smooth="yes"/>
      <point x="774" y="449"/>
      <point x="745.031" y="507.033"/>
      <point x="686" y="559" type="curve" smooth="yes"/>
      <point x="628.028" y="610.035"/>
      <point x="565" y="635"/>
      <point x="494" y="635" type="curve" smooth="yes"/>
      <point x="463" y="635"/>
      <point x="440.084" y="637.218"/>
      <point x="430" y="641" type="curve" smooth="yes"/>
      <point x="408.081" y="649.219"/>
      <point x="397" y="668"/>
      <point x="397" y="696" type="curve" smooth="yes"/>
      <point x="397" y="725"/>
      <point x="409.933" y="743.231"/>
      <point x="434" y="750" type="curve" smooth="yes"/>
      <point x="441.938" y="752.233"/>
      <point x="462.999" y="754"/>
      <point x="494" y="754" type="curve" smooth="yes"/>
      <point x="680.007" y="754"/>
      <point x="774" y="837.994"/>
      <point x="774" y="1004" type="curve" smooth="yes"/>
      <point x="774" y="1071"/>
      <point x="744.102" y="1126.14"/>
      <point x="684" y="1169" type="curve" smooth="yes"/>
      <point x="629.102" y="1208.14"/>
      <point x="567" y="1229"/>
      <point x="498" y="1229" type="curve" smooth="yes"/>
      <point x="438" y="1229"/>
      <point x="383" y="1208"/>
      <point x="334" y="1165" type="curve" smooth="yes"/>
      <point x="285" y="1122"/>
      <point x="256" y="1073"/>
      <point x="246" y="1014" type="curve"/>
      <point x="236" y="997"/>
      <point x="219" y="989"/>
      <point x="201" y="989" type="curve" smooth="yes"/>
      <point x="166" y="989"/>
      <point x="147" y="1008"/>
      <point x="147" y="1044" type="curve" smooth="yes"/>
      <point x="147" y="1120"/>
      <point x="187.988" y="1188.02"/>
      <point x="268" y="1247" type="curve" smooth="yes"/>
      <point x="343.988" y="1303.02"/>
      <point x="419.986" y="1328.37"/>
      <point x="498" y="1331" type="curve" smooth="yes"/>
      <point x="597.986" y="1334.37"/>
      <point x="683.963" y="1306.95"/>
      <point x="760" y="1247" type="curve" smooth="yes"/>
      <point x="839.963" y="1183.95"/>
      <point x="879" y="1102"/>
      <point x="879" y="1004" type="curve" smooth="yes"/>
      <point x="879" y="936"/>
      <point x="864.813" y="873.092"/>
      <point x="834" y="811" type="curve" smooth="yes"/>
      <point x="798.813" y="740.093"/>
      <point x="754" y="698"/>
      <point x="694" y="684" type="curve"/>
      <point x="817" y="604"/>
      <point x="879" y="502"/>
    </contour>
  </outline>
</glyph>
<glyph name="four" format="2">
  <advance width="1024"/>
  <unicode hex="0034"/>
  <outline>
    <contour>
      <point x="922" y="684" type="curve"/>
      <point x="920" y="649"/>
      <point x="901" y="633"/>
      <point x="870" y="633" type="curve" smooth="yes"/>
      <point x="797" y="633" type="line"/>
      <point x="797" y="51" type="line" smooth="yes"/>
      <point x="797" y="20"/>
      <point x="780" y="2"/>
      <point x="745" y="0" type="curve"/>
      <point x="711" y="2"/>
      <point x="694" y="20"/>
      <point x="694" y="51" type="curve" smooth="yes"/>
      <point x="694" y="633" type="line"/>
      <point x="154" y="633" type="line" smooth="yes"/>
      <point x="119" y="633"/>
      <point x="102" y="649"/>
      <point x="102" y="682" type="curve" smooth="yes"/>
      <point x="102" y="1284" type="line" smooth="yes"/>
      <point x="102" y="1315"/>
      <point x="119" y="1333"/>
      <point x="154" y="1335" type="curve"/>
      <point x="188" y="1333"/>
      <point x="205" y="1315"/>
      <point x="205" y="1284" type="curve" smooth="yes"/>
      <point x="205" y="735" type="line"/>
      <point x="694" y="735" type="line"/>
      <point x="694" y="1284" type="line" smooth="yes"/>
      <point x="694" y="1315"/>
      <point x="711" y="1333"/>
      <point x="745" y="1335" type="curve"/>
      <point x="780" y="1333"/>
      <point x="797" y="1315"/>
      <point x="797" y="1284" type="curve" smooth="yes"/>
      <point x="797" y="735" type="line"/>
      <point x="870" y="735" type="line" smooth="yes"/>
      <point x="901" y="735"/>
      <point x="920" y="719"/>
    </contour>
  </outline>
</glyph>
<glyph name="greater" format="2">
  <advance width="1024"/>
  <unicode hex="003E"/>
  <outline>
    <contour>
      <point x="799" y="690" type="curve" smooth="yes"/>
      <point x="799" y="676"/>
      <point x="787.849" y="655.21"/>
      <point x="760" y="635" type="curve" smooth="yes"/>
      <point x="297" y="299" type="line" smooth="yes"/>
      <point x="288.906" y="293.127"/>
      <point x="283" y="291"/>
      <point x="276" y="289" type="curve"/>
      <point x="258" y="287"/>
      <point x="240" y="293"/>
      <point x="225" y="311" type="curve"/>
      <point x="209" y="340"/>
      <point x="213.053" y="364.927"/>
      <point x="238" y="383" type="curve" smooth="yes"/>
      <point x="659" y="688" type="line"/>
      <point x="238" y="993" type="line" smooth="yes"/>
      <point x="213.053" y="1011.07"/>
      <point x="209" y="1034"/>
      <point x="225" y="1063" type="curve"/>
      <point x="240" y="1081"/>
      <point x="258" y="1087"/>
      <point x="276" y="1085" type="curve"/>
      <point x="283" y="1083"/>
      <point x="288.89" y="1080.85"/>
      <point x="297" y="1075" type="curve" smooth="yes"/>
      <point x="760" y="741" type="line" smooth="yes"/>
      <point x="787.907" y="720.868"/>
      <point x="799" y="702"/>
    </contour>
  </outline>
</glyph>
<glyph name="at" format="2">
  <advance width="1434"/>
  <unicode hex="0040"/>
  <outline>
    <contour>
      <point x="1300" y="666" type="curve" smooth="yes"/>
      <point x="1300" y="569"/>
      <point x="1272.48" y="482.667"/>
      <point x="1217" y="403" type="curve" smooth="yes"/>
      <point x="1155.48" y="314.664"/>
      <point x="1077" y="272"/>
      <point x="985" y="272" type="curve" smooth="yes"/>
      <point x="893" y="272"/>
      <point x="848" y="311"/>
      <point x="848" y="387" type="curve" smooth="yes"/>
      <point x="848" y="397"/>
      <point x="850" y="408"/>
      <point x="852" y="422" type="curve"/>
      <point x="805" y="322"/>
      <point x="733.003" y="272"/>
      <point x="637" y="272" type="curve" smooth="yes"/>
      <point x="511.995" y="272"/>
      <point x="438" y="370.995"/>
      <point x="438" y="500" type="curve" smooth="yes"/>
      <point x="438" y="584.003"/>
      <point x="465.951" y="663.037"/>
      <point x="520" y="737" type="curve" smooth="yes"/>
      <point x="579.95" y="819.037"/>
      <point x="651" y="860"/>
      <point x="733" y="860" type="curve" smooth="yes"/>
      <point x="823" y="860"/>
      <point x="899" y="803"/>
      <point x="905" y="715" type="curve"/>
      <point x="928" y="793" type="line" smooth="yes"/>
      <point x="936.236" y="820.931"/>
      <point x="956" y="836"/>
      <point x="989" y="836" type="curve" smooth="yes"/>
      <point x="1026" y="836"/>
      <point x="1039.07" y="814.98"/>
      <point x="1026" y="772" type="curve" smooth="yes"/>
      <point x="950" y="522" type="line" smooth="yes"/>
      <point x="936.293" y="476.911"/>
      <point x="930" y="444"/>
      <point x="930" y="424" type="curve" smooth="yes"/>
      <point x="930" y="383"/>
      <point x="950" y="362"/>
      <point x="993" y="362" type="curve" smooth="yes"/>
      <point x="1061" y="362"/>
      <point x="1115.79" y="399.111"/>
      <point x="1155" y="471" type="curve" smooth="yes"/>
      <point x="1187.79" y="531.118"/>
      <point x="1204" y="598"/>
      <point x="1204" y="670" type="curve" smooth="yes"/>
      <point x="1204" y="788"/>
      <point x="1160.73" y="878.634"/>
      <point x="1075" y="942" type="curve" smooth="yes"/>
      <point x="999.728" y="997.636"/>
      <point x="899.003" y="1026"/>
      <point x="776" y="1026" type="curve" smooth="yes"/>
      <point x="615.995" y="1026"/>
      <point x="488.109" y="982.885"/>
      <point x="391" y="897" type="curve" smooth="yes"/>
      <point x="289.103" y="806.88"/>
      <point x="238" y="684.004"/>
      <point x="238" y="528" type="curve" smooth="yes"/>
      <point x="238" y="386.996"/>
      <point x="288.131" y="275.178"/>
      <point x="389" y="195" type="curve" smooth="yes"/>
      <point x="483.143" y="120.169"/>
      <point x="601.996" y="84"/>
      <point x="748" y="84" type="curve" smooth="yes"/>
      <point x="881.004" y="84"/>
      <point x="999.22" y="119.661"/>
      <point x="1106" y="188" type="curve" smooth="yes"/>
      <point x="1124.22" y="199.661"/>
      <point x="1139" y="205"/>
      <point x="1151" y="205" type="curve" smooth="yes"/>
      <point x="1176" y="205"/>
      <point x="1188" y="190"/>
      <point x="1188" y="164" type="curve" smooth="yes"/>
      <point x="1188" y="150"/>
      <point x="1176" y="134.999"/>
      <point x="1151" y="119" type="curve" smooth="yes"/>
      <point x="1026" y="39"/>
      <point x="887.001" y="0"/>
      <point x="729.001" y="0" type="curve" smooth="yes"/>
      <point x="563.001" y="0"/>
      <point x="423.819" y="46.7805"/>
      <point x="313" y="141" type="curve" smooth="yes"/>
      <point x="196.812" y="239.785"/>
      <point x="137" y="371"/>
      <point x="137" y="532" type="curve" smooth="yes"/>
      <point x="137" y="707"/>
      <point x="198.569" y="847.484"/>
      <point x="322" y="956" type="curve" smooth="yes"/>
      <point x="438.575" y="1058.49"/>
      <point x="585.996" y="1110"/>
      <point x="764" y="1110" type="curve" smooth="yes"/>
      <point x="915.003" y="1110"/>
      <point x="1039.96" y="1075.95"/>
      <point x="1137" y="1004" type="curve" smooth="yes"/>
      <point x="1244.97" y="923.945"/>
      <point x="1300" y="811"/>
    </contour>
    <contour>
      <point x="840" y="678" type="curve" smooth="yes"/>
      <point x="840" y="743" name=".hr01"/>
      <point x="793" y="795"/>
      <point x="727" y="795" type="curve" smooth="yes"/>
      <point x="672" y="795"/>
      <point x="621.309" y="760.816"/>
      <point x="580" y="690" type="curve" smooth="yes"/>
      <point x="544.312" y="628.82"/>
      <point x="526" y="567"/>
      <point x="526" y="506" type="curve" smooth="yes"/>
      <point x="526" y="410"/>
      <point x="563" y="362"/>
      <point x="635" y="362" type="curve" smooth="yes"/>
      <point x="696" y="362"/>
      <point x="746.611" y="402.211"/>
      <point x="788" y="479" type="curve" smooth="yes"/>
      <point x="822.61" y="543.211"/>
      <point x="840" y="610"/>
    </contour>
  </outline>
</glyph>
<glyph name="L" format="2">
  <advance width="1126"/>
  <unicode hex="004C"/>
  <outline>
    <contour>
      <point x="995" y="51" type="curve"/>
      <point x="993" y="16"/>
      <point x="975.002" y="0"/>
      <point x="944" y="0" type="curve" smooth="yes"/>
      <point x="154" y="0" type="line" smooth="yes"/>
      <point x="118.998" y="0"/>
      <point x="102" y="16"/>
      <point x="102" y="51" type="curve" smooth="yes"/>
      <point x="102" y="1280" type="line" smooth="yes"/>
      <point x="102" y="1311"/>
      <point x="119" y="1329"/>
      <point x="154" y="1331" type="curve"/>
      <point x="188" y="1329"/>
      <point x="205" y="1311"/>
      <point x="205" y="1280" type="curve" smooth="yes"/>
      <point x="205" y="102" type="line"/>
      <point x="944" y="102" type="line" smooth="yes"/>
      <point x="975" y="102"/>
      <point x="993" y="86"/>
    </contour>
  </outline>
</glyph>
<glyph name="M" format="2">
  <advance width="1536"/>
  <unicode hex="004D"/>
  <outline>
    <contour>
      <point x="1444" y="51" type="line" smooth="yes"/>
      <point x="1444" y="20"/>
      <point x="1427" y="2"/>
      <point x="1393" y="0" type="curve"/>
      <point x="1358" y="2"/>
      <point x="1341" y="20"/>
      <point x="1341" y="51" type="curve" smooth="yes"/>
      <point x="1341" y="1059" type="line"/>
      <point x="834" y="27" type="line" smooth="yes"/>
      <point x="825.126" y="8.93725"/>
      <point x="805" y="0"/>
      <point x="770" y="0" type="curve" smooth="yes"/>
      <point x="735" y="0"/>
      <point x="716.182" y="8.0875"/>
      <point x="707" y="27" type="curve" smooth="yes"/>
      <point x="205" y="1061" type="line"/>
      <point x="205" y="51" type="line" smooth="yes"/>
      <point x="205" y="20"/>
      <point x="188" y="2"/>
      <point x="154" y="0" type="curve"/>
      <point x="119" y="2"/>
      <point x="102" y="20"/>
      <point x="102" y="51" type="curve" smooth="yes"/>
      <point x="102" y="1280" type="line" smooth="yes"/>
      <point x="102" y="1315"/>
      <point x="119" y="1331"/>
      <point x="154" y="1331" type="curve" smooth="yes"/>
      <point x="176" y="1331"/>
      <point x="190.198" y="1321.1"/>
      <point x="199" y="1303" type="curve" smooth="yes"/>
      <point x="770" y="129" type="line"/>
      <point x="1350" y="1307" type="line"/>
      <point x="1360" y="1323"/>
      <point x="1374" y="1331"/>
      <point x="1393" y="1331" type="curve" smooth="yes"/>
      <point x="1427" y="1331"/>
      <point x="1444" y="1315"/>
      <point x="1444" y="1280" type="curve" smooth="yes"/>
    </contour>
  </outline>
</glyph>
<glyph name="P" format="2">
  <advance width="1229"/>
  <unicode hex="0050"/>
  <outline>
    <contour>
      <point x="1090" y="985" type="curve" smooth="yes"/>
      <point x="1090" y="897"/>
      <point x="1054.05" y="825.943"/>
      <point x="985" y="770" type="curve" smooth="yes"/>
      <point x="917.047" y="714.944"/>
      <point x="838.004" y="688"/>
      <point x="748" y="688" type="curve" smooth="yes"/>
      <point x="205" y="688" type="line"/>
      <point x="205" y="51" type="line" smooth="yes"/>
      <point x="205" y="20"/>
      <point x="188" y="2"/>
      <point x="154" y="0" type="curve"/>
      <point x="119" y="2"/>
      <point x="102" y="20"/>
      <point x="102" y="51" type="curve" smooth="yes"/>
      <point x="102" y="1280" type="line" smooth="yes"/>
      <point x="102" y="1315"/>
      <point x="119" y="1331"/>
      <point x="154" y="1331" type="curve" smooth="yes"/>
      <point x="758" y="1331" type="line" smooth="yes"/>
      <point x="856" y="1331"/>
      <point x="935.982" y="1297.99"/>
      <point x="997" y="1233" type="curve" smooth="yes"/>
      <point x="1058.98" y="1166.98"/>
      <point x="1090" y="1085"/>
    </contour>
    <contour>
      <point x="987" y="985" type="curve" smooth="yes"/>
      <point x="987" y="1126"/>
      <point x="897.002" y="1229"/>
      <point x="758" y="1229" type="curve" smooth="yes"/>
      <point x="205" y="1229" type="line"/>
      <point x="205" y="791" type="line"/>
      <point x="748" y="791" type="line" smooth="yes"/>
      <point x="809.002" y="791"/>
      <point x="863.83" y="809.233"/>
      <point x="913" y="844" type="curve" smooth="yes"/>
      <point x="962.836" y="879.238"/>
      <point x="987" y="926"/>
    </contour>
  </outline>
</glyph>
<glyph name="a" format="2">
  <advance width="819"/>
  <unicode hex="0061"/>
  <outline>
    <contour>
      <point x="719" y="51" type="line" smooth="yes"/>
      <point x="719" y="20"/>
      <point x="702" y="2"/>
      <point x="668" y="0" type="curve"/>
      <point x="633" y="2"/>
      <point x="616" y="20"/>
      <point x="616" y="51" type="curve" smooth="yes"/>
      <point x="616" y="92" type="line"/>
      <point x="557" y="31"/>
      <point x="489" y="0"/>
      <point x="410" y="0" type="curve" smooth="yes"/>
      <point x="322" y="0"/>
      <point x="247.863" y="34.8812"/>
      <point x="188" y="106" type="curve" smooth="yes"/>
      <point x="130.86" y="173.884"/>
      <point x="102" y="252"/>
      <point x="102" y="342" type="curve" smooth="yes"/>
      <point x="102" y="432"/>
      <point x="130.451" y="512.614"/>
      <point x="188" y="580" type="curve" smooth="yes"/>
      <point x="247.451" y="649.613"/>
      <point x="322" y="684"/>
      <point x="410" y="684" type="curve" smooth="yes"/>
      <point x="489" y="684"/>
      <point x="557" y="653"/>
      <point x="616" y="592" type="curve"/>
      <point x="616" y="633" type="line" smooth="yes"/>
      <point x="616" y="664"/>
      <point x="633" y="682"/>
      <point x="668" y="684" type="curve"/>
      <point x="702" y="682"/>
      <point x="719" y="664"/>
      <point x="719" y="633" type="curve" smooth="yes"/>
    </contour>
    <contour>
      <point x="614" y="342" type="curve" smooth="yes"/>
      <point x="614" y="401"/>
      <point x="596.251" y="457.197"/>
      <point x="559" y="504" type="curve" smooth="yes"/>
      <point x="518.249" y="555.2"/>
      <point x="469" y="582"/>
      <point x="410" y="582" type="curve" smooth="yes"/>
      <point x="352" y="582"/>
      <point x="303" y="557"/>
      <point x="264" y="506" type="curve" smooth="yes"/>
      <point x="225" y="455"/>
      <point x="205" y="401"/>
      <point x="205" y="342" type="curve" smooth="yes"/>
      <point x="205" y="283"/>
      <point x="225" y="229"/>
      <point x="264" y="178" type="curve" smooth="yes"/>
      <point x="303" y="127"/>
      <point x="352" y="102"/>
      <point x="410" y="102" type="curve" smooth="yes"/>
      <point x="467" y="102"/>
      <point x="516" y="127"/>
      <point x="555" y="178" type="curve" smooth="yes"/>
      <point x="594" y="229"/>
      <point x="614" y="283"/>
    </contour>
  </outline>
</glyph>
<glyph name="c" format="2">
  <advance width="819"/>
  <unicode hex="0063"/>
  <outline>
    <contour>
      <point x="680" y="182" type="curve" smooth="yes"/>
      <point x="621.076" y="60.9655"/>
      <point x="530" y="0"/>
      <point x="410" y="0" type="curve" smooth="yes"/>
      <point x="322" y="0"/>
      <point x="247.863" y="34.8812"/>
      <point x="188" y="106" type="curve" smooth="yes"/>
      <point x="130.86" y="173.884"/>
      <point x="102" y="252"/>
      <point x="102" y="342" type="curve" smooth="yes"/>
      <point x="102" y="432"/>
      <point x="130.451" y="512.614"/>
      <point x="188" y="580" type="curve" smooth="yes"/>
      <point x="247.451" y="649.613"/>
      <point x="322" y="684"/>
      <point x="410" y="684" type="curve" smooth="yes"/>
      <point x="510" y="684"/>
      <point x="588.843" y="637.889"/>
      <point x="653" y="547" type="curve" smooth="yes"/>
      <point x="672.843" y="518.889"/>
      <point x="672.242" y="495.684"/>
      <point x="645" y="475" type="curve" smooth="yes"/>
      <point x="618.239" y="454.681"/>
      <point x="593.774" y="456.819"/>
      <point x="573" y="483" type="curve" smooth="yes"/>
      <point x="520.774" y="548.819"/>
      <point x="465" y="582"/>
      <point x="410" y="582" type="curve" smooth="yes"/>
      <point x="352" y="582"/>
      <point x="303" y="557"/>
      <point x="264" y="506" type="curve" smooth="yes"/>
      <point x="225" y="455"/>
      <point x="205" y="401"/>
      <point x="205" y="342" type="curve" smooth="yes"/>
      <point x="205" y="283"/>
      <point x="225" y="229"/>
      <point x="264" y="178" type="curve" smooth="yes"/>
      <point x="303" y="127"/>
      <point x="352" y="102"/>
      <point x="410" y="102" type="curve" smooth="yes"/>
      <point x="492" y="102"/>
      <point x="550.991" y="143"/>
      <point x="588" y="225" type="curve" smooth="yes"/>
      <point x="601.993" y="256.004"/>
      <point x="624.913" y="263.81"/>
      <point x="655" y="250" type="curve" smooth="yes"/>
      <point x="685.914" y="235.81"/>
      <point x="695.074" y="212.964"/>
    </contour>
  </outline>
</glyph>
<glyph name="h" format="2">
  <advance width="819"/>
  <unicode hex="0068"/>
  <outline>
    <contour>
      <point x="645" y="53" type="line" smooth="yes"/>
      <point x="645" y="23"/>
      <point x="629" y="4"/>
      <point x="594" y="0" type="curve"/>
      <point x="559" y="4"/>
      <point x="543" y="23"/>
      <point x="543" y="53" type="curve" smooth="yes"/>
      <point x="543" y="461" type="line" smooth="yes"/>
      <point x="543" y="535"/>
      <point x="473" y="582"/>
      <point x="375" y="582" type="curve" smooth="yes"/>
      <point x="283" y="582"/>
      <point x="227" y="541"/>
      <point x="205" y="461" type="curve"/>
      <point x="205" y="51" type="line" smooth="yes"/>
      <point x="205" y="20"/>
      <point x="188" y="2"/>
      <point x="154" y="0" type="curve"/>
      <point x="119" y="2"/>
      <point x="102" y="20"/>
      <point x="102" y="51" type="curve" smooth="yes"/>
      <point x="102" y="1280" type="line" smooth="yes"/>
      <point x="102" y="1311"/>
      <point x="119" y="1329"/>
      <point x="154" y="1331" type="curve"/>
      <point x="188" y="1329"/>
      <point x="205" y="1311"/>
      <point x="205" y="1280" type="curve" smooth="yes"/>
      <point x="205" y="631" type="line"/>
      <point x="240" y="666"/>
      <point x="296.998" y="684"/>
      <point x="375" y="684" type="curve" smooth="yes"/>
      <point x="524.005" y="684"/>
      <point x="645" y="598"/>
      <point x="645" y="461" type="curve" smooth="yes"/>
    </contour>
  </outline>
</glyph>
<glyph name="m" format="2">
  <advance width="1229"/>
  <unicode hex="006D"/>
  <outline>
    <contour>
      <point x="1085" y="53" type="line" smooth="yes"/>
      <point x="1085" y="17.998"/>
      <point x="1069" y="0"/>
      <point x="1034" y="0" type="curve" smooth="yes"/>
      <point x="999" y="0"/>
      <point x="983" y="17.9988"/>
      <point x="983" y="53" type="curve" smooth="yes"/>
      <point x="983" y="463" type="line"/>
      <point x="967" y="543"/>
      <point x="911" y="584"/>
      <point x="815" y="584" type="curve" smooth="yes"/>
      <point x="723" y="584"/>
      <point x="668" y="543"/>
      <point x="645" y="463" type="curve"/>
      <point x="645" y="53" type="line" smooth="yes"/>
      <point x="645" y="17.9987"/>
      <point x="629" y="0"/>
      <point x="594" y="0" type="curve" smooth="yes"/>
      <point x="559" y="0"/>
      <point x="543" y="18"/>
      <point x="543" y="53" type="curve" smooth="yes"/>
      <point x="543" y="461" type="line"/>
      <point x="528" y="541"/>
      <point x="471" y="582"/>
      <point x="375" y="582" type="curve" smooth="yes"/>
      <point x="283" y="582"/>
      <point x="227" y="541"/>
      <point x="205" y="461" type="curve"/>
      <point x="205" y="51" type="line" smooth="yes"/>
      <point x="205" y="15.9987"/>
      <point x="188" y="0"/>
      <point x="154" y="0" type="curve" smooth="yes"/>
      <point x="119" y="0"/>
      <point x="102" y="16"/>
      <point x="102" y="51" type="curve" smooth="yes"/>
      <point x="102" y="633" type="line" smooth="yes"/>
      <point x="102" y="668"/>
      <point x="119" y="684"/>
      <point x="154" y="684" type="curve" smooth="yes"/>
      <point x="188" y="684"/>
      <point x="205" y="668"/>
      <point x="205" y="633" type="curve"/>
      <point x="248" y="668"/>
      <point x="303" y="684"/>
      <point x="375" y="684" type="curve" smooth="yes"/>
      <point x="467" y="684"/>
      <point x="539" y="655"/>
      <point x="590" y="598" type="curve"/>
      <point x="645" y="657"/>
      <point x="719" y="686"/>
      <point x="815" y="686" type="curve" smooth="yes"/>
      <point x="977" y="686"/>
      <point x="1085" y="594.01"/>
      <point x="1085" y="436" type="curve" smooth="yes"/>
    </contour>
  </outline>
</glyph>
<glyph name="n" format="2">
  <advance width="819"/>
  <unicode hex="006E"/>
  <outline>
    <contour>
      <point x="645" y="53" type="line" smooth="yes"/>
      <point x="645" y="17.998"/>
      <point x="629" y="0"/>
      <point x="594" y="0" type="curve" smooth="yes"/>
      <point x="559" y="0"/>
      <point x="543" y="18"/>
      <point x="543" y="53" type="curve" smooth="yes"/>
      <point x="543" y="461" type="line"/>
      <point x="528" y="541"/>
      <point x="471" y="582"/>
      <point x="375" y="582" type="curve" smooth="yes"/>
      <point x="283" y="582"/>
      <point x="227" y="541"/>
      <point x="205" y="461" type="curve"/>
      <point x="205" y="51" type="line" smooth="yes"/>
      <point x="205" y="15.9987"/>
      <point x="188" y="0"/>
      <point x="154" y="0" type="curve" smooth="yes"/>
      <point x="119" y="0"/>
      <point x="102" y="16"/>
      <point x="102" y="51" type="curve" smooth="yes"/>
      <point x="102" y="633" type="line" smooth="yes"/>
      <point x="102" y="664"/>
      <point x="119.009" y="681.846"/>
      <point x="154" y="684" type="curve" smooth="yes"/>
      <point x="184.01" y="685.847"/>
      <point x="201" y="670"/>
      <point x="205" y="639" type="curve"/>
      <point x="205" y="631" type="line"/>
      <point x="240" y="666"/>
      <point x="297" y="684"/>
      <point x="375" y="684" type="curve" smooth="yes"/>
      <point x="539" y="684"/>
      <point x="645" y="594.01"/>
      <point x="645" y="432" type="curve" smooth="yes"/>
    </contour>
  </outline>
</glyph>
<glyph name="braceleft" format="2">
  <advance width="717"/>
  <unicode hex="007B"/>
  <outline>
    <contour>
      <point x="496" y="1329" type="curve"/>
      <point x="430" y="1321"/>
      <point x="391" y="1288"/>
      <point x="381" y="1233" type="curve"/>
      <point x="381" y="1178" type="line"/>
      <point x="381" y="889" type="line"/>
      <point x="375" y="823" type="line" smooth="yes"/>
      <point x="369.181" y="758.984"/>
      <point x="332" y="721"/>
      <point x="279" y="702" type="curve"/>
      <point x="332" y="684"/>
      <point x="365.624" y="642.944"/>
      <point x="375" y="582" type="curve" smooth="yes"/>
      <point x="377.625" y="564.938"/>
      <point x="379" y="543"/>
      <point x="379" y="516" type="curve" smooth="yes"/>
      <point x="379" y="164" type="line" smooth="yes"/>
      <point x="379" y="150"/>
      <point x="377.624" y="130.945"/>
      <point x="381" y="109" type="curve" smooth="yes"/>
      <point x="389.624" y="52.9425"/>
      <point x="428" y="20"/>
      <point x="494" y="12" type="curve"/>
      <point x="469" y="6"/>
      <point x="444" y="4"/>
      <point x="422" y="4" type="curve" smooth="yes"/>
      <point x="334" y="4"/>
      <point x="285" y="37"/>
      <point x="274" y="102" type="curve"/>
      <point x="274" y="113"/>
      <point x="271.861" y="131"/>
      <point x="272" y="156" type="curve" smooth="yes"/>
      <point x="274" y="516" type="line"/>
      <point x="268" y="575" type="line" smooth="yes"/>
      <point x="261.486" y="639.05"/>
      <point x="223" y="682"/>
      <point x="168" y="700" type="curve"/>
      <point x="223" y="721"/>
      <point x="258" y="764"/>
      <point x="270" y="827" type="curve"/>
      <point x="270" y="834"/>
      <point x="274" y="854"/>
      <point x="274" y="889" type="curve" smooth="yes"/>
      <point x="274" y="1184" type="line" smooth="yes"/>
      <point x="274" y="1198"/>
      <point x="272.681" y="1217.05"/>
      <point x="276" y="1239" type="curve" smooth="yes"/>
      <point x="285.682" y="1303.05"/>
      <point x="336" y="1335"/>
      <point x="424" y="1335" type="curve" smooth="yes"/>
      <point x="446" y="1335"/>
      <point x="469" y="1333"/>
    </contour>
  </outline>
</glyph>
<glyph name="registered" format="2">
  <advance width="1024"/>
  <unicode hex="00AE"/>
  <outline>
    <contour>
      <point x="899" y="651" type="curve" smooth="yes"/>
      <point x="899" y="532"/>
      <point x="856" y="430"/>
      <point x="772" y="346" type="curve" smooth="yes"/>
      <point x="688" y="262"/>
      <point x="588" y="221"/>
      <point x="471" y="221" type="curve" smooth="yes"/>
      <point x="352" y="221"/>
      <point x="250" y="262"/>
      <point x="166" y="346" type="curve" smooth="yes"/>
      <point x="82" y="430"/>
      <point x="41" y="532"/>
      <point x="41" y="651" type="curve" smooth="yes"/>
      <point x="41" y="770"/>
      <point x="82" y="870"/>
      <point x="166" y="954" type="curve" smooth="yes"/>
      <point x="250" y="1038"/>
      <point x="352" y="1081"/>
      <point x="471" y="1081" type="curve" smooth="yes"/>
      <point x="588" y="1081"/>
      <point x="688" y="1038"/>
      <point x="772" y="954" type="curve" smooth="yes"/>
      <point x="856" y="870"/>
      <point x="899" y="770"/>
    </contour>
    <contour>
      <point x="848" y="651" type="curve" smooth="yes"/>
      <point x="848" y="756.004"/>
      <point x="810.998" y="846.002"/>
      <point x="737" y="920" type="curve" smooth="yes"/>
      <point x="664" y="993"/>
      <point x="575" y="1030"/>
      <point x="471" y="1030" type="curve" smooth="yes"/>
      <point x="367" y="1030"/>
      <point x="276" y="993"/>
      <point x="203" y="920" type="curve" smooth="yes"/>
      <point x="129.002" y="846.002"/>
      <point x="92" y="756.004"/>
      <point x="92" y="651" type="curve" smooth="yes"/>
      <point x="92" y="546.996"/>
      <point x="129.003" y="458.004"/>
      <point x="203" y="383" type="curve" smooth="yes"/>
      <point x="276.003" y="309.004"/>
      <point x="367" y="272"/>
      <point x="471" y="272" type="curve" smooth="yes"/>
      <point x="575" y="272"/>
      <point x="663.747" y="309.252"/>
      <point x="737" y="383" type="curve" smooth="yes"/>
      <point x="811.747" y="458.252"/>
      <point x="848" y="546.996"/>
    </contour>
    <contour>
      <point x="643" y="756" type="curve" smooth="yes"/>
      <point x="654.295" y="739.195"/>
      <point x="653" y="725"/>
      <point x="637" y="715" type="curve" smooth="yes"/>
      <point x="621" y="705"/>
      <point x="605.241" y="706.148"/>
      <point x="596" y="721" type="curve" smooth="yes"/>
      <point x="577.24" y="751.15"/>
      <point x="549" y="766"/>
      <point x="510" y="766" type="curve" smooth="yes"/>
      <point x="459" y="766"/>
      <point x="428" y="743"/>
      <point x="416" y="698" type="curve"/>
      <point x="416" y="467" type="line" smooth="yes"/>
      <point x="416" y="449"/>
      <point x="406" y="440"/>
      <point x="385" y="438" type="curve"/>
      <point x="367" y="440"/>
      <point x="356" y="449"/>
      <point x="356" y="467" type="curve" smooth="yes"/>
      <point x="356" y="795" type="line" smooth="yes"/>
      <point x="356" y="813"/>
      <point x="367" y="821"/>
      <point x="385" y="823" type="curve" smooth="yes"/>
      <point x="403" y="825"/>
      <point x="414" y="817"/>
      <point x="416" y="799" type="curve"/>
      <point x="416" y="793" type="line"/>
      <point x="434" y="813"/>
      <point x="467" y="823"/>
      <point x="510" y="823" type="curve" smooth="yes"/>
      <point x="569" y="823"/>
      <point x="613.292" y="800.199"/>
    </contour>
  </outline>
</glyph>
<glyph name="acute" format="2">
  <advance width="819"/>
  <unicode hex="00B4"/>
  <outline>
    <contour>
      <point x="557" y="1249" type="curve" smooth="yes"/>
      <point x="557" y="1239"/>
      <point x="554.035" y="1228.98"/>
      <point x="549" y="1221" type="curve" smooth="yes"/>
      <point x="395" y="977" type="line" smooth="yes"/>
      <point x="384.93" y="961.045"/>
      <point x="371" y="952"/>
      <point x="356" y="952" type="curve" smooth="yes"/>
      <point x="346" y="952"/>
      <point x="335.983" y="953.975"/>
      <point x="326" y="961" type="curve" smooth="yes"/>
      <point x="308.983" y="972.975"/>
      <point x="301" y="987"/>
      <point x="301" y="1004" type="curve" smooth="yes"/>
      <point x="301" y="1014"/>
      <point x="303.505" y="1021.29"/>
      <point x="309" y="1030" type="curve" smooth="yes"/>
      <point x="463" y="1274" type="line" smooth="yes"/>
      <point x="473.07" y="1289.96"/>
      <point x="485" y="1298"/>
      <point x="502" y="1298" type="curve" smooth="yes"/>
      <point x="539" y="1298"/>
      <point x="557" y="1282"/>
    </contour>
  </outline>
</glyph>
<glyph name="cedilla" format="2">
  <advance width="473"/>
  <unicode hex="00B8"/>
  <outline>
    <contour>
      <point x="473" y="-266" type="curve" smooth="yes"/>
      <point x="473" y="-393.004"/>
      <point x="372" y="-461"/>
      <point x="236" y="-461" type="curve" smooth="yes"/>
      <point x="200" y="-461"/>
      <point x="161.991" y="-456.042"/>
      <point x="133" y="-451" type="curve" smooth="yes"/>
      <point x="115.993" y="-448.043"/>
      <point x="99" y="-445"/>
      <point x="84" y="-440" type="curve"/>
      <point x="84" y="-360" type="line"/>
      <point x="126" y="-369" type="line" smooth="yes"/>
      <point x="149.971" y="-374.136"/>
      <point x="180" y="-377"/>
      <point x="207" y="-377" type="curve" smooth="yes"/>
      <point x="272" y="-377"/>
      <point x="340" y="-356"/>
      <point x="340" y="-293" type="curve" smooth="yes"/>
      <point x="340" y="-244"/>
      <point x="297" y="-217"/>
      <point x="244" y="-217" type="curve" smooth="yes"/>
      <point x="233" y="-217"/>
      <point x="221.882" y="-219.669"/>
      <point x="213" y="-223" type="curve" smooth="yes"/>
      <point x="197" y="-229" type="line"/>
      <point x="197" y="0" type="line"/>
      <point x="276" y="0" type="line"/>
      <point x="276" y="-129" type="line"/>
      <point x="291" y="-126"/>
      <point x="301" y="-121"/>
      <point x="324" y="-121" type="curve" smooth="yes"/>
      <point x="406" y="-121"/>
      <point x="473" y="-161.996"/>
    </contour>
  </outline>
</glyph>
<glyph name="guillemotright" format="2">
  <advance width="1229"/>
  <unicode hex="00BB"/>
  <outline>
    <contour>
      <point x="1014" y="524" type="curve" smooth="yes"/>
      <point x="1014" y="510"/>
      <point x="1001" y="492"/>
      <point x="977" y="469" type="curve"/>
      <point x="676" y="252" type="line" smooth="yes"/>
      <point x="667.888" y="246.152"/>
      <point x="659" y="244"/>
      <point x="653" y="242" type="curve"/>
      <point x="635" y="240"/>
      <point x="618" y="246"/>
      <point x="604" y="264" type="curve"/>
      <point x="586" y="293"/>
      <point x="589.782" y="317.302"/>
      <point x="616" y="336" type="curve" smooth="yes"/>
      <point x="874" y="520" type="line"/>
      <point x="629" y="698" type="line" smooth="yes"/>
      <point x="602.947" y="716.928"/>
      <point x="598" y="741"/>
      <point x="616" y="770" type="curve"/>
      <point x="631" y="788"/>
      <point x="647" y="795"/>
      <point x="666" y="793" type="curve"/>
      <point x="672" y="791"/>
      <point x="679.916" y="787.887"/>
      <point x="688" y="782" type="curve" smooth="yes"/>
      <point x="975" y="573" type="line" smooth="yes"/>
      <point x="1001.69" y="553.565"/>
      <point x="1014" y="537"/>
    </contour>
    <contour>
      <point x="643" y="518" type="curve" smooth="yes"/>
      <point x="643" y="504"/>
      <point x="631" y="487"/>
      <point x="606" y="465" type="curve"/>
      <point x="305" y="248" type="line" smooth="yes"/>
      <point x="296.888" y="242.152"/>
      <point x="289" y="240"/>
      <point x="283" y="238" type="curve"/>
      <point x="264" y="236"/>
      <point x="248" y="242"/>
      <point x="233" y="260" type="curve"/>
      <point x="215" y="289"/>
      <point x="219.878" y="311.168"/>
      <point x="246" y="330" type="curve" smooth="yes"/>
      <point x="504" y="516" type="line"/>
      <point x="258" y="692" type="line" smooth="yes"/>
      <point x="231.809" y="710.738"/>
      <point x="226.228" y="735.84"/>
      <point x="246" y="764" type="curve" smooth="yes"/>
      <point x="259.229" y="782.841"/>
      <point x="276" y="788"/>
      <point x="295" y="786" type="curve"/>
      <point x="301" y="784"/>
      <point x="308.889" y="781.85"/>
      <point x="317" y="776" type="curve" smooth="yes"/>
      <point x="604" y="569" type="line" smooth="yes"/>
      <point x="631.908" y="548.871"/>
      <point x="643" y="530"/>
    </contour>
  </outline>
</glyph>
<glyph name="questiondown" format="2">
  <advance width="1024"/>
  <unicode hex="00BF"/>
  <outline>
    <contour>
      <point x="530" y="1272" type="curve" smooth="yes"/>
      <point x="530" y="1233"/>
      <point x="510" y="1212"/>
      <point x="471" y="1212" type="curve" smooth="yes"/>
      <point x="432" y="1212"/>
      <point x="412" y="1233"/>
      <point x="412" y="1272" type="curve" smooth="yes"/>
      <point x="412" y="1311"/>
      <point x="432" y="1331"/>
      <point x="471" y="1331" type="curve" smooth="yes"/>
      <point x="510" y="1331"/>
      <point x="530" y="1311"/>
    </contour>
    <contour>
      <point x="739" y="227" type="curve" smooth="yes"/>
      <point x="733.908" y="98"/>
      <point x="637" y="0"/>
      <point x="512" y="0" type="curve" smooth="yes"/>
      <point x="381" y="0"/>
      <point x="285" y="93.9945"/>
      <point x="285" y="227" type="curve" smooth="yes"/>
      <point x="285" y="283.002"/>
      <point x="305.589" y="359.188"/>
      <point x="352" y="457" type="curve" smooth="yes"/>
      <point x="398.592" y="555.195"/>
      <point x="422" y="632.999"/>
      <point x="422" y="688" type="curve" smooth="yes" name=".hr01"/>
      <point x="422" y="983" type="line" smooth="yes"/>
      <point x="422" y="1014"/>
      <point x="438" y="1032"/>
      <point x="473" y="1034" type="curve"/>
      <point x="508" y="1032"/>
      <point x="524" y="1014"/>
      <point x="524" y="983" type="curve" smooth="yes"/>
      <point x="524" y="676" type="line" smooth="yes"/>
      <point x="524" y="609.998"/>
      <point x="502" y="532"/>
      <point x="455" y="444" type="curve" smooth="yes"/>
      <point x="408" y="356"/>
      <point x="385" y="283"/>
      <point x="385" y="227" type="curve" smooth="yes"/>
      <point x="385" y="160"/>
      <point x="444" y="102"/>
      <point x="512" y="102" type="curve" smooth="yes"/>
      <point x="547" y="102"/>
      <point x="577.011" y="112.989"/>
      <point x="600" y="135" type="curve" smooth="yes"/>
      <point x="624.01" y="157.988"/>
      <point x="636" y="186"/>
      <point x="637" y="221" type="curve" smooth="yes"/>
      <point x="638" y="256"/>
      <point x="655" y="274"/>
      <point x="690" y="274" type="curve" smooth="yes"/>
      <point x="713" y="274"/>
      <point x="739.908" y="250.004"/>
    </contour>
  </outline>
</glyph>
<glyph name="Agrave" format="2">
  <advance width="1331"/>
  <unicode hex="00C0"/>
  <outline>
    <contour>
      <point x="743" y="1161" type="curve" smooth="yes"/>
      <point x="743" y="1137"/>
      <point x="715" y="1108"/>
      <point x="690" y="1108" type="curve" smooth="yes"/>
      <point x="678" y="1108"/>
      <point x="665.548" y="1113.52"/>
      <point x="655" y="1124" type="curve" smooth="yes"/>
      <point x="510" y="1268" type="line" smooth="yes"/>
      <point x="499.965" y="1277.97"/>
      <point x="494" y="1290"/>
      <point x="494" y="1303" type="curve" smooth="yes"/>
      <point x="494" y="1329"/>
      <point x="520" y="1356"/>
      <point x="547" y="1356" type="curve" smooth="yes"/>
      <point x="559" y="1356"/>
      <point x="570.924" y="1349.92"/>
      <point x="582" y="1339" type="curve" smooth="yes"/>
      <point x="727" y="1196" type="line" smooth="yes"/>
      <point x="737.069" y="1186.07"/>
      <point x="743" y="1174"/>
    </contour>
    <contour>
      <point x="1192" y="51" type="curve" smooth="yes"/>
      <point x="1192" y="33"/>
      <point x="1182" y="18"/>
      <point x="1163" y="6" type="curve"/>
      <point x="1153" y="2"/>
      <point x="1145" y="0"/>
      <point x="1137" y="0" type="curve" smooth="yes"/>
      <point x="1118" y="0"/>
      <point x="1104.02" y="10.0098"/>
      <point x="1094" y="29" type="curve" smooth="yes"/>
      <point x="864" y="465" type="line"/>
      <point x="428" y="465" type="line"/>
      <point x="201" y="29" type="line" smooth="yes"/>
      <point x="191.085" y="9.95525"/>
      <point x="176" y="0"/>
      <point x="158" y="0" type="curve" smooth="yes"/>
      <point x="150" y="0"/>
      <point x="141" y="2"/>
      <point x="131" y="6" type="curve"/>
      <point x="113" y="18"/>
      <point x="102" y="33"/>
      <point x="102" y="51" type="curve" smooth="yes"/>
      <point x="102" y="59"/>
      <point x="104" y="68"/>
      <point x="111" y="76" type="curve"/>
      <point x="592" y="999" type="line" smooth="yes"/>
      <point x="609.156" y="1031.92"/>
      <point x="627" y="1049"/>
      <point x="645" y="1049" type="curve" smooth="yes"/>
      <point x="664" y="1049"/>
      <point x="681.774" y="1031.88"/>
      <point x="698" y="1001" type="curve" smooth="yes"/>
      <point x="1184" y="76" type="line"/>
      <point x="1190" y="68"/>
      <point x="1192" y="59"/>
    </contour>
    <contour>
      <point x="811" y="567" type="line"/>
      <point x="645" y="881" type="line"/>
      <point x="481" y="567" type="line"/>
    </contour>
  </outline>
</glyph>
<glyph name="Atilde" format="2">
  <advance width="1331"/>
  <unicode hex="00C3"/>
  <outline>
    <contour>
      <point x="936" y="1239" type="curve"/>
      <point x="866" y="1192"/>
      <point x="801" y="1167"/>
      <point x="741" y="1167" type="curve" smooth="yes"/>
      <point x="725" y="1167"/>
      <point x="696.031" y="1175.07"/>
      <point x="655" y="1192" type="curve" smooth="yes"/>
      <point x="616.03" y="1208.08"/>
      <point x="582" y="1217" name=".hr01"/>
      <point x="553" y="1217" type="curve" smooth="yes"/>
      <point x="510" y="1217"/>
      <point x="469" y="1202"/>
      <point x="428" y="1174" type="curve"/>
      <point x="403" y="1151"/>
      <point x="379" y="1151"/>
      <point x="356" y="1174" type="curve" smooth="yes"/>
      <point x="334" y="1196"/>
      <point x="334" y="1221"/>
      <point x="358" y="1247" type="curve"/>
      <point x="426" y="1294"/>
      <point x="492" y="1319"/>
      <point x="553" y="1319" type="curve" smooth="yes"/>
      <point x="584" y="1319"/>
      <point x="617.812" y="1309.58"/>
      <point x="657" y="1292" type="curve" smooth="yes"/>
      <point x="695.815" y="1274.58"/>
      <point x="725" y="1268"/>
      <point x="741" y="1268" type="curve" smooth="yes"/>
      <point x="784" y="1268"/>
      <point x="826.136" y="1280.83"/>
      <point x="864" y="1311" type="curve" smooth="yes"/>
      <point x="890.137" y="1331.83"/>
      <point x="913" y="1334"/>
      <point x="936" y="1311" type="curve" smooth="yes"/>
      <point x="959" y="1288"/>
      <point x="958" y="1264"/>
    </contour>
    <contour>
      <point x="1192" y="51" type="curve" smooth="yes"/>
      <point x="1192" y="33"/>
      <point x="1182" y="18"/>
      <point x="1163" y="6" type="curve"/>
      <point x="1153" y="2"/>
      <point x="1145" y="0"/>
      <point x="1137" y="0" type="curve" smooth="yes"/>
      <point x="1118" y="0"/>
      <point x="1104.02" y="10.0098"/>
      <point x="1094" y="29" type="curve" smooth="yes"/>
      <point x="864" y="465" type="line"/>
      <point x="428" y="465" type="line"/>
      <point x="201" y="29" type="line" smooth="yes"/>
      <point x="191.085" y="9.95525"/>
      <point x="176" y="0"/>
      <point x="158" y="0" type="curve" smooth="yes"/>
      <point x="150" y="0"/>
      <point x="141" y="2"/>
      <point x="131" y="6" type="curve"/>
      <point x="113" y="18"/>
      <point x="102" y="33"/>
      <point x="102" y="51" type="curve" smooth="yes"/>
      <point x="102" y="59"/>
      <point x="104" y="68"/>
      <point x="111" y="76" type="curve"/>
      <point x="592" y="999" type="line" smooth="yes"/>
      <point x="609.156" y="1031.92"/>
      <point x="627" y="1049"/>
      <point x="645" y="1049" type="curve" smooth="yes"/>
      <point x="664" y="1049"/>
      <point x="681.774" y="1031.88"/>
      <point x="698" y="1001" type="curve" smooth="yes"/>
      <point x="1184" y="76" type="line"/>
      <point x="1190" y="68"/>
      <point x="1192" y="59"/>
    </contour>
    <contour>
      <point x="811" y="567" type="line"/>
      <point x="645" y="881" type="line"/>
      <point x="481" y="567" type="line"/>
    </contour>
  </outline>
</glyph>
<glyph name="Edieresis" format="2">
  <advance width="1024"/>
  <unicode hex="00CB"/>
  <outline>
    <contour>
      <point x="694" y="1229" type="curve" smooth="yes"/>
      <point x="694" y="1186"/>
      <point x="674" y="1165"/>
      <point x="633" y="1165" type="curve" smooth="yes"/>
      <point x="590" y="1165"/>
      <point x="569" y="1186"/>
      <point x="569" y="1229" type="curve" smooth="yes"/>
      <point x="569" y="1270"/>
      <point x="590" y="1290"/>
      <point x="633" y="1290" type="curve" smooth="yes"/>
      <point x="674" y="1290"/>
      <point x="694" y="1270"/>
    </contour>
    <contour>
      <point x="377" y="1229" type="curve" smooth="yes"/>
      <point x="377" y="1186"/>
      <point x="356" y="1165"/>
      <point x="315" y="1165" type="curve" smooth="yes"/>
      <point x="272" y="1165"/>
      <point x="252" y="1186"/>
      <point x="252" y="1229" type="curve" smooth="yes"/>
      <point x="252" y="1270"/>
      <point x="272" y="1290"/>
      <point x="315" y="1290" type="curve" smooth="yes"/>
      <point x="356" y="1290"/>
      <point x="377" y="1270"/>
    </contour>
    <contour>
      <point x="825" y="51" type="curve"/>
      <point x="823" y="16"/>
      <point x="805" y="0"/>
      <point x="774" y="0" type="curve" smooth="yes"/>
      <point x="154" y="0" type="line" smooth="yes"/>
      <point x="119" y="0"/>
      <point x="102" y="16"/>
      <point x="102" y="51" type="curve" smooth="yes"/>
      <point x="102" y="1034" type="line" smooth="yes"/>
      <point x="102" y="1069"/>
      <point x="119" y="1085"/>
      <point x="154" y="1085" type="curve" smooth="yes"/>
      <point x="774" y="1085" type="line" smooth="yes"/>
      <point x="805" y="1085"/>
      <point x="823" y="1069"/>
      <point x="825" y="1034" type="curve"/>
      <point x="823" y="999"/>
      <point x="805" y="983"/>
      <point x="774" y="983" type="curve" smooth="yes"/>
      <point x="205" y="983" type="line"/>
      <point x="205" y="608" type="line"/>
      <point x="543" y="608" type="line" smooth="yes"/>
      <point x="573" y="608"/>
      <point x="592" y="592"/>
      <point x="594" y="557" type="curve"/>
      <point x="592" y="522"/>
      <point x="573" y="506"/>
      <point x="543" y="506" type="curve" smooth="yes"/>
      <point x="205" y="506" type="line"/>
      <point x="205" y="102" type="line"/>
      <point x="774" y="102" type="line" smooth="yes"/>
      <point x="805" y="102"/>
      <point x="823" y="86"/>
    </contour>
  </outline>
</glyph>
<glyph name="Ograve" format="2">
  <advance width="1331"/>
  <unicode hex="00D2"/>
  <outline>
    <contour>
      <point x="782" y="1161" type="curve" smooth="yes"/>
      <point x="782" y="1137"/>
      <point x="754" y="1108"/>
      <point x="729" y="1108" type="curve" smooth="yes"/>
      <point x="717" y="1108"/>
      <point x="704.475" y="1113.45"/>
      <point x="694" y="1124" type="curve" smooth="yes"/>
      <point x="551" y="1268" type="line" smooth="yes"/>
      <point x="541.035" y="1278.03"/>
      <point x="535" y="1290"/>
      <point x="535" y="1303" type="curve" smooth="yes"/>
      <point x="535" y="1329"/>
      <point x="561" y="1356"/>
      <point x="588" y="1356" type="curve" smooth="yes"/>
      <point x="598" y="1356"/>
      <point x="611" y="1351"/>
      <point x="623" y="1339" type="curve" smooth="yes"/>
      <point x="766" y="1196" type="line" smooth="yes"/>
      <point x="776" y="1186"/>
      <point x="782" y="1174"/>
    </contour>
    <contour>
      <point x="1214" y="557" type="curve" smooth="yes"/>
      <point x="1214" y="401"/>
      <point x="1161" y="270.002"/>
      <point x="1053" y="162" type="curve" smooth="yes"/>
      <point x="943.997" y="52.9967"/>
      <point x="813.004" y="0"/>
      <point x="657" y="0" type="curve" smooth="yes"/>
      <point x="501.996" y="0"/>
      <point x="370" y="52.9943"/>
      <point x="262" y="162" type="curve" smooth="yes"/>
      <point x="154.996" y="270"/>
      <point x="102" y="401"/>
      <point x="102" y="557" type="curve" smooth="yes"/>
      <point x="102" y="713"/>
      <point x="154.996" y="844"/>
      <point x="262" y="952" type="curve" smooth="yes"/>
      <point x="370" y="1061.01"/>
      <point x="501.995" y="1114"/>
      <point x="657" y="1114" type="curve" smooth="yes"/>
      <point x="813.004" y="1114"/>
      <point x="943.997" y="1061"/>
      <point x="1053" y="952" type="curve" smooth="yes"/>
      <point x="1161" y="843.998"/>
      <point x="1214" y="713"/>
    </contour>
    <contour>
      <point x="1112" y="555" type="curve" smooth="yes"/>
      <point x="1112" y="682"/>
      <point x="1067.25" y="788.251"/>
      <point x="979" y="877" type="curve" smooth="yes"/>
      <point x="891.251" y="965.247"/>
      <point x="784" y="1010"/>
      <point x="657" y="1010" type="curve" smooth="yes"/>
      <point x="530" y="1010"/>
      <point x="423.749" y="965.248"/>
      <point x="336" y="877" type="curve" smooth="yes"/>
      <point x="247.752" y="788.251"/>
      <point x="205" y="682"/>
      <point x="205" y="555" type="curve" smooth="yes"/>
      <point x="205" y="428"/>
      <point x="247.752" y="321.749"/>
      <point x="336" y="233" type="curve" smooth="yes"/>
      <point x="423.749" y="144.753"/>
      <point x="530" y="102"/>
      <point x="657" y="102" type="curve" smooth="yes"/>
      <point x="784" y="102"/>
      <point x="891.251" y="144.752"/>
      <point x="979" y="233" type="curve" smooth="yes"/>
      <point x="1067.25" y="321.749"/>
      <point x="1112" y="428"/>
    </contour>
  </outline>
</glyph>
<glyph name="aring" format="2">
  <advance width="819"/>
  <unicode hex="00E5"/>
  <outline>
    <contour>
      <point x="535" y="961" type="curve" smooth="yes"/>
      <point x="535" y="893"/>
      <point x="481" y="836"/>
      <point x="410" y="836" type="curve" smooth="yes"/>
      <point x="342" y="836"/>
      <point x="287" y="893"/>
      <point x="287" y="961" type="curve" smooth="yes"/>
      <point x="287" y="1028"/>
      <point x="342" y="1085"/>
      <point x="410" y="1085" type="curve" smooth="yes"/>
      <point x="481" y="1085"/>
      <point x="535" y="1028"/>
    </contour>
    <contour>
      <point x="719" y="51" type="line" smooth="yes"/>
      <point x="719" y="20"/>
      <point x="702" y="2"/>
      <point x="668" y="0" type="curve"/>
      <point x="633" y="2"/>
      <point x="616" y="20"/>
      <point x="616" y="51" type="curve" smooth="yes"/>
      <point x="616" y="92" type="line"/>
      <point x="557" y="31"/>
      <point x="489" y="0"/>
      <point x="410" y="0" type="curve" smooth="yes"/>
      <point x="322" y="0"/>
      <point x="247.863" y="34.8812"/>
      <point x="188" y="106" type="curve" smooth="yes"/>
      <point x="130.86" y="173.884"/>
      <point x="102" y="252"/>
      <point x="102" y="342" type="curve" smooth="yes"/>
      <point x="102" y="432"/>
      <point x="130.451" y="512.614"/>
      <point x="188" y="580" type="curve" smooth="yes"/>
      <point x="247.451" y="649.613"/>
      <point x="322" y="684"/>
      <point x="410" y="684" type="curve" smooth="yes"/>
      <point x="489" y="684"/>
      <point x="557" y="653"/>
      <point x="616" y="592" type="curve"/>
      <point x="616" y="633" type="line" smooth="yes"/>
      <point x="616" y="664"/>
      <point x="633" y="682"/>
      <point x="668" y="684" type="curve"/>
      <point x="702" y="682"/>
      <point x="719" y="664"/>
      <point x="719" y="633" type="curve" smooth="yes"/>
    </contour>
    <contour>
      <point x="473" y="961" type="curve" smooth="yes"/>
      <point x="473" y="1001"/>
      <point x="453" y="1022"/>
      <point x="410" y="1022" type="curve" smooth="yes"/>
      <point x="369" y="1022"/>
      <point x="348" y="1001"/>
      <point x="348" y="961" type="curve" smooth="yes"/>
      <point x="348" y="918"/>
      <point x="369" y="897"/>
      <point x="410" y="897" type="curve" smooth="yes"/>
      <point x="453" y="897"/>
      <point x="473" y="918"/>
    </contour>
    <contour>
      <point x="614" y="342" type="curve" smooth="yes"/>
      <point x="614" y="401"/>
      <point x="596.251" y="457.197"/>
      <point x="559" y="504" type="curve" smooth="yes"/>
      <point x="518.249" y="555.2"/>
      <point x="469" y="582"/>
      <point x="410" y="582" type="curve" smooth="yes"/>
      <point x="352" y="582"/>
      <point x="303" y="557"/>
      <point x="264" y="506" type="curve" smooth="yes"/>
      <point x="225" y="455"/>
      <point x="205" y="401"/>
      <point x="205" y="342" type="curve" smooth="yes"/>
      <point x="205" y="283"/>
      <point x="225" y="229"/>
      <point x="264" y="178" type="curve" smooth="yes"/>
      <point x="303" y="127"/>
      <point x="352" y="102"/>
      <point x="410" y="102" type="curve" smooth="yes"/>
      <point x="467" y="102"/>
      <point x="516" y="127"/>
      <point x="555" y="178" type="curve" smooth="yes"/>
      <point x="594" y="229"/>
      <point x="614" y="283"/>
    </contour>
  </outline>
</glyph>
<glyph name="edieresis" format="2">
  <advance width="819"/>
  <unicode hex="00EB"/>
  <outline>
    <contour>
      <point x="621" y="856" type="curve" smooth="yes"/>
      <point x="621" y="813"/>
      <point x="600" y="793"/>
      <point x="559" y="793" type="curve" smooth="yes"/>
      <point x="516" y="793"/>
      <point x="496" y="813"/>
      <point x="496" y="856" type="curve" smooth="yes"/>
      <point x="496" y="897"/>
      <point x="516" y="918"/>
      <point x="559" y="918" type="curve" smooth="yes"/>
      <point x="600" y="918"/>
      <point x="621" y="897"/>
    </contour>
    <contour>
      <point x="303" y="856" type="curve" smooth="yes"/>
      <point x="303" y="813"/>
      <point x="283" y="793"/>
      <point x="242" y="793" type="curve" smooth="yes"/>
      <point x="199" y="793"/>
      <point x="178" y="813"/>
      <point x="178" y="856" type="curve" smooth="yes"/>
      <point x="178" y="897"/>
      <point x="199" y="918"/>
      <point x="242" y="918" type="curve" smooth="yes"/>
      <point x="283" y="918"/>
      <point x="303" y="897"/>
    </contour>
    <contour>
      <point x="717" y="342" type="curve"/>
      <point x="205" y="342" type="line"/>
      <point x="205" y="283"/>
      <point x="225" y="229"/>
      <point x="264" y="178" type="curve" smooth="yes"/>
      <point x="303" y="127"/>
      <point x="352" y="102"/>
      <point x="410" y="102" type="curve" smooth="yes"/>
      <point x="477" y="102"/>
      <point x="530" y="131"/>
      <point x="569" y="186" type="curve"/>
      <point x="584" y="217"/>
      <point x="606" y="225"/>
      <point x="637" y="211" type="curve" smooth="yes"/>
      <point x="668" y="197"/>
      <point x="676" y="174"/>
      <point x="662" y="143" type="curve"/>
      <point x="594" y="47"/>
      <point x="510" y="0"/>
      <point x="410" y="0" type="curve" smooth="yes"/>
      <point x="322" y="0"/>
      <point x="247.863" y="34.8812"/>
      <point x="188" y="106" type="curve" smooth="yes"/>
      <point x="130.86" y="173.884"/>
      <point x="102" y="252"/>
      <point x="102" y="342" type="curve" smooth="yes"/>
      <point x="102" y="432" name=".hr01"/>
      <point x="130.451" y="512.614"/>
      <point x="188" y="580" type="curve" smooth="yes"/>
      <point x="247.451" y="649.613"/>
      <point x="322" y="684"/>
      <point x="410" y="684" type="curve" smooth="yes"/>
      <point x="500" y="684"/>
      <point x="573.234" y="649.199"/>
      <point x="633" y="578" type="curve" smooth="yes"/>
      <point x="688.236" y="512.196"/>
      <point x="717" y="434"/>
    </contour>
    <contour>
      <point x="592" y="444" type="line"/>
      <point x="553" y="537"/>
      <point x="492" y="582"/>
      <point x="410" y="582" type="curve" smooth="yes"/>
      <point x="328" y="582"/>
      <point x="266" y="537"/>
      <point x="227" y="444" type="curve"/>
    </contour>
  </outline>
</glyph>
<glyph name="idieresis" format="2">
  <advance width="614"/>
  <unicode hex="00EF"/>
  <outline>
    <contour>
      <point x="545" y="856" type="curve" smooth="yes"/>
      <point x="545" y="813"/>
      <point x="524" y="793"/>
      <point x="481" y="793" type="curve" smooth="yes"/>
      <point x="440" y="793"/>
      <point x="420" y="813"/>
      <point x="420" y="856" type="curve" smooth="yes"/>
      <point x="420" y="897"/>
      <point x="440" y="918"/>
      <point x="481" y="918" type="curve" smooth="yes"/>
      <point x="524" y="918"/>
      <point x="545" y="897"/>
    </contour>
    <contour>
      <point x="227" y="856" type="curve" smooth="yes"/>
      <point x="227" y="813"/>
      <point x="207" y="793"/>
      <point x="164" y="793" type="curve" smooth="yes"/>
      <point x="123" y="793"/>
      <point x="102" y="813"/>
      <point x="102" y="856" type="curve" smooth="yes"/>
      <point x="102" y="897"/>
      <point x="123" y="918"/>
      <point x="164" y="918" type="curve" smooth="yes"/>
      <point x="207" y="918"/>
      <point x="227" y="897"/>
    </contour>
    <contour>
      <point x="375" y="51" type="line" smooth="yes"/>
      <point x="375" y="20"/>
      <point x="358" y="2"/>
      <point x="324" y="0" type="curve"/>
      <point x="289" y="2"/>
      <point x="272" y="20"/>
      <point x="272" y="51" type="curve" smooth="yes"/>
      <point x="272" y="633" type="line" smooth="yes"/>
      <point x="272" y="664"/>
      <point x="289" y="682"/>
      <point x="324" y="684" type="curve"/>
      <point x="358" y="682"/>
      <point x="375" y="664"/>
      <point x="375" y="633" type="curve" smooth="yes"/>
    </contour>
  </outline>
</glyph>
<glyph name="oslash" format="2">
  <advance width="922"/>
  <unicode hex="00F8"/>
  <outline>
    <contour>
      <point x="717" y="342" type="curve" smooth="yes"/>
      <point x="717" y="251.996"/>
      <point x="688.14" y="173.884"/>
      <point x="631" y="106" type="curve" smooth="yes"/>
      <point x="571.138" y="34.8812"/>
      <point x="498" y="0"/>
      <point x="410" y="0" type="curve" smooth="yes"/>
      <point x="377" y="0"/>
      <point x="344" y="6"/>
      <point x="313" y="16" type="curve"/>
      <point x="268" y="-80" type="line" smooth="yes"/>
      <point x="254.511" y="-108.778"/>
      <point x="231.178" y="-117.61"/>
      <point x="201" y="-104" type="curve" smooth="yes"/>
      <point x="180.172" y="-94.6073"/>
      <point x="170" y="-78"/>
      <point x="170" y="-59" type="curve" smooth="yes"/>
      <point x="170" y="-53"/>
      <point x="172.218" y="-45.1052"/>
      <point x="176" y="-37" type="curve" smooth="yes"/>
      <point x="225" y="68" type="line"/>
      <point x="143" y="137"/>
      <point x="102" y="228.996"/>
      <point x="102" y="342" type="curve" smooth="yes"/>
      <point x="102" y="432.004"/>
      <point x="130.451" y="512.614"/>
      <point x="188" y="580" type="curve" smooth="yes"/>
      <point x="247.451" y="649.613"/>
      <point x="322" y="684"/>
      <point x="410" y="684" type="curve" smooth="yes"/>
      <point x="444" y="684"/>
      <point x="475" y="678"/>
      <point x="506" y="668" type="curve"/>
      <point x="547" y="754" type="line" smooth="yes"/>
      <point x="560.858" y="783.068"/>
      <point x="583.822" y="791.61"/>
      <point x="614" y="778" type="curve" smooth="yes"/>
      <point x="634.828" y="768.607"/>
      <point x="645" y="754"/>
      <point x="645" y="735" type="curve" smooth="yes"/>
      <point x="645" y="729"/>
      <point x="643.786" y="721.104"/>
      <point x="639" y="711" type="curve" smooth="yes"/>
      <point x="594" y="616" type="line"/>
      <point x="676" y="549"/>
      <point x="717" y="457.004"/>
    </contour>
    <contour>
      <point x="614" y="342" type="curve" smooth="yes"/>
      <point x="614" y="410"/>
      <point x="592" y="467"/>
      <point x="549" y="516" type="curve"/>
      <point x="358" y="111" type="line"/>
      <point x="375" y="104"/>
      <point x="391" y="102"/>
      <point x="410" y="102" type="curve" smooth="yes"/>
      <point x="467" y="102"/>
      <point x="516" y="127"/>
      <point x="555" y="178" type="curve" smooth="yes"/>
      <point x="594" y="229"/>
      <point x="614" y="283"/>
    </contour>
    <contour>
      <point x="463" y="573" type="line"/>
      <point x="444" y="580"/>
      <point x="428" y="582"/>
      <point x="410" y="582" type="curve" smooth="yes"/>
      <point x="352" y="582"/>
      <point x="303" y="557"/>
      <point x="264" y="506" type="curve" smooth="yes"/>
      <point x="225" y="455"/>
      <point x="205" y="401"/>
      <point x="205" y="342" type="curve" smooth="yes"/>
      <point x="205" y="276"/>
      <point x="227" y="219"/>
      <point x="272" y="168" type="curve"/>
    </contour>
  </outline>
</glyph>
<glyph name="uni1200" format="2">
  <advance width="900"/>
  <unicode hex="1200"/>
  <outline>
    <component base="bar"/>
    <contour>
      <point x="753.645" y="1155.84" type="curve" smooth="yes"/>
      <point x="855.917" y="969.479"/>
      <point x="767.506" y="588.885"/>
      <point x="696.795" y="421.38" type="curve" smooth="yes"/>
      <point x="602.446" y="197.882"/>
      <point x="448.012" y="2"/>
      <point x="310.962" y="2" type="curve" smooth="yes"/>
      <point x="142.599" y="2"/>
      <point x="25.0045" y="159.695"/>
      <point x="54.553" y="318.406" type="curve"/>
      <point x="199.444" y="1090.69" type="line"/>
      <point x="207.948" y="1136.58"/>
      <point x="276.765" y="1123.77"/>
      <point x="268.262" y="1077.88" type="curve"/>
      <point x="123.371" y="305.594" type="line"/>
      <point x="101.709" y="189.244"/>
      <point x="186.385" y="72"/>
      <point x="310.962" y="72" type="curve" smooth="yes"/>
      <point x="396.488" y="72"/>
      <point x="535.256" y="218.707"/>
      <point x="632.306" y="448.604" type="curve" smooth="yes"/>
      <point x="703.16" y="616.446"/>
      <point x="755.064" y="867.555"/>
      <point x="718.762" y="1052.25" type="curve" smooth="yes"/>
      <point x="714.616" y="1073.34"/>
      <point x="707.199" y="1094.97"/>
      <point x="692.279" y="1122.16" type="curve" smooth="yes"/>
      <point x="669.828" y="1163.07"/>
      <point x="731.186" y="1196.76"/>
    </contour>
  </outline>
</glyph>
<glyph name="uni1201" format="2">
  <advance width="1291"/>
  <unicode hex="1201"/>
  <outline>
    <component base="bar"/>
    <contour>
      <point x="1191" y="737" type="line" smooth="yes"/>
      <point x="1191" y="718"/>
      <point x="1175" y="702"/>
      <point x="1156" y="702" type="curve" smooth="yes"/>
      <point x="777.437" y="702.005" type="line"/>
      <point x="756.833" y="591.579"/>
      <point x="725.365" y="489.058"/>
      <point x="696.795" y="421.38" type="curve" smooth="yes"/>
      <point x="602.46" y="197.913"/>
      <point x="448.011" y="2"/>
      <point x="310.962" y="2" type="curve" smooth="yes"/>
      <point x="142.6" y="2"/>
      <point x="25.0075" y="159.71"/>
      <point x="54.553" y="318.406" type="curve"/>
      <point x="199.444" y="1090.69" type="line"/>
      <point x="207.948" y="1136.58"/>
      <point x="276.765" y="1123.77"/>
      <point x="268.262" y="1077.88" type="curve"/>
      <point x="123.371" y="305.594" type="line"/>
      <point x="101.715" y="189.275"/>
      <point x="186.372" y="72"/>
      <point x="310.962" y="72" type="curve" smooth="yes"/>
      <point x="396.498" y="72"/>
      <point x="535.258" y="218.712"/>
      <point x="632.306" y="448.604" type="curve" smooth="yes"/>
      <point x="703.167" y="616.465"/>
      <point x="755.065" y="867.543"/>
      <point x="718.761" y="1052.25" type="curve" smooth="yes"/>
      <point x="714.616" y="1073.34"/>
      <point x="707.198" y="1094.97"/>
      <point x="692.279" y="1122.16" type="curve" smooth="yes"/>
      <point x="669.827" y="1163.08"/>
      <point x="731.185" y="1196.77"/>
      <point x="753.645" y="1155.84" type="curve" smooth="yes"/>
      <point x="805.931" y="1060.56"/>
      <point x="808.375" y="914.425"/>
      <point x="788.808" y="771.998" type="curve"/>
      <point x="1156" y="772" type="line" smooth="yes"/>
      <point x="1175" y="772"/>
      <point x="1191" y="757"/>
      <point x="1191" y="738" type="curve" smooth="yes"/>
    </contour>
  </outline>
</glyph>
<glyph name="uni1203" format="2">
  <advance width="799"/>
  <unicode hex="1203"/>
  <outline>
    <component base="bar"/>
    <contour>
      <point x="697.74" y="1360.19" type="curve" smooth="yes"/>
      <point x="364.74" y="22.1875" type="line" smooth="yes"/>
      <point x="353.469" y="-23.099"/>
      <point x="284.652" y="-10.286"/>
      <point x="295.922" y="35" type="curve" smooth="yes"/>
      <point x="496.12" y="839.418" type="line"/>
      <point x="439.781" y="794.168"/>
      <point x="367.578" y="768"/>
      <point x="279.922" y="768" type="curve" smooth="yes"/>
      <point x="111.562" y="768"/>
      <point x="47.9205" y="914.247"/>
      <point x="50.0515" y="1075.67" type="curve" smooth="yes"/>
      <point x="53.388" y="1328.4" type="line" smooth="yes"/>
      <point x="54.0038" y="1375.06"/>
      <point x="124" y="1374.39"/>
      <point x="123.384" y="1327.74" type="curve" smooth="yes"/>
      <point x="120.048" y="1075" type="line" smooth="yes"/>
      <point x="118.487" y="956.738"/>
      <point x="155.337" y="838"/>
      <point x="279.923" y="838" type="curve" smooth="yes"/>
      <point x="416.972" y="838"/>
      <point x="491.184" y="889.36"/>
      <point x="541.307" y="1020.99" type="curve"/>
      <point x="628.922" y="1373" type="line" smooth="yes"/>
      <point x="640.194" y="1418.29"/>
      <point x="709.011" y="1405.47"/>
    </contour>
  </outline>
</glyph>
<glyph name="uni1205" format="2">
  <advance width="1028"/>
  <unicode hex="1205"/>
  <outline>
    <component base="bar"/>
    <contour>
      <point x="881.278" y="1153.84" type="curve" smooth="yes"/>
      <point x="983.528" y="967.51"/>
      <point x="895.157" y="586.93"/>
      <point x="824.428" y="419.38" type="curve" smooth="yes"/>
      <point x="730.083" y="195.882"/>
      <point x="575.643" y="0"/>
      <point x="438.595" y="0" type="curve" smooth="yes"/>
      <point x="270.235" y="0"/>
      <point x="150.956" y="157.996"/>
      <point x="182.187" y="316.406" type="curve" smooth="yes"/>
      <point x="240.358" y="611.469" type="line"/>
      <point x="85.0365" y="611.463" type="line"/>
      <point x="65.7068" y="611.463"/>
      <point x="50.0313" y="627.132"/>
      <point x="50.0313" y="646.461" type="curve" smooth="yes"/>
      <point x="50.0313" y="648.859"/>
      <point x="49.8603" y="651.217"/>
      <point x="50.3195" y="653.479" type="curve"/>
      <point x="94.0447" y="945.642" type="line" smooth="yes"/>
      <point x="100.944" y="991.742"/>
      <point x="170.181" y="981.443"/>
      <point x="163.274" y="935.281" type="curve" smooth="yes"/>
      <point x="125.293" y="681.461" type="line"/>
      <point x="273.011" y="681.461" type="line" smooth="yes"/>
      <point x="301.636" y="681.461"/>
      <point x="322.178" y="666.83"/>
      <point x="315.953" y="635.062" type="curve" smooth="yes"/>
      <point x="251.004" y="303.594" type="line" smooth="yes"/>
      <point x="228.264" y="187.543"/>
      <point x="313.995" y="70"/>
      <point x="438.595" y="70" type="curve" smooth="yes"/>
      <point x="524.139" y="70"/>
      <point x="662.884" y="216.687"/>
      <point x="759.939" y="446.604" type="curve" smooth="yes"/>
      <point x="830.811" y="614.494"/>
      <point x="882.7" y="865.507"/>
      <point x="846.395" y="1050.25" type="curve" smooth="yes"/>
      <point x="842.249" y="1071.35"/>
      <point x="834.827" y="1092.98"/>
      <point x="819.912" y="1120.16" type="curve" smooth="yes"/>
      <point x="797.458" y="1161.09"/>
      <point x="858.811" y="1194.78"/>
    </contour>
  </outline>
</glyph>
<glyph name="uni1206" format="2">
  <advance width="1184"/>
  <unicode hex="1206"/>
  <outline>
    <component base="bar"/>
    <contour>
      <point x="1083.97" y="1118" type="curve" smooth="yes"/>
      <point x="1083.97" y="1023"/>
      <point x="1006.97" y="946"/>
      <point x="911.966" y="946" type="curve" smooth="yes"/>
      <point x="868.966" y="946"/>
      <point x="827.241" y="967.983"/>
      <point x="797.241" y="992.983" type="curve"/>
      <point x="814.297" y="798.424"/>
      <point x="750.417" y="548.484"/>
      <point x="696.761" y="421.38" type="curve" smooth="yes"/>
      <point x="602.424" y="197.906"/>
      <point x="447.977" y="2"/>
      <point x="310.928" y="2" type="curve" smooth="yes"/>
      <point x="142.567" y="2"/>
      <point x="25.1068" y="159.685"/>
      <point x="54.5193" y="318.406" type="curve"/>
      <point x="199.411" y="1090.69" type="line"/>
      <point x="207.914" y="1136.58"/>
      <point x="276.731" y="1123.77"/>
      <point x="268.228" y="1077.88" type="curve"/>
      <point x="123.337" y="305.594" type="line"/>
      <point x="101.798" y="189.359"/>
      <point x="186.328" y="72"/>
      <point x="310.928" y="72" type="curve" smooth="yes"/>
      <point x="396.472" y="72"/>
      <point x="535.259" y="218.79"/>
      <point x="632.272" y="448.604" type="curve" smooth="yes"/>
      <point x="689.556" y="584.303"/>
      <point x="729.591" y="783.448"/>
      <point x="729.777" y="948.98" type="curve" smooth="yes"/>
      <point x="729.966" y="1118" type="line" smooth="yes"/>
      <point x="730.073" y="1213"/>
      <point x="816.966" y="1290"/>
      <point x="911.966" y="1290" type="curve" smooth="yes"/>
      <point x="1006.97" y="1290"/>
      <point x="1083.97" y="1213"/>
    </contour>
    <contour>
      <point x="1013.97" y="1118" type="curve" smooth="yes"/>
      <point x="1013.97" y="1174"/>
      <point x="967.966" y="1220"/>
      <point x="911.966" y="1220" type="curve" smooth="yes"/>
      <point x="855.966" y="1220"/>
      <point x="809.966" y="1174"/>
      <point x="809.966" y="1118" type="curve" smooth="yes"/>
      <point x="809.966" y="1062"/>
      <point x="855.966" y="1016"/>
      <point x="911.966" y="1016" type="curve" smooth="yes"/>
      <point x="967.966" y="1016"/>
      <point x="1013.97" y="1062"/>
    </contour>
  </outline>
</glyph>
<glyph name="uni1207" format="2">
  <advance width="1810"/>
  <unicode hex="1207"/>
  <outline>
    <contour>
      <point x="1808" y="1077" type="curve" smooth="yes"/>
      <point x="1808" y="939"/>
      <point x="1665" y="807"/>
      <point x="1416" y="807" type="curve" smooth="yes"/>
      <point x="1392" y="807"/>
      <point x="1368" y="808"/>
      <point x="1341" y="811" type="curve"/>
      <point x="1311" y="481" type="line" smooth="yes"/>
      <point x="1288.45" y="232.966"/>
      <point x="1120.99" y="0"/>
      <point x="782" y="0" type="curve" smooth="yes"/>
      <point x="529.008" y="0"/>
      <point x="489" y="217" name=".hr01"/>
      <point x="489" y="348" type="curve" smooth="yes"/>
      <point x="489" y="388"/>
      <point x="504" y="537"/>
      <point x="520" y="673" type="curve"/>
      <point x="408" y="656" type="line"/>
      <point x="392" y="429"/>
      <point x="253" y="363"/>
      <point x="141" y="363" type="curve" smooth="yes"/>
      <point x="106" y="363"/>
      <point x="72" y="369"/>
      <point x="55" y="382" type="curve" name=".hr02"/>
      <point x="76" y="398"/>
      <point x="109" y="438"/>
      <point x="109" y="537" type="curve" smooth="yes"/>
      <point x="109" y="580"/>
      <point x="100.327" y="615.098"/>
      <point x="92" y="642" type="curve" smooth="yes"/>
      <point x="87.325" y="657.104"/>
      <point x="82" y="672"/>
      <point x="76" y="685" type="curve"/>
      <point x="528" y="747" type="line"/>
      <point x="536" y="827"/>
      <point x="543" y="892"/>
      <point x="543" y="915" type="curve" smooth="yes"/>
      <point x="543" y="978"/>
      <point x="512" y="1006"/>
      <point x="485" y="1014" type="curve"/>
      <point x="485" y="1038" type="line"/>
      <point x="526" y="1050"/>
      <point x="565.068" y="1060.74"/>
      <point x="601" y="1070" type="curve" smooth="yes"/>
      <point x="662.065" y="1085.74"/>
      <point x="727" y="1102"/>
      <point x="751" y="1102" type="curve" smooth="yes" name=".hr03"/>
      <point x="798" y="1102"/>
      <point x="813" y="1070"/>
      <point x="813" y="1010" type="curve" smooth="yes"/>
      <point x="813" y="950"/>
      <point x="751" y="383"/>
      <point x="751" y="240" type="curve" smooth="yes"/>
      <point x="751" y="123"/>
      <point x="811" y="82"/>
      <point x="878" y="82" type="curve" smooth="yes"/>
      <point x="961" y="82"/>
      <point x="1015.61" y="167.037"/>
      <point x="1030" y="324" type="curve" smooth="yes"/>
      <point x="1051" y="553" type="line" smooth="yes"/>
      <point x="1062.37" y="676.965"/>
      <point x="1073.89" y="814.007"/>
      <point x="1079" y="881" type="curve" smooth="yes"/>
      <point x="1082.89" y="932.011"/>
      <point x="1087" y="969"/>
      <point x="1087" y="981" type="curve" smooth="yes"/>
      <point x="1087" y="1044"/>
      <point x="1069.77" y="1078.82"/>
      <point x="1054" y="1099" type="curve" smooth="yes"/>
      <point x="1044.77" y="1110.82"/>
      <point x="1034" y="1119"/>
      <point x="1022" y="1124" type="curve"/>
      <point x="1022" y="1157" type="line"/>
      <point x="1266" y="1210" type="line" smooth="yes"/>
      <point x="1390.97" y="1237.15"/>
      <point x="1521.04" y="1263.81"/>
      <point x="1542" y="1268" type="curve" smooth="yes"/>
      <point x="1577" y="1275" type="line" smooth="yes"/>
      <point x="1597" y="1279"/>
      <point x="1620" y="1282"/>
      <point x="1636" y="1282" type="curve" smooth="yes"/>
      <point x="1718" y="1282"/>
      <point x="1808" y="1237" name=".hr04"/>
    </contour>
    <contour>
      <point x="1524" y="1059" type="curve" smooth="yes"/>
      <point x="1524" y="1112" name=".hr05"/>
      <point x="1499" y="1161"/>
      <point x="1440" y="1161" type="curve" smooth="yes"/>
      <point x="1393" y="1161"/>
      <point x="1370.54" y="1147.05"/>
      <point x="1358" y="1012" type="curve" smooth="yes"/>
      <point x="1345" y="872" type="line"/>
      <point x="1469" y="869"/>
      <point x="1524" y="968"/>
    </contour>
  </outline>
</glyph>
<glyph name="uni1208" format="2">
  <advance width="822"/>
  <unicode hex="1208"/>
  <outline>
    <component base="bar"/>
    <contour>
      <point x="722.001" y="35" type="line" smooth="yes"/>
      <point x="722.001" y="16"/>
      <point x="706.001" y="0"/>
      <point x="687.001" y="0" type="curve" smooth="yes"/>
      <point x="667.001" y="0"/>
      <point x="652.001" y="16"/>
      <point x="652.001" y="35" type="curve" smooth="yes"/>
      <point x="652.001" y="800" type="line" smooth="yes"/>
      <point x="652.001" y="979.002"/>
      <point x="508.001" y="1153"/>
      <point x="508.001" y="1153" type="curve"/>
      <point x="101.186" y="930"/>
      <point x="126.01" y="722.15"/>
      <point x="120.001" y="35" type="curve" smooth="yes"/>
      <point x="119.835" y="16"/>
      <point x="104.001" y="0"/>
      <point x="85.0012" y="0" type="curve" smooth="yes"/>
      <point x="66.0012" y="0"/>
      <point x="49.841" y="16"/>
      <point x="50.0012" y="35" type="curve" smooth="yes"/>
      <point x="55.4809" y="684.443"/>
      <point x="21.1857" y="982"/>
      <point x="469.001" y="1205" type="curve"/>
      <point x="469.001" y="1205"/>
      <point x="440.09" y="1259.07"/>
      <point x="388.001" y="1325" type="curve" smooth="yes"/>
      <point x="376.093" y="1340.07"/>
      <point x="379.001" y="1362"/>
      <point x="394.001" y="1374" type="curve" smooth="yes"/>
      <point x="409.001" y="1386"/>
      <point x="430.07" y="1384.06"/>
      <point x="443.001" y="1368" type="curve" smooth="yes"/>
      <point x="612.071" y="1158.05"/>
      <point x="722.001" y="945"/>
      <point x="722.001" y="835" type="curve" smooth="yes"/>
    </contour>
  </outline>
</glyph>
<glyph name="uni1209" format="2">
  <advance width="1254"/>
  <unicode hex="1209"/>
  <outline>
    <component base="bar"/>
    <contour>
      <point x="1154.14" y="709.868" type="line"/>
      <point x="1155.88" y="689.942"/>
      <point x="1141.24" y="673.654"/>
      <point x="1122.32" y="671.95" type="curve" smooth="yes"/>
      <point x="725.918" y="636.265" type="line"/>
      <point x="722.001" y="35" type="line" smooth="yes"/>
      <point x="721.878" y="16"/>
      <point x="706.001" y="0"/>
      <point x="687.001" y="0" type="curve" smooth="yes"/>
      <point x="667.001" y="0"/>
      <point x="652.001" y="16"/>
      <point x="652.001" y="35" type="curve" smooth="yes"/>
      <point x="652.001" y="800" type="line" smooth="yes"/>
      <point x="652.001" y="979.002"/>
      <point x="508.001" y="1153"/>
      <point x="508.001" y="1153" type="curve"/>
      <point x="101.186" y="930"/>
      <point x="126.01" y="722.143"/>
      <point x="120.001" y="35" type="curve" smooth="yes"/>
      <point x="119.835" y="16"/>
      <point x="104.001" y="0"/>
      <point x="85.0013" y="0" type="curve" smooth="yes"/>
      <point x="66.0013" y="0"/>
      <point x="49.8411" y="16"/>
      <point x="50.0013" y="35" type="curve" smooth="yes"/>
      <point x="55.481" y="684.466"/>
      <point x="21.1858" y="982"/>
      <point x="469.001" y="1205" type="curve"/>
      <point x="469.001" y="1205"/>
      <point x="440.089" y="1259.08"/>
      <point x="388.001" y="1325" type="curve" smooth="yes"/>
      <point x="376.094" y="1340.07"/>
      <point x="379.001" y="1362"/>
      <point x="394.001" y="1374" type="curve" smooth="yes"/>
      <point x="409.001" y="1386"/>
      <point x="430.07" y="1384.06"/>
      <point x="443.001" y="1368" type="curve" smooth="yes"/>
      <point x="612.07" y="1158.06"/>
      <point x="723.953" y="944.99"/>
      <point x="722.001" y="835" type="curve" smooth="yes"/>
      <point x="719.73" y="706.995" type="line"/>
      <point x="1116.22" y="741.684" type="line" smooth="yes"/>
      <point x="1135.15" y="743.34"/>
      <point x="1152.48" y="728.796"/>
      <point x="1154.05" y="710.864" type="curve"/>
    </contour>
  </outline>
</glyph>
<glyph name="uni120A" format="2">
  <advance width="1254"/>
  <unicode hex="120A"/>
  <outline>
    <component base="bar"/>
    <contour>
      <point x="1154" y="35" type="curve" smooth="yes"/>
      <point x="1154" y="16"/>
      <point x="1139" y="0"/>
      <point x="1119" y="0" type="curve" smooth="yes"/>
      <point x="685.001" y="0" type="line" smooth="yes"/>
      <point x="666" y="0"/>
      <point x="651" y="16"/>
      <point x="651" y="35" type="curve" smooth="yes"/>
      <point x="651" y="800" type="line" smooth="yes"/>
      <point x="651" y="979.002"/>
      <point x="508" y="1153"/>
      <point x="508" y="1153" type="curve"/>
      <point x="101.185" y="930"/>
      <point x="126.009" y="722.165"/>
      <point x="120" y="35" type="curve" smooth="yes"/>
      <point x="119.834" y="16"/>
      <point x="104" y="0"/>
      <point x="85" y="0" type="curve" smooth="yes"/>
      <point x="66" y="0"/>
      <point x="49.8398" y="16"/>
      <point x="50" y="35" type="curve" smooth="yes"/>
      <point x="55.4795" y="684.458"/>
      <point x="21.1845" y="982"/>
      <point x="469" y="1205" type="curve"/>
      <point x="469" y="1205"/>
      <point x="439.087" y="1259.08"/>
      <point x="387" y="1325" type="curve" smooth="yes"/>
      <point x="375.092" y="1340.07"/>
      <point x="378" y="1362"/>
      <point x="393" y="1374" type="curve" smooth="yes"/>
      <point x="408" y="1386"/>
      <point x="429.069" y="1384.06"/>
      <point x="442" y="1368" type="curve" smooth="yes"/>
      <point x="611.069" y="1158.06"/>
      <point x="721" y="945.001"/>
      <point x="721" y="835" type="curve" smooth="yes"/>
      <point x="721" y="70" type="line"/>
      <point x="1119" y="70" type="line" smooth="yes"/>
      <point x="1138" y="70"/>
      <point x="1154" y="54"/>
    </contour>
  </outline>
</glyph>
<glyph name="uni120B" format="2">
  <advance width="819"/>
  <unicode hex="120B"/>
  <outline>
    <component base="bar"/>
    <contour>
      <point x="719.284" y="35" type="line" smooth="yes"/>
      <point x="719.284" y="16"/>
      <point x="703.284" y="0"/>
      <point x="684.284" y="0" type="curve" smooth="yes"/>
      <point x="664.284" y="0"/>
      <point x="649.284" y="16"/>
      <point x="649.284" y="35" type="curve" smooth="yes"/>
      <point x="649.284" y="800" type="line" smooth="yes"/>
      <point x="649.284" y="979.002"/>
      <point x="505.284" y="1153"/>
      <point x="505.284" y="1153" type="curve"/>
      <point x="177.031" y="973.065"/>
      <point x="129.802" y="802.988"/>
      <point x="120.646" y="383.031" type="curve"/>
      <point x="120.48" y="364.031"/>
      <point x="104.646" y="348.031"/>
      <point x="85.646" y="348.031" type="curve" smooth="yes"/>
      <point x="66.646" y="348.031"/>
      <point x="49.8408" y="367.018"/>
      <point x="50" y="386.018" type="curve"/>
      <point x="58.437" y="800.988"/>
      <point x="108.418" y="1026.79"/>
      <point x="466.283" y="1205" type="curve"/>
      <point x="466.283" y="1205"/>
      <point x="437.371" y="1259.07"/>
      <point x="385.283" y="1325" type="curve" smooth="yes"/>
      <point x="373.375" y="1340.07"/>
      <point x="376.283" y="1362"/>
      <point x="391.283" y="1374" type="curve" smooth="yes"/>
      <point x="406.283" y="1386"/>
      <point x="427.351" y="1384.06"/>
      <point x="440.283" y="1368" type="curve" smooth="yes"/>
      <point x="609.352" y="1158.05"/>
      <point x="719.283" y="945"/>
      <point x="719.283" y="835" type="curve" smooth="yes"/>
    </contour>
  </outline>
</glyph>
<glyph name="uni120C" format="2">
  <advance width="1106"/>
  <unicode hex="120C"/>
  <outline>
    <component base="bar"/>
    <contour>
      <point x="1006" y="172" type="curve" smooth="yes"/>
      <point x="1006" y="77"/>
      <point x="929.001" y="0"/>
      <point x="834.001" y="0" type="curve" smooth="yes"/>
      <point x="739.001" y="0"/>
      <point x="652.001" y="77"/>
      <point x="652.001" y="172" type="curve" smooth="yes"/>
      <point x="652.001" y="800" type="line" smooth="yes"/>
      <point x="652.001" y="979"/>
      <point x="508.001" y="1153"/>
      <point x="508.001" y="1153" type="curve"/>
      <point x="101.186" y="930"/>
      <point x="126.01" y="722.158"/>
      <point x="120.001" y="35" type="curve" smooth="yes"/>
      <point x="119.835" y="16"/>
      <point x="104.001" y="0"/>
      <point x="85.0012" y="0" type="curve" smooth="yes"/>
      <point x="66.0012" y="0"/>
      <point x="49.841" y="16"/>
      <point x="50.0012" y="35" type="curve" smooth="yes"/>
      <point x="55.4804" y="684.451"/>
      <point x="21.1857" y="982"/>
      <point x="469.001" y="1205" type="curve"/>
      <point x="469.001" y="1205"/>
      <point x="440.089" y="1259.07"/>
      <point x="388.001" y="1325" type="curve" smooth="yes"/>
      <point x="376.093" y="1340.07"/>
      <point x="379.001" y="1362"/>
      <point x="394.001" y="1374" type="curve" smooth="yes"/>
      <point x="409.001" y="1386"/>
      <point x="430.069" y="1384.06"/>
      <point x="443.001" y="1368" type="curve" smooth="yes"/>
      <point x="612.07" y="1158.05"/>
      <point x="722.001" y="945"/>
      <point x="722.001" y="835" type="curve" smooth="yes"/>
      <point x="722.001" y="303" type="line"/>
      <point x="752.001" y="328"/>
      <point x="791.001" y="344"/>
      <point x="834.001" y="344" type="curve" smooth="yes"/>
      <point x="929.001" y="344"/>
      <point x="1006" y="267"/>
    </contour>
    <contour>
      <point x="936.001" y="172" type="curve" smooth="yes"/>
      <point x="936.001" y="228"/>
      <point x="890.001" y="274"/>
      <point x="834.001" y="274" type="curve" smooth="yes"/>
      <point x="778.001" y="274"/>
      <point x="732.001" y="228"/>
      <point x="732.001" y="172" type="curve" smooth="yes"/>
      <point x="732.001" y="116"/>
      <point x="778.001" y="70"/>
      <point x="834.001" y="70" type="curve" smooth="yes"/>
      <point x="890.001" y="70"/>
      <point x="936.001" y="116"/>
    </contour>
  </outline>
</glyph>
<glyph name="uni120D" format="2">
  <advance width="822"/>
  <unicode hex="120D"/>
  <outline>
    <component base="bar"/>
    <contour>
      <point x="721.787" y="35" type="line" smooth="yes"/>
      <point x="721.787" y="16"/>
      <point x="705.787" y="0"/>
      <point x="686.787" y="0" type="curve" smooth="yes"/>
      <point x="666.787" y="0"/>
      <point x="651.787" y="16"/>
      <point x="651.787" y="35" type="curve" smooth="yes"/>
      <point x="651.787" y="800" type="line" smooth="yes"/>
      <point x="651.787" y="979.002"/>
      <point x="507.787" y="1153"/>
      <point x="507.787" y="1153" type="curve"/>
      <point x="160.911" y="962.857"/>
      <point x="125.937" y="777.636"/>
      <point x="120" y="303" type="curve"/>
      <point x="150" y="328"/>
      <point x="189" y="344"/>
      <point x="232" y="344" type="curve" smooth="yes"/>
      <point x="327" y="344"/>
      <point x="404" y="267"/>
      <point x="404" y="172" type="curve" smooth="yes"/>
      <point x="404" y="77"/>
      <point x="327" y="0"/>
      <point x="232" y="0" type="curve" smooth="yes"/>
      <point x="137" y="0"/>
      <point x="50.165" y="76.9935"/>
      <point x="50" y="172" type="curve"/>
      <point x="52.2765" y="728.236"/>
      <point x="53.4973" y="998.197"/>
      <point x="468.787" y="1205" type="curve"/>
      <point x="468.787" y="1205"/>
      <point x="439.875" y="1259.07"/>
      <point x="387.787" y="1325" type="curve" smooth="yes"/>
      <point x="375.879" y="1340.07"/>
      <point x="378.787" y="1362"/>
      <point x="393.787" y="1374" type="curve" smooth="yes"/>
      <point x="408.787" y="1386"/>
      <point x="429.855" y="1384.06"/>
      <point x="442.787" y="1368" type="curve" smooth="yes"/>
      <point x="611.856" y="1158.05"/>
      <point x="721.787" y="945"/>
      <point x="721.787" y="835" type="curve" smooth="yes"/>
    </contour>
    <contour>
      <point x="334" y="172" type="curve" smooth="yes"/>
      <point x="334" y="228"/>
      <point x="288" y="274"/>
      <point x="232" y="274" type="curve" smooth="yes"/>
      <point x="176" y="274"/>
      <point x="130" y="228"/>
      <point x="130" y="172" type="curve" smooth="yes"/>
      <point x="130" y="116"/>
      <point x="176" y="70"/>
      <point x="232" y="70" type="curve" smooth="yes"/>
      <point x="288" y="70"/>
      <point x="334" y="116"/>
    </contour>
  </outline>
</glyph>
<glyph name="uni120E" format="2">
  <advance width="1426"/>
  <unicode hex="120E"/>
  <outline>
    <component base="bar"/>
    <contour>
      <point x="1325.39" y="909.538" type="curve" smooth="yes"/>
      <point x="1333.67" y="814.899"/>
      <point x="1263.68" y="731.48"/>
      <point x="1169.04" y="723.2" type="curve" smooth="yes"/>
      <point x="1074.4" y="714.921"/>
      <point x="990.982" y="784.919"/>
      <point x="982.702" y="879.556" type="curve" smooth="yes"/>
      <point x="980" y="910.438"/>
      <point x="991.008" y="979.661"/>
      <point x="1018.5" y="998.128" type="curve"/>
      <point x="691" y="973" type="line"/>
      <point x="724.214" y="911.779"/>
      <point x="721.001" y="875.872"/>
      <point x="721.001" y="835" type="curve" smooth="yes"/>
      <point x="721.001" y="35" type="line" smooth="yes"/>
      <point x="721.001" y="16"/>
      <point x="705.001" y="0"/>
      <point x="686.001" y="0" type="curve" smooth="yes"/>
      <point x="666.001" y="0"/>
      <point x="651.001" y="16"/>
      <point x="651.001" y="35" type="curve" smooth="yes"/>
      <point x="651.001" y="800" type="line" smooth="yes"/>
      <point x="651.001" y="914.081"/>
      <point x="566.172" y="1082.72"/>
      <point x="508.001" y="1153" type="curve"/>
      <point x="101.186" y="930"/>
      <point x="126.01" y="722.158"/>
      <point x="120.001" y="35" type="curve" smooth="yes"/>
      <point x="119.835" y="16"/>
      <point x="104.001" y="0"/>
      <point x="85.0013" y="0" type="curve" smooth="yes"/>
      <point x="66.0013" y="0"/>
      <point x="49.841" y="16"/>
      <point x="50.0012" y="35" type="curve" smooth="yes"/>
      <point x="55.4805" y="684.451"/>
      <point x="21.1857" y="982"/>
      <point x="469.001" y="1205" type="curve"/>
      <point x="469.001" y="1205"/>
      <point x="439.088" y="1259.07"/>
      <point x="387.001" y="1325" type="curve" smooth="yes"/>
      <point x="375.094" y="1340.07"/>
      <point x="378.001" y="1362"/>
      <point x="393.001" y="1374" type="curve" smooth="yes"/>
      <point x="408.001" y="1386"/>
      <point x="429.069" y="1384.06"/>
      <point x="442.001" y="1368" type="curve" smooth="yes"/>
      <point x="526.917" y="1262.55"/>
      <point x="595.387" y="1128.96"/>
      <point x="652" y="1040" type="curve"/>
      <point x="1138.19" y="1075.86" type="line" smooth="yes"/>
      <point x="1232.92" y="1082.84"/>
      <point x="1317.11" y="1004.18"/>
    </contour>
    <contour>
      <point x="1254.66" y="903.35" type="curve" smooth="yes"/>
      <point x="1249.7" y="960.133"/>
      <point x="1200.95" y="1001.04"/>
      <point x="1145.16" y="996.159" type="curve" smooth="yes"/>
      <point x="1088.37" y="991.191"/>
      <point x="1047.47" y="942.44"/>
      <point x="1052.44" y="885.656" type="curve" smooth="yes"/>
      <point x="1057.32" y="829.869"/>
      <point x="1106.07" y="788.963"/>
      <point x="1162.85" y="793.93" type="curve" smooth="yes"/>
      <point x="1218.64" y="798.811"/>
      <point x="1259.55" y="847.563"/>
    </contour>
  </outline>
</glyph>
<glyph name="uni1210" format="2">
  <advance width="1118"/>
  <unicode hex="1210"/>
  <outline>
    <component base="bar"/>
    <contour>
      <point x="1018.18" y="35" type="line" smooth="yes"/>
      <point x="1018.18" y="16"/>
      <point x="1002.18" y="0"/>
      <point x="983.18" y="0" type="curve" smooth="yes"/>
      <point x="963.18" y="0"/>
      <point x="948.18" y="16"/>
      <point x="948.18" y="35" type="curve" smooth="yes"/>
      <point x="948.18" y="582" type="line" smooth="yes"/>
      <point x="948.18" y="746.007"/>
      <point x="879.492" y="778.685"/>
      <point x="696.18" y="774" type="curve" smooth="yes"/>
      <point x="603.407" y="771.629" type="line"/>
      <point x="538.91" y="34.4402" type="line" smooth="yes"/>
      <point x="537.254" y="15.5127"/>
      <point x="519.899" y="0.972724"/>
      <point x="500.993" y="2.62372" type="curve"/>
      <point x="499.997" y="2.71072" type="line"/>
      <point x="481.09" y="4.36172"/>
      <point x="466.524" y="21.7007"/>
      <point x="468.18" y="40.6282" type="curve" smooth="yes"/>
      <point x="532.677" y="777.817" type="line"/>
      <point x="246.529" y="777.817"/>
      <point x="113.985" y="584.092"/>
      <point x="120.18" y="34.9195" type="curve" smooth="yes"/>
      <point x="120.706" y="-11.7155"/>
      <point x="50.7101" y="-12.5037"/>
      <point x="50.1841" y="34.13" type="curve" smooth="yes"/>
      <point x="43.8988" y="591.352"/>
      <point x="198.588" y="847.551"/>
      <point x="538.778" y="847.551" type="curve"/>
      <point x="584.449" y="1369.56" type="line" smooth="yes"/>
      <point x="586.105" y="1388.49"/>
      <point x="603.46" y="1403.03"/>
      <point x="622.367" y="1401.38" type="curve"/>
      <point x="623.363" y="1401.29" type="line"/>
      <point x="642.27" y="1399.64"/>
      <point x="656.835" y="1382.3"/>
      <point x="655.179" y="1363.37" type="curve" smooth="yes"/>
      <point x="609.509" y="841.363" type="line"/>
      <point x="694.18" y="845" type="line" smooth="yes"/>
      <point x="873.025" y="852.683"/>
      <point x="1018.18" y="819.006"/>
      <point x="1018.18" y="613" type="curve" smooth="yes"/>
    </contour>
  </outline>
</glyph>
<glyph name="uni1211" format="2">
  <advance width="1551"/>
  <unicode hex="1211"/>
  <outline>
    <component base="bar"/>
    <contour>
      <point x="1451.18" y="503" type="line" smooth="yes"/>
      <point x="1451.18" y="483"/>
      <point x="1435.18" y="468.047"/>
      <point x="1416.18" y="468" type="curve" smooth="yes"/>
      <point x="1018.18" y="467" type="line"/>
      <point x="1018.18" y="35" type="line" smooth="yes"/>
      <point x="1018.18" y="16"/>
      <point x="1002.18" y="0"/>
      <point x="983.179" y="0" type="curve" smooth="yes"/>
      <point x="963.179" y="0"/>
      <point x="948.179" y="16"/>
      <point x="948.179" y="35" type="curve" smooth="yes"/>
      <point x="948.179" y="582" type="line" smooth="yes"/>
      <point x="948.179" y="746.007"/>
      <point x="879.3" y="778.681"/>
      <point x="696.179" y="774" type="curve" smooth="yes"/>
      <point x="603.407" y="771.629" type="line"/>
      <point x="538.91" y="34.4402" type="line" smooth="yes"/>
      <point x="537.254" y="15.5127"/>
      <point x="519.911" y="0.971723"/>
      <point x="500.993" y="2.62372" type="curve"/>
      <point x="499.996" y="2.71072" type="line"/>
      <point x="481.078" y="4.36272"/>
      <point x="466.524" y="21.7007"/>
      <point x="468.18" y="40.6282" type="curve" smooth="yes"/>
      <point x="532.677" y="777.817" type="line"/>
      <point x="246.522" y="777.817"/>
      <point x="113.985" y="584.103"/>
      <point x="120.18" y="34.9194" type="curve" smooth="yes"/>
      <point x="120.705" y="-11.7123"/>
      <point x="50.7098" y="-12.5005"/>
      <point x="50.184" y="34.13" type="curve" smooth="yes"/>
      <point x="43.8988" y="591.363"/>
      <point x="198.596" y="847.551"/>
      <point x="538.778" y="847.551" type="curve"/>
      <point x="584.449" y="1369.56" type="line" smooth="yes"/>
      <point x="586.105" y="1388.49"/>
      <point x="603.448" y="1403.03"/>
      <point x="622.367" y="1401.38" type="curve"/>
      <point x="623.363" y="1401.29" type="line"/>
      <point x="642.282" y="1399.64"/>
      <point x="656.835" y="1382.3"/>
      <point x="655.179" y="1363.37" type="curve" smooth="yes"/>
      <point x="609.509" y="841.363" type="line"/>
      <point x="694.18" y="845" type="line" smooth="yes"/>
      <point x="873.025" y="852.683"/>
      <point x="1018.18" y="819"/>
      <point x="1018.18" y="613" type="curve" smooth="yes"/>
      <point x="1018.18" y="538" type="line"/>
      <point x="1416.18" y="538" type="line" smooth="yes"/>
      <point x="1435.18" y="538"/>
      <point x="1451.18" y="523"/>
      <point x="1451.18" y="504" type="curve" smooth="yes"/>
    </contour>
  </outline>
</glyph>
<glyph name="uni1213" format="2">
  <advance width="1100"/>
  <unicode hex="1213"/>
  <outline>
    <component base="bar"/>
    <contour>
      <point x="999.91" y="35" type="line" smooth="yes"/>
      <point x="999.91" y="16"/>
      <point x="983.91" y="0"/>
      <point x="964.91" y="0" type="curve" smooth="yes"/>
      <point x="944.91" y="0"/>
      <point x="929.91" y="16"/>
      <point x="929.91" y="35" type="curve" smooth="yes"/>
      <point x="929.91" y="582" type="line" smooth="yes"/>
      <point x="929.91" y="746.007"/>
      <point x="860.917" y="776.869"/>
      <point x="677.91" y="774" type="curve" smooth="yes"/>
      <point x="569.667" y="772.303" type="line"/>
      <point x="536.111" y="388.766" type="line" smooth="yes"/>
      <point x="534.453" y="369.813"/>
      <point x="517.098" y="355.298"/>
      <point x="498.193" y="356.949" type="curve"/>
      <point x="497.197" y="357.036" type="line"/>
      <point x="478.292" y="358.687"/>
      <point x="463.723" y="376.001"/>
      <point x="465.381" y="394.954" type="curve" smooth="yes"/>
      <point x="498.936" y="778.491" type="line"/>
      <point x="294.136" y="778.491"/>
      <point x="168.022" y="679.259"/>
      <point x="115.137" y="421.511" type="curve"/>
      <point x="109.141" y="377.486"/>
      <point x="34.9347" y="380.234"/>
      <point x="52.7562" y="447.178" type="curve"/>
      <point x="116.364" y="719.842"/>
      <point x="264.227" y="848.225"/>
      <point x="505.038" y="848.225" type="curve"/>
      <point x="550.708" y="1370.23" type="line" smooth="yes"/>
      <point x="552.364" y="1389.16"/>
      <point x="569.721" y="1403.7"/>
      <point x="588.626" y="1402.05" type="curve"/>
      <point x="589.622" y="1401.96" type="line"/>
      <point x="608.527" y="1400.31"/>
      <point x="623.095" y="1382.97"/>
      <point x="621.439" y="1364.05" type="curve" smooth="yes"/>
      <point x="575.768" y="842.037" type="line"/>
      <point x="675.91" y="845" type="line" smooth="yes"/>
      <point x="855.032" y="850.3"/>
      <point x="999.91" y="819.005"/>
      <point x="999.91" y="613" type="curve" smooth="yes"/>
    </contour>
  </outline>
</glyph>
<glyph name="uni1214" format="2">
  <advance width="1401"/>
  <unicode hex="1214"/>
  <outline>
    <component base="bar"/>
    <contour>
      <point x="1301.18" y="171" type="curve" smooth="yes"/>
      <point x="1301.18" y="76"/>
      <point x="1224.18" y="0"/>
      <point x="1129.18" y="0" type="curve" smooth="yes"/>
      <point x="1034.18" y="0"/>
      <point x="946.929" y="75.994"/>
      <point x="947.179" y="171" type="curve" smooth="yes"/>
      <point x="948.179" y="550" type="line" smooth="yes"/>
      <point x="948.612" y="714.082"/>
      <point x="913.105" y="776.14"/>
      <point x="766.179" y="774" type="curve" smooth="yes"/>
      <point x="603.407" y="771.629" type="line"/>
      <point x="538.91" y="34.4402" type="line" smooth="yes"/>
      <point x="537.254" y="15.5127"/>
      <point x="519.912" y="0.971723"/>
      <point x="500.993" y="2.62372" type="curve"/>
      <point x="499.996" y="2.71072" type="line"/>
      <point x="481.077" y="4.36272"/>
      <point x="466.524" y="21.7007"/>
      <point x="468.18" y="40.6282" type="curve" smooth="yes"/>
      <point x="532.677" y="777.817" type="line"/>
      <point x="246.522" y="777.817"/>
      <point x="113.985" y="584.103"/>
      <point x="120.179" y="34.9194" type="curve" smooth="yes"/>
      <point x="120.705" y="-11.7123"/>
      <point x="50.7098" y="-12.5005"/>
      <point x="50.184" y="34.13" type="curve" smooth="yes"/>
      <point x="43.8987" y="591.363"/>
      <point x="198.596" y="847.551"/>
      <point x="538.778" y="847.551" type="curve"/>
      <point x="584.449" y="1369.56" type="line" smooth="yes"/>
      <point x="586.105" y="1388.49"/>
      <point x="603.447" y="1403.03"/>
      <point x="622.366" y="1401.38" type="curve"/>
      <point x="623.363" y="1401.29" type="line"/>
      <point x="642.283" y="1399.64"/>
      <point x="656.835" y="1382.3"/>
      <point x="655.179" y="1363.37" type="curve" smooth="yes"/>
      <point x="609.509" y="841.363" type="line"/>
      <point x="765.18" y="845" type="line" smooth="yes"/>
      <point x="943.206" y="849.16"/>
      <point x="1018.64" y="757.004"/>
      <point x="1018.18" y="613" type="curve" smooth="yes"/>
      <point x="1017.18" y="302" type="line"/>
      <point x="1047.18" y="328"/>
      <point x="1086.18" y="343"/>
      <point x="1129.18" y="343" type="curve" smooth="yes"/>
      <point x="1224.18" y="343"/>
      <point x="1301.18" y="266"/>
    </contour>
    <contour>
      <point x="1231.18" y="171" type="curve" smooth="yes"/>
      <point x="1231.18" y="228"/>
      <point x="1185.18" y="273"/>
      <point x="1129.18" y="273" type="curve" smooth="yes"/>
      <point x="1073.18" y="273"/>
      <point x="1027.18" y="228"/>
      <point x="1027.18" y="171" type="curve" smooth="yes"/>
      <point x="1027.18" y="115"/>
      <point x="1073.18" y="70"/>
      <point x="1129.18" y="70" type="curve" smooth="yes"/>
      <point x="1185.18" y="70"/>
      <point x="1231.18" y="115"/>
    </contour>
  </outline>
</glyph>
<glyph name="uni1215" format="2">
  <advance width="1118"/>
  <unicode hex="1215"/>
  <outline>
    <component base="bar"/>
    <contour>
      <point x="1018.18" y="35" type="line" smooth="yes"/>
      <point x="1018.18" y="16"/>
      <point x="1002.18" y="0"/>
      <point x="983.18" y="0" type="curve" smooth="yes"/>
      <point x="963.18" y="0"/>
      <point x="948.18" y="16"/>
      <point x="948.18" y="35" type="curve" smooth="yes"/>
      <point x="948.18" y="582" type="line" smooth="yes"/>
      <point x="948.18" y="746.007"/>
      <point x="879.301" y="778.681"/>
      <point x="696.18" y="774" type="curve" smooth="yes"/>
      <point x="603.407" y="771.629" type="line"/>
      <point x="538.91" y="34.4402" type="line" smooth="yes"/>
      <point x="537.254" y="15.5127"/>
      <point x="519.911" y="0.971723"/>
      <point x="500.993" y="2.62372" type="curve"/>
      <point x="499.997" y="2.71072" type="line"/>
      <point x="481.078" y="4.36272"/>
      <point x="466.524" y="21.7007"/>
      <point x="468.18" y="40.6282" type="curve" smooth="yes"/>
      <point x="532.677" y="777.817" type="line"/>
      <point x="246.522" y="777.817"/>
      <point x="113.985" y="584.103"/>
      <point x="120.18" y="34.9194" type="curve" smooth="yes"/>
      <point x="120.705" y="-11.7123"/>
      <point x="50.7099" y="-12.5005"/>
      <point x="50.1841" y="34.13" type="curve" smooth="yes"/>
      <point x="43.8988" y="591.363"/>
      <point x="198.596" y="847.551"/>
      <point x="538.778" y="847.551" type="curve"/>
      <point x="581.399" y="1334.69" type="line"/>
      <point x="223.605" y="1334" type="line" smooth="yes"/>
      <point x="204.605" y="1333.96"/>
      <point x="188.605" y="1350"/>
      <point x="188.605" y="1369" type="curve" smooth="yes"/>
      <point x="188.605" y="1389"/>
      <point x="204.604" y="1404.12"/>
      <point x="223.605" y="1404" type="curve" smooth="yes"/>
      <point x="622.367" y="1401.38" type="line"/>
      <point x="623.363" y="1401.29" type="line"/>
      <point x="642.282" y="1399.64"/>
      <point x="656.835" y="1382.3"/>
      <point x="655.179" y="1363.37" type="curve" smooth="yes"/>
      <point x="609.509" y="841.363" type="line"/>
      <point x="694.18" y="845" type="line" smooth="yes"/>
      <point x="873.025" y="852.683"/>
      <point x="1018.18" y="819.006"/>
      <point x="1018.18" y="613" type="curve" smooth="yes"/>
    </contour>
  </outline>
</glyph>
<glyph name="uni1216" format="2">
  <advance width="1133"/>
  <unicode hex="1216"/>
  <outline>
    <component base="bar"/>
    <contour>
      <point x="1033.43" y="385" type="line" smooth="yes"/>
      <point x="1033.43" y="366"/>
      <point x="1017.43" y="350"/>
      <point x="998.432" y="350" type="curve" smooth="yes"/>
      <point x="978.432" y="350"/>
      <point x="963.432" y="366"/>
      <point x="963.432" y="385" type="curve" smooth="yes"/>
      <point x="963.432" y="582" type="line" smooth="yes"/>
      <point x="963.432" y="746.007"/>
      <point x="894.436" y="776.891"/>
      <point x="711.432" y="774" type="curve" smooth="yes"/>
      <point x="603.407" y="772.293" type="line"/>
      <point x="569.416" y="383.775" type="line" smooth="yes"/>
      <point x="567.76" y="364.847"/>
      <point x="550.418" y="350.307"/>
      <point x="531.498" y="351.959" type="curve"/>
      <point x="530.502" y="352.046" type="line"/>
      <point x="511.582" y="353.698"/>
      <point x="497.029" y="371.035"/>
      <point x="498.685" y="389.963" type="curve" smooth="yes"/>
      <point x="532.677" y="778.481" type="line"/>
      <point x="246.522" y="778.481"/>
      <point x="113.985" y="584.768"/>
      <point x="120.179" y="35.5842" type="curve" smooth="yes"/>
      <point x="120.705" y="-11.0475"/>
      <point x="50.7098" y="-11.8358"/>
      <point x="50.184" y="34.7947" type="curve" smooth="yes"/>
      <point x="43.8987" y="592.027"/>
      <point x="198.596" y="848.215"/>
      <point x="538.778" y="848.215" type="curve"/>
      <point x="584.449" y="1370.22" type="line" smooth="yes"/>
      <point x="586.105" y="1389.15"/>
      <point x="603.447" y="1403.69"/>
      <point x="622.366" y="1402.04" type="curve"/>
      <point x="623.363" y="1401.95" type="line"/>
      <point x="642.283" y="1400.3"/>
      <point x="656.835" y="1382.97"/>
      <point x="655.179" y="1364.04" type="curve" smooth="yes"/>
      <point x="609.509" y="842.027" type="line"/>
      <point x="709.432" y="845" type="line" smooth="yes"/>
      <point x="889.367" y="850.352"/>
      <point x="1033.43" y="819"/>
      <point x="1033.43" y="613" type="curve" smooth="yes"/>
    </contour>
  </outline>
</glyph>
<glyph name="uni121A" format="2">
  <advance width="1662"/>
  <unicode hex="121A"/>
  <outline>
    <component base="bar"/>
    <contour>
      <point x="1561.66" y="35.9512" type="curve" smooth="yes"/>
      <point x="1561.66" y="16.9512"/>
      <point x="1545.74" y="0.950748"/>
      <point x="1526.66" y="0.950748" type="curve" smooth="yes"/>
      <point x="1092.66" y="0.950748" type="line" smooth="yes"/>
      <point x="1072.55" y="0.950748"/>
      <point x="1055.88" y="17.0055"/>
      <point x="1057.66" y="35.951" type="curve" smooth="yes"/>
      <point x="1126.92" y="773.292" type="line"/>
      <point x="1088.41" y="725.986"/>
      <point x="1037.4" y="695.736"/>
      <point x="972.588" y="691.813" type="curve" smooth="yes"/>
      <point x="897.41" y="687.264"/>
      <point x="755.32" y="683.231"/>
      <point x="752.989" y="807.72" type="curve" smooth="yes"/>
      <point x="743.99" y="1288.46" type="line"/>
      <point x="653.9" y="1281.48" type="line"/>
      <point x="530.983" y="727.21" type="line" smooth="yes"/>
      <point x="519.988" y="677.634"/>
      <point x="416.921" y="643.713"/>
      <point x="321.997" y="645.18" type="curve" smooth="yes"/>
      <point x="193.218" y="647.17"/>
      <point x="50" y="706.152"/>
      <point x="50" y="857.368" type="curve"/>
      <point x="50" y="1335.04"/>
      <point x="506.87" y="1350.84"/>
      <point x="829.535" y="1359" type="curve"/>
      <point x="994.413" y="1366.37"/>
      <point x="1220.35" y="1395.65"/>
      <point x="1221.47" y="1113.96" type="curve"/>
      <point x="1221.47" y="1113.96"/>
      <point x="1159.59" y="418.289"/>
      <point x="1128.66" y="70.9518" type="curve"/>
      <point x="1526.66" y="70.9515" type="line" smooth="yes"/>
      <point x="1545.66" y="70.9515"/>
      <point x="1561.66" y="55.9512"/>
    </contour>
    <contour>
      <point x="1150.98" y="1111.83" type="curve" smooth="yes"/>
      <point x="1150.98" y="1335.35"/>
      <point x="967.651" y="1281.2"/>
      <point x="816.432" y="1293.84" type="curve"/>
      <point x="821.98" y="795.827" type="line" smooth="yes"/>
      <point x="822.497" y="749.357"/>
      <point x="950.127" y="760.583"/>
      <point x="968.354" y="761.685" type="curve" smooth="yes"/>
      <point x="1124.42" y="771.128"/>
      <point x="1150.98" y="987.256"/>
    </contour>
    <contour>
      <point x="579.683" y="1278.55" type="line"/>
      <point x="308.42" y="1262.14"/>
      <point x="119.937" y="1142.6"/>
      <point x="119.937" y="855.846" type="curve"/>
      <point x="119.937" y="770.79"/>
      <point x="204.79" y="712"/>
      <point x="327.638" y="715.799" type="curve" smooth="yes"/>
      <point x="376.584" y="717.313"/>
      <point x="458.401" y="723.948"/>
      <point x="467.997" y="767.828" type="curve" smooth="yes"/>
    </contour>
  </outline>
</glyph>
<glyph name="uni121B" format="2">
  <advance width="1321"/>
  <unicode hex="121B"/>
  <outline>
    <component base="bar"/>
    <contour>
      <point x="1220.98" y="1112.51" type="curve"/>
      <point x="1220.98" y="1112.51"/>
      <point x="1213.68" y="1021.5"/>
      <point x="1209.96" y="977.256" type="curve" smooth="yes"/>
      <point x="1130.57" y="33.7672" type="line" smooth="yes"/>
      <point x="1128.98" y="14.854"/>
      <point x="1111.58" y="0.294716"/>
      <point x="1092.66" y="1.95072" type="curve" smooth="yes"/>
      <point x="1073.73" y="3.60672"/>
      <point x="1059.12" y="20.9017"/>
      <point x="1060.84" y="39.8682" type="curve" smooth="yes"/>
      <point x="1127.25" y="773.718" type="line"/>
      <point x="1088.7" y="726.173"/>
      <point x="1037.56" y="695.745"/>
      <point x="972.587" y="691.813" type="curve" smooth="yes"/>
      <point x="897.438" y="687.265"/>
      <point x="755.319" y="683.255"/>
      <point x="752.989" y="807.72" type="curve" smooth="yes"/>
      <point x="743.99" y="1288.46" type="line"/>
      <point x="653.9" y="1281.48" type="line"/>
      <point x="530.983" y="727.21" type="line" smooth="yes"/>
      <point x="519.989" y="677.633"/>
      <point x="416.922" y="643.713"/>
      <point x="321.997" y="645.18" type="curve" smooth="yes"/>
      <point x="193.218" y="647.17"/>
      <point x="50" y="706.152"/>
      <point x="50" y="857.368" type="curve"/>
      <point x="50" y="1335.04"/>
      <point x="506.86" y="1350.84"/>
      <point x="829.535" y="1359" type="curve"/>
      <point x="994.692" y="1366.39"/>
      <point x="1220.8" y="1395.74"/>
    </contour>
    <contour>
      <point x="1150.98" y="1111.83" type="curve" smooth="yes"/>
      <point x="1150.98" y="1335.35"/>
      <point x="967.651" y="1281.2"/>
      <point x="816.432" y="1293.84" type="curve"/>
      <point x="821.98" y="795.827" type="line" smooth="yes"/>
      <point x="822.497" y="749.357"/>
      <point x="950.13" y="760.583"/>
      <point x="968.354" y="761.685" type="curve" smooth="yes"/>
      <point x="1107.93" y="770.13"/>
      <point x="1150.98" y="941.839"/>
    </contour>
    <contour>
      <point x="579.683" y="1278.55" type="line"/>
      <point x="308.42" y="1262.14"/>
      <point x="119.937" y="1142.61"/>
      <point x="119.937" y="855.846" type="curve"/>
      <point x="119.937" y="770.79"/>
      <point x="204.79" y="712"/>
      <point x="327.638" y="715.799" type="curve" smooth="yes"/>
      <point x="376.584" y="717.313"/>
      <point x="458.401" y="723.948"/>
      <point x="467.997" y="767.828" type="curve" smooth="yes"/>
    </contour>
  </outline>
</glyph>
<glyph name="uni121C" format="2">
  <advance width="1524"/>
  <unicode hex="121C"/>
  <outline>
    <component base="bar"/>
    <contour>
      <point x="1423.34" y="157.896" type="curve" smooth="yes"/>
      <point x="1415.06" y="63.2573"/>
      <point x="1331.79" y="-6.74924"/>
      <point x="1238" y="1.45401" type="curve" smooth="yes"/>
      <point x="1143.47" y="9.72151"/>
      <point x="1063.33" y="93.7463"/>
      <point x="1071.61" y="187.859" type="curve"/>
      <point x="1071.68" y="188.663" type="line"/>
      <point x="1133" y="781" type="line"/>
      <point x="1095.35" y="738.335"/>
      <point x="1033.6" y="695.506"/>
      <point x="972.587" y="691.813" type="curve" smooth="yes"/>
      <point x="897.441" y="687.265"/>
      <point x="755.319" y="683.239"/>
      <point x="752.989" y="807.72" type="curve" smooth="yes"/>
      <point x="743.99" y="1288.46" type="line"/>
      <point x="653.9" y="1281.48" type="line"/>
      <point x="530.983" y="727.21" type="line" smooth="yes"/>
      <point x="519.988" y="677.633"/>
      <point x="416.921" y="643.713"/>
      <point x="321.997" y="645.18" type="curve" smooth="yes"/>
      <point x="193.218" y="647.17"/>
      <point x="50" y="706.152"/>
      <point x="50" y="857.368" type="curve"/>
      <point x="50" y="1335.04"/>
      <point x="506.87" y="1350.84"/>
      <point x="829.535" y="1359" type="curve"/>
      <point x="994.668" y="1366.38"/>
      <point x="1222.02" y="1395.76"/>
      <point x="1220.98" y="1112.62" type="curve" smooth="yes"/>
      <point x="1220.16" y="887.624"/>
      <point x="1154.97" y="340.24"/>
      <point x="1152.6" y="312.705" type="curve"/>
      <point x="1152.83" y="313.065" type="line"/>
      <point x="1184.9" y="335.355"/>
      <point x="1225.17" y="347.891"/>
      <point x="1267.98" y="344.147" type="curve" smooth="yes"/>
      <point x="1361.49" y="335.969"/>
      <point x="1431.62" y="252.535"/>
    </contour>
    <contour>
      <point x="1150.98" y="1111.83" type="curve" smooth="yes"/>
      <point x="1150.98" y="1335.35"/>
      <point x="967.651" y="1281.2"/>
      <point x="816.432" y="1293.84" type="curve"/>
      <point x="821.98" y="795.827" type="line" smooth="yes"/>
      <point x="822.497" y="749.357"/>
      <point x="950.13" y="760.583"/>
      <point x="968.354" y="761.685" type="curve" smooth="yes"/>
      <point x="1107.94" y="770.131"/>
      <point x="1150.98" y="941.839"/>
    </contour>
    <contour>
      <point x="1353.61" y="163.997" type="curve" smooth="yes"/>
      <point x="1358.49" y="219.785"/>
      <point x="1317.7" y="269.531"/>
      <point x="1261.88" y="274.413" type="curve" smooth="yes"/>
      <point x="1205.06" y="279.382"/>
      <point x="1156.26" y="237.478"/>
      <point x="1151.38" y="181.69" type="curve" smooth="yes"/>
      <point x="1146.5" y="125.903"/>
      <point x="1187.28" y="76.1567"/>
      <point x="1244.1" y="71.188" type="curve" smooth="yes"/>
      <point x="1299.92" y="66.3062"/>
      <point x="1348.73" y="108.21"/>
    </contour>
    <contour>
      <point x="579.683" y="1278.55" type="line"/>
      <point x="308.42" y="1262.14"/>
      <point x="119.937" y="1142.6"/>
      <point x="119.937" y="855.846" type="curve"/>
      <point x="119.937" y="770.79"/>
      <point x="204.787" y="711.999"/>
      <point x="327.638" y="715.799" type="curve" smooth="yes"/>
      <point x="376.59" y="717.313"/>
      <point x="458.401" y="723.947"/>
      <point x="467.997" y="767.827" type="curve" smooth="yes"/>
    </contour>
  </outline>
</glyph>
<glyph name="uni121D" format="2">
  <advance width="1423"/>
  <unicode hex="121D"/>
  <outline>
    <component base="bar"/>
    <contour>
      <point x="1323.47" y="1111.83" type="curve" smooth="yes"/>
      <point x="1323.47" y="901.856"/>
      <point x="1248.66" y="702.32"/>
      <point x="1075.08" y="691.813" type="curve" smooth="yes"/>
      <point x="999.926" y="687.264"/>
      <point x="857.814" y="683.127"/>
      <point x="855.481" y="807.72" type="curve" smooth="yes"/>
      <point x="846.48" y="1288.46" type="line"/>
      <point x="756.392" y="1281.48" type="line"/>
      <point x="633.475" y="727.21" type="line" smooth="yes"/>
      <point x="631.455" y="718.103"/>
      <point x="621.573" y="702.531"/>
      <point x="608.053" y="692.109" type="curve"/>
      <point x="112.839" y="8.34803" type="line" smooth="yes"/>
      <point x="101.45" y="-7.37747"/>
      <point x="80.0056" y="-10.4107"/>
      <point x="64.8388" y="0.34808" type="curve" smooth="yes"/>
      <point x="49" y="11.5836"/>
      <point x="45.0528" y="33.1918"/>
      <point x="56.839" y="49.3481" type="curve" smooth="yes"/>
      <point x="495.282" y="650.347" type="line"/>
      <point x="472.207" y="646.637"/>
      <point x="448.089" y="644.816"/>
      <point x="424.489" y="645.18" type="curve" smooth="yes"/>
      <point x="295.766" y="647.169"/>
      <point x="152.492" y="706.152"/>
      <point x="152.492" y="857.368" type="curve"/>
      <point x="152.492" y="1335.04"/>
      <point x="609.362" y="1350.84"/>
      <point x="932.028" y="1359" type="curve"/>
      <point x="1097.31" y="1366.39"/>
      <point x="1323.47" y="1395.82"/>
    </contour>
    <contour>
      <point x="1253.47" y="1111.83" type="curve" smooth="yes"/>
      <point x="1253.47" y="1335.35"/>
      <point x="1070.14" y="1281.2"/>
      <point x="918.924" y="1293.84" type="curve"/>
      <point x="924.472" y="795.827" type="line" smooth="yes"/>
      <point x="924.989" y="749.357"/>
      <point x="1052.62" y="760.583"/>
      <point x="1070.85" y="761.685" type="curve" smooth="yes"/>
      <point x="1210.43" y="770.131"/>
      <point x="1253.47" y="941.839"/>
    </contour>
    <contour>
      <point x="682.175" y="1278.55" type="line"/>
      <point x="410.912" y="1262.14"/>
      <point x="222.429" y="1142.6"/>
      <point x="222.429" y="855.846" type="curve"/>
      <point x="222.429" y="770.79"/>
      <point x="307.279" y="711.999"/>
      <point x="430.13" y="715.799" type="curve" smooth="yes"/>
      <point x="479.082" y="717.313"/>
      <point x="560.893" y="723.947"/>
      <point x="570.489" y="767.827" type="curve" smooth="yes"/>
    </contour>
  </outline>
</glyph>
<glyph name="uni121E" format="2">
  <advance width="1321"/>
  <unicode hex="121E"/>
  <outline>
    <component base="bar"/>
    <contour>
      <point x="1220.98" y="1111.83" type="curve" smooth="yes"/>
      <point x="1220.98" y="901.856"/>
      <point x="1146.17" y="702.321"/>
      <point x="972.587" y="691.813" type="curve" smooth="yes"/>
      <point x="897.434" y="687.264"/>
      <point x="755.321" y="683.159"/>
      <point x="752.989" y="807.72" type="curve" smooth="yes"/>
      <point x="743.99" y="1288.46" type="line"/>
      <point x="653.9" y="1281.48" type="line"/>
      <point x="392.104" y="27.5743" type="line" smooth="yes"/>
      <point x="388.221" y="8.97577"/>
      <point x="370.621" y="-3.86398"/>
      <point x="351" y="0" type="curve" smooth="yes"/>
      <point x="332.361" y="3.6705"/>
      <point x="319.638" y="22.509"/>
      <point x="323.425" y="41.1045" type="curve" smooth="yes"/>
      <point x="450.37" y="664.355" type="line"/>
      <point x="412.647" y="651.557"/>
      <point x="366.428" y="644.493"/>
      <point x="321.997" y="645.18" type="curve" smooth="yes"/>
      <point x="193.246" y="647.17"/>
      <point x="50" y="706.152"/>
      <point x="50" y="857.368" type="curve" smooth="yes"/>
      <point x="50" y="1071.48"/>
      <point x="183.214" y="1330.1"/>
      <point x="534.98" y="1345.83" type="curve" smooth="yes"/>
      <point x="829.535" y="1359" type="line" smooth="yes"/>
      <point x="994.82" y="1366.39"/>
      <point x="1220.98" y="1395.82"/>
    </contour>
    <contour>
      <point x="1150.98" y="1111.83" type="curve" smooth="yes"/>
      <point x="1150.98" y="1335.35"/>
      <point x="967.651" y="1281.2"/>
      <point x="816.432" y="1293.84" type="curve"/>
      <point x="821.98" y="795.827" type="line" smooth="yes"/>
      <point x="822.497" y="749.357"/>
      <point x="950.13" y="760.583"/>
      <point x="968.354" y="761.685" type="curve" smooth="yes"/>
      <point x="1107.97" y="770.133"/>
      <point x="1150.98" y="941.839"/>
    </contour>
    <contour>
      <point x="579.683" y="1278.55" type="line"/>
      <point x="543.801" y="1276.38" type="line" smooth="yes"/>
      <point x="173.097" y="1253.95"/>
      <point x="119.937" y="986.758"/>
      <point x="119.937" y="855.846" type="curve" smooth="yes"/>
      <point x="119.937" y="770.79"/>
      <point x="204.784" y="711.998"/>
      <point x="327.638" y="715.799" type="curve" smooth="yes"/>
      <point x="376.604" y="717.313"/>
      <point x="458.401" y="723.947"/>
      <point x="467.997" y="767.827" type="curve" smooth="yes"/>
    </contour>
  </outline>
</glyph>
<glyph name="uni1220" format="2">
  <advance width="1362"/>
  <unicode hex="1220"/>
  <outline>
    <component base="bar"/>
    <contour>
      <point x="1256" y="1153" type="curve" smooth="yes"/>
      <point x="1272.55" y="1016.74"/>
      <point x="1257.77" y="895.711"/>
      <point x="1192.88" y="773.069" type="curve" smooth="yes"/>
      <point x="1132.1" y="658.206"/>
      <point x="1015.34" y="637.781"/>
      <point x="892.042" y="628" type="curve" smooth="yes"/>
      <point x="784.759" y="619.489"/>
      <point x="729.438" y="682.479"/>
      <point x="699.285" y="764.684" type="curve"/>
      <point x="683.086" y="704.832"/>
      <point x="661.721" y="643.051"/>
      <point x="634.479" y="583.294" type="curve" smooth="yes"/>
      <point x="528.98" y="351.879"/>
      <point x="1.96125" y="311.78"/>
      <point x="53.543" y="554.756" type="curve" smooth="yes"/>
      <point x="160.395" y="1058.08" type="line" smooth="yes"/>
      <point x="170.116" y="1103.87"/>
      <point x="238.596" y="1089.35"/>
      <point x="228.869" y="1043.54" type="curve" smooth="yes"/>
      <point x="121.705" y="538.842" type="line" smooth="yes"/>
      <point x="93.842" y="407.618"/>
      <point x="494.994" y="446.079"/>
      <point x="570.786" y="612.332" type="curve" smooth="yes"/>
      <point x="608.994" y="696.143"/>
      <point x="657.858" y="904.549"/>
      <point x="666.633" y="1108.74" type="curve" smooth="yes"/>
      <point x="668.637" y="1155.39"/>
      <point x="736.534" y="1155.58"/>
      <point x="736.632" y="1108.89" type="curve" smooth="yes"/>
      <point x="736.866" y="996.92"/>
      <point x="692.557" y="682.395"/>
      <point x="886.504" y="697.78" type="curve" smooth="yes"/>
      <point x="980.008" y="705.198"/>
      <point x="1086.16" y="718.659"/>
      <point x="1130.4" y="806.611" type="curve" smooth="yes"/>
      <point x="1193.52" y="932.114"/>
      <point x="1199.5" y="1037.62"/>
      <point x="1186.51" y="1144.56" type="curve" smooth="yes"/>
      <point x="1180.88" y="1190.89"/>
      <point x="1250.37" y="1199.34"/>
    </contour>
  </outline>
</glyph>
<glyph name="uni1221" format="2">
  <advance width="1746"/>
  <unicode hex="1221"/>
  <outline>
    <component base="bar"/>
    <contour>
      <point x="1646" y="889.813" type="line" smooth="yes"/>
      <point x="1646" y="869.813"/>
      <point x="1630" y="854.861"/>
      <point x="1611" y="854.813" type="curve" smooth="yes"/>
      <point x="1228.18" y="853.846" type="line"/>
      <point x="1219.56" y="828.209"/>
      <point x="1208.01" y="801.664"/>
      <point x="1192.88" y="773.069" type="curve" smooth="yes"/>
      <point x="1132.1" y="658.208"/>
      <point x="1015.34" y="637.782"/>
      <point x="892.042" y="628" type="curve" smooth="yes"/>
      <point x="784.758" y="619.488"/>
      <point x="729.438" y="682.479"/>
      <point x="699.285" y="764.684" type="curve"/>
      <point x="683.086" y="704.832"/>
      <point x="661.724" y="643.056"/>
      <point x="634.479" y="583.294" type="curve" smooth="yes"/>
      <point x="528.97" y="351.86"/>
      <point x="1.96125" y="311.78"/>
      <point x="53.543" y="554.756" type="curve" smooth="yes"/>
      <point x="160.395" y="1058.08" type="line" smooth="yes"/>
      <point x="170.109" y="1103.84"/>
      <point x="238.588" y="1089.32"/>
      <point x="228.869" y="1043.54" type="curve" smooth="yes"/>
      <point x="121.705" y="538.842" type="line" smooth="yes"/>
      <point x="93.842" y="407.618"/>
      <point x="494.994" y="446.083"/>
      <point x="570.786" y="612.332" type="curve" smooth="yes"/>
      <point x="608.991" y="696.138"/>
      <point x="661.675" y="926.152"/>
      <point x="666.632" y="1108.74" type="curve" smooth="yes"/>
      <point x="667.9" y="1155.41"/>
      <point x="736.533" y="1155.58"/>
      <point x="736.632" y="1108.89" type="curve" smooth="yes"/>
      <point x="736.868" y="996.92"/>
      <point x="692.555" y="682.393"/>
      <point x="886.504" y="697.781" type="curve" smooth="yes"/>
      <point x="979.977" y="705.197"/>
      <point x="1086.17" y="718.663"/>
      <point x="1130.4" y="806.611" type="curve" smooth="yes"/>
      <point x="1193.52" y="932.113"/>
      <point x="1199.5" y="1037.62"/>
      <point x="1186.51" y="1144.56" type="curve" smooth="yes"/>
      <point x="1180.88" y="1190.9"/>
      <point x="1250.37" y="1199.35"/>
      <point x="1256" y="1153" type="curve" smooth="yes"/>
      <point x="1265.05" y="1078.49"/>
      <point x="1253.78" y="983.279"/>
      <point x="1245.23" y="924.821" type="curve"/>
      <point x="1611" y="924.813" type="line" smooth="yes"/>
      <point x="1630" y="924.813"/>
      <point x="1646" y="909.813"/>
      <point x="1646" y="890.813" type="curve" smooth="yes"/>
    </contour>
  </outline>
</glyph>
<glyph name="uni1222" format="2">
  <advance width="1369"/>
  <unicode hex="1222"/>
  <outline>
    <component base="bar"/>
    <contour>
      <point x="1269.15" y="34" type="curve" smooth="yes"/>
      <point x="1269.15" y="14"/>
      <point x="1253.15" y="-2.04375"/>
      <point x="1234.15" y="-2" type="curve" smooth="yes"/>
      <point x="801.149" y="-1" type="line" smooth="yes"/>
      <point x="782.149" y="-0.9563"/>
      <point x="765.149" y="14"/>
      <point x="765.149" y="34" type="curve"/>
      <point x="944.149" y="760" type="line"/>
      <point x="944.149" y="760"/>
      <point x="828.328" y="741.605"/>
      <point x="740.653" y="737.78" type="curve" smooth="yes"/>
      <point x="633.189" y="733.093"/>
      <point x="579.302" y="784.795"/>
      <point x="549.15" y="867" type="curve"/>
      <point x="532.95" y="807.148"/>
      <point x="515.869" y="753.049"/>
      <point x="488.628" y="693.294" type="curve" smooth="yes"/>
      <point x="383.17" y="461.959"/>
      <point x="2.21755" y="524.902"/>
      <point x="54.9878" y="767.914" type="curve" smooth="yes"/>
      <point x="145.676" y="1185.54" type="line" smooth="yes"/>
      <point x="155.64" y="1231.42"/>
      <point x="224.111" y="1216.87"/>
      <point x="214.15" y="1171" type="curve" smooth="yes"/>
      <point x="123.15" y="752" type="line" smooth="yes"/>
      <point x="94.679" y="620.91"/>
      <point x="349.135" y="556.052"/>
      <point x="424.935" y="722.332" type="curve" smooth="yes"/>
      <point x="463.147" y="806.157"/>
      <point x="518.313" y="1021.53"/>
      <point x="520.782" y="1218.74" type="curve" smooth="yes"/>
      <point x="521.367" y="1265.47"/>
      <point x="590.685" y="1265.6"/>
      <point x="590.782" y="1218.89" type="curve" smooth="yes"/>
      <point x="591.02" y="1103.53"/>
      <point x="545.925" y="800.355"/>
      <point x="740.653" y="807.781" type="curve" smooth="yes"/>
      <point x="877.598" y="813.003"/>
      <point x="963.149" y="836"/>
      <point x="963.149" y="836" type="curve"/>
      <point x="1070.15" y="1263" type="line" smooth="yes"/>
      <point x="1074.69" y="1281.12"/>
      <point x="1093.16" y="1293.15"/>
      <point x="1112.15" y="1289" type="curve" smooth="yes"/>
      <point x="1125.18" y="1286.16"/>
      <point x="1141.1" y="1275.01"/>
      <point x="1138.15" y="1263" type="curve" smooth="yes"/>
      <point x="845.149" y="70" type="line"/>
      <point x="1234.15" y="69" type="line" smooth="yes"/>
      <point x="1253.15" y="68.9513"/>
      <point x="1269.15" y="53"/>
    </contour>
  </outline>
</glyph>
<glyph name="uni1223" format="2">
  <advance width="1241"/>
  <unicode hex="1223"/>
  <outline>
    <component base="bar"/>
    <contour>
      <point x="1140.15" y="1263" type="curve" smooth="yes"/>
      <point x="830.151" y="27" type="line" smooth="yes"/>
      <point x="825.608" y="8.88475"/>
      <point x="807.129" y="-3.14575"/>
      <point x="788.151" y="1" type="curve" smooth="yes"/>
      <point x="775.12" y="3.8465"/>
      <point x="759.172" y="15"/>
      <point x="762.152" y="27.001" type="curve" smooth="yes"/>
      <point x="944.152" y="760.001" type="line"/>
      <point x="944.152" y="760.001"/>
      <point x="828.298" y="741.606"/>
      <point x="740.656" y="737.781" type="curve"/>
      <point x="633.191" y="733.094"/>
      <point x="579.304" y="784.796"/>
      <point x="549.152" y="867" type="curve"/>
      <point x="532.952" y="807.148"/>
      <point x="515.871" y="753.05"/>
      <point x="488.63" y="693.294" type="curve" smooth="yes"/>
      <point x="383.171" y="461.957"/>
      <point x="2.20604" y="524.84"/>
      <point x="54.99" y="767.914" type="curve" smooth="yes"/>
      <point x="145.678" y="1185.54" type="line" smooth="yes"/>
      <point x="155.645" y="1231.44"/>
      <point x="224.115" y="1216.88"/>
      <point x="214.152" y="1171" type="curve" smooth="yes"/>
      <point x="123.152" y="752" type="line" smooth="yes"/>
      <point x="94.6813" y="620.91"/>
      <point x="349.135" y="556.047"/>
      <point x="424.937" y="722.333" type="curve" smooth="yes"/>
      <point x="463.15" y="806.16"/>
      <point x="518.316" y="1021.55"/>
      <point x="520.784" y="1218.74" type="curve" smooth="yes"/>
      <point x="521.369" y="1265.46"/>
      <point x="590.687" y="1265.6"/>
      <point x="590.784" y="1218.89" type="curve" smooth="yes"/>
      <point x="591.022" y="1103.53"/>
      <point x="545.928" y="800.354"/>
      <point x="740.656" y="807.78" type="curve"/>
      <point x="877.601" y="813.005"/>
      <point x="963.152" y="836"/>
      <point x="963.152" y="836" type="curve"/>
      <point x="1072.15" y="1263" type="line" smooth="yes"/>
      <point x="1076.78" y="1281.12"/>
      <point x="1095.17" y="1293.15"/>
      <point x="1114.15" y="1289" type="curve" smooth="yes"/>
      <point x="1127.18" y="1286.15"/>
      <point x="1143.16" y="1275"/>
    </contour>
  </outline>
</glyph>
<glyph name="uni1224" format="2">
  <advance width="1267"/>
  <unicode hex="1224"/>
  <outline>
    <component base="bar"/>
    <contour>
      <point x="1167.15" y="171" type="curve" smooth="yes"/>
      <point x="1167.15" y="76"/>
      <point x="1090.15" y="-1"/>
      <point x="995.153" y="-1" type="curve" smooth="yes"/>
      <point x="936.153" y="-1"/>
      <point x="883.153" y="29"/>
      <point x="852.153" y="75" type="curve"/>
      <point x="809.76" y="118.241"/>
      <point x="819.334" y="213.935"/>
      <point x="822.96" y="242.09" type="curve" smooth="yes"/>
      <point x="823.281" y="244.585"/>
      <point x="823.472" y="247.239"/>
      <point x="824.153" y="250" type="curve" smooth="yes"/>
      <point x="951.153" y="765" type="line"/>
      <point x="951.153" y="765"/>
      <point x="828.307" y="741.605"/>
      <point x="740.657" y="737.78" type="curve"/>
      <point x="633.193" y="733.093"/>
      <point x="579.306" y="784.795"/>
      <point x="549.153" y="867" type="curve"/>
      <point x="532.954" y="807.148"/>
      <point x="515.873" y="753.052"/>
      <point x="488.632" y="693.294" type="curve" smooth="yes"/>
      <point x="383.17" y="461.951"/>
      <point x="2.19414" y="524.777"/>
      <point x="54.9916" y="767.914" type="curve" smooth="yes"/>
      <point x="145.679" y="1185.54" type="line" smooth="yes"/>
      <point x="155.648" y="1231.45"/>
      <point x="224.117" y="1216.88"/>
      <point x="214.153" y="1171" type="curve" smooth="yes"/>
      <point x="123.153" y="752" type="line" smooth="yes"/>
      <point x="94.6829" y="620.91"/>
      <point x="349.137" y="556.047"/>
      <point x="424.939" y="722.332" type="curve" smooth="yes"/>
      <point x="463.152" y="806.159"/>
      <point x="518.318" y="1021.57"/>
      <point x="520.786" y="1218.74" type="curve" smooth="yes"/>
      <point x="521.371" y="1265.46"/>
      <point x="590.689" y="1265.6"/>
      <point x="590.785" y="1218.89" type="curve" smooth="yes"/>
      <point x="591.023" y="1103.53"/>
      <point x="545.929" y="800.354"/>
      <point x="740.657" y="807.78" type="curve"/>
      <point x="877.602" y="813.004"/>
      <point x="963.153" y="836"/>
      <point x="963.153" y="836" type="curve"/>
      <point x="1080.34" y="1275.81" type="line" smooth="yes"/>
      <point x="1092.35" y="1320.91"/>
      <point x="1160.43" y="1308.31"/>
      <point x="1149.15" y="1263" type="curve" smooth="yes"/>
      <point x="915.153" y="323" type="line"/>
      <point x="939.153" y="336"/>
      <point x="966.153" y="343"/>
      <point x="995.153" y="343" type="curve" smooth="yes"/>
      <point x="1090.15" y="343"/>
      <point x="1167.15" y="266"/>
    </contour>
    <contour>
      <point x="1097.15" y="171" type="curve" smooth="yes"/>
      <point x="1097.15" y="228"/>
      <point x="1051.15" y="273"/>
      <point x="995.153" y="273" type="curve" smooth="yes"/>
      <point x="939.153" y="273"/>
      <point x="893.153" y="228"/>
      <point x="893.153" y="171" type="curve" smooth="yes"/>
      <point x="893.153" y="115"/>
      <point x="939.153" y="70"/>
      <point x="995.153" y="70" type="curve" smooth="yes"/>
      <point x="1051.15" y="70"/>
      <point x="1097.15" y="115"/>
    </contour>
  </outline>
</glyph>
<glyph name="uni1225" format="2">
  <advance width="1407"/>
  <unicode hex="1225"/>
  <outline>
    <component base="bar"/>
    <contour>
      <point x="1300.83" y="1262.78" type="curve" smooth="yes"/>
      <point x="1317.38" y="1126.53"/>
      <point x="1302.61" y="1005.49"/>
      <point x="1237.71" y="882.849" type="curve" smooth="yes"/>
      <point x="1176.93" y="767.987"/>
      <point x="1060.32" y="745.521"/>
      <point x="936.877" y="737.781" type="curve" smooth="yes"/>
      <point x="829.521" y="731.05"/>
      <point x="775.525" y="784.795"/>
      <point x="745.373" y="867" type="curve"/>
      <point x="729.174" y="807.148"/>
      <point x="712.09" y="753.046"/>
      <point x="684.852" y="693.294" type="curve" smooth="yes"/>
      <point x="602.969" y="513.674"/>
      <point x="354.992" y="511.362"/>
      <point x="272.917" y="633.127" type="curve"/>
      <point x="118.373" y="31" type="line" smooth="yes"/>
      <point x="113.73" y="12.9102"/>
      <point x="95.3512" y="0.855249"/>
      <point x="76.3732" y="5" type="curve" smooth="yes"/>
      <point x="63.3422" y="7.8457"/>
      <point x="47.3457" y="19.01"/>
      <point x="50.3732" y="31" type="curve" smooth="yes"/>
      <point x="341.899" y="1185.54" type="line" smooth="yes"/>
      <point x="350.121" y="1218.1"/>
      <point x="386.046" y="1220.26"/>
      <point x="402.94" y="1201.93" type="curve"/>
      <point x="407.266" y="1198.09"/>
      <point x="410.222" y="1193.47"/>
      <point x="410.264" y="1188.59" type="curve"/>
      <point x="411.626" y="1183.42"/>
      <point x="411.791" y="1177.53"/>
      <point x="410.373" y="1171" type="curve" smooth="yes"/>
      <point x="319.373" y="752" type="line" smooth="yes"/>
      <point x="290.903" y="620.91"/>
      <point x="545.355" y="556.043"/>
      <point x="621.159" y="722.333" type="curve" smooth="yes"/>
      <point x="659.372" y="806.162"/>
      <point x="714.539" y="1021.63"/>
      <point x="717.006" y="1218.74" type="curve" smooth="yes"/>
      <point x="717.59" y="1265.44"/>
      <point x="786.909" y="1265.59"/>
      <point x="787.005" y="1218.89" type="curve" smooth="yes"/>
      <point x="787.242" y="1103.53"/>
      <point x="736.751" y="797.54"/>
      <point x="931.339" y="807.561" type="curve" smooth="yes"/>
      <point x="1025.01" y="812.385"/>
      <point x="1131" y="828.433"/>
      <point x="1175.23" y="916.391" type="curve" smooth="yes"/>
      <point x="1238.35" y="1041.89"/>
      <point x="1244.33" y="1147.4"/>
      <point x="1231.35" y="1254.34" type="curve" smooth="yes"/>
      <point x="1225.72" y="1300.68"/>
      <point x="1295.21" y="1309.12"/>
    </contour>
  </outline>
</glyph>
<glyph name="uni1226" format="2">
  <advance width="1211"/>
  <unicode hex="1226"/>
  <outline>
    <component base="bar"/>
    <contour>
      <point x="1104.62" y="1262.78" type="curve" smooth="yes"/>
      <point x="1121.17" y="1126.53"/>
      <point x="1106.39" y="1005.49"/>
      <point x="1041.5" y="882.849" type="curve" smooth="yes"/>
      <point x="980.718" y="767.987"/>
      <point x="864.106" y="745.521"/>
      <point x="740.66" y="737.781" type="curve" smooth="yes"/>
      <point x="633.305" y="731.05"/>
      <point x="579.309" y="784.795"/>
      <point x="549.157" y="867" type="curve"/>
      <point x="454.339" y="470.233"/>
      <point x="437.364" y="422.046"/>
      <point x="338.157" y="26.4855" type="curve" smooth="yes"/>
      <point x="326.803" y="-18.7842"/>
      <point x="258.907" y="-1.75098"/>
      <point x="270.26" y="43.5145" type="curve" smooth="yes"/>
      <point x="339.189" y="318.352"/>
      <point x="368.371" y="425.272"/>
      <point x="411.589" y="598.131" type="curve"/>
      <point x="262.926" y="489.509"/>
      <point x="11.444" y="567.359"/>
      <point x="54.9948" y="767.914" type="curve" smooth="yes"/>
      <point x="145.683" y="1185.54" type="line" smooth="yes"/>
      <point x="155.657" y="1231.47"/>
      <point x="224.12" y="1216.88"/>
      <point x="214.157" y="1171" type="curve" smooth="yes"/>
      <point x="123.157" y="752" type="line" smooth="yes"/>
      <point x="94.686" y="620.91"/>
      <point x="349.139" y="556.043"/>
      <point x="424.942" y="722.333" type="curve" smooth="yes"/>
      <point x="463.156" y="806.162"/>
      <point x="518.323" y="1021.63"/>
      <point x="520.789" y="1218.74" type="curve" smooth="yes"/>
      <point x="521.373" y="1265.44"/>
      <point x="590.693" y="1265.59"/>
      <point x="590.788" y="1218.89" type="curve" smooth="yes"/>
      <point x="591.025" y="1103.53"/>
      <point x="540.534" y="797.54"/>
      <point x="735.122" y="807.561" type="curve" smooth="yes"/>
      <point x="828.797" y="812.385"/>
      <point x="934.78" y="828.433"/>
      <point x="979.016" y="916.391" type="curve" smooth="yes"/>
      <point x="1042.13" y="1041.89"/>
      <point x="1048.12" y="1147.4"/>
      <point x="1035.13" y="1254.34" type="curve" smooth="yes"/>
      <point x="1029.5" y="1300.68"/>
      <point x="1098.99" y="1309.12"/>
    </contour>
  </outline>
</glyph>
<glyph name="uni1228" format="2">
  <advance width="965"/>
  <unicode hex="1228"/>
  <outline>
    <component base="bar"/>
    <contour>
      <point x="830.343" y="0" type="curve" smooth="yes"/>
      <point x="377.343" y="0" type="line" smooth="yes"/>
      <point x="175.548" y="0"/>
      <point x="41.8328" y="106.157"/>
      <point x="50.388" y="304.256" type="curve" smooth="yes"/>
      <point x="63.2723" y="602.587"/>
      <point x="652.343" y="924.568"/>
      <point x="652.343" y="1183" type="curve" smooth="yes"/>
      <point x="652.343" y="1229.66"/>
      <point x="722.343" y="1229.66"/>
      <point x="722.343" y="1183" type="curve" smooth="yes"/>
      <point x="722.343" y="885.062"/>
      <point x="133.079" y="563.235"/>
      <point x="120.345" y="301.711" type="curve" smooth="yes"/>
      <point x="112.935" y="149.534"/>
      <point x="207.932" y="70"/>
      <point x="377.343" y="70" type="curve" smooth="yes"/>
      <point x="830.343" y="70" type="line" smooth="yes"/>
      <point x="877.008" y="70"/>
      <point x="877.008" y="0"/>
    </contour>
  </outline>
</glyph>
<glyph name="uni1229" format="2">
  <advance width="890"/>
  <unicode hex="1229"/>
  <outline>
    <component base="bar"/>
    <contour>
      <point x="754.773" y="441" type="curve" smooth="yes"/>
      <point x="448.765" y="441" type="line"/>
      <point x="441.108" y="35" type="line" smooth="yes"/>
      <point x="440.75" y="16.0023"/>
      <point x="425.108" y="0"/>
      <point x="406.108" y="0" type="curve" smooth="yes"/>
      <point x="387.108" y="0"/>
      <point x="370.75" y="16.0023"/>
      <point x="371.108" y="35" type="curve" smooth="yes"/>
      <point x="378.773" y="441" type="line"/>
      <point x="301.773" y="441" type="line" smooth="yes"/>
      <point x="99.9713" y="441"/>
      <point x="42.2541" y="547.158"/>
      <point x="50.8086" y="745.256" type="curve" smooth="yes"/>
      <point x="63.6916" y="1043.59"/>
      <point x="501.108" y="1074.56"/>
      <point x="501.108" y="1333" type="curve" smooth="yes"/>
      <point x="501.108" y="1379.67"/>
      <point x="571.108" y="1379.67"/>
      <point x="571.108" y="1333" type="curve" smooth="yes"/>
      <point x="571.108" y="1035.05"/>
      <point x="133.498" y="1004.23"/>
      <point x="120.765" y="742.711" type="curve" smooth="yes"/>
      <point x="113.356" y="590.535"/>
      <point x="132.362" y="511"/>
      <point x="301.773" y="511" type="curve" smooth="yes"/>
      <point x="754.773" y="511" type="line" smooth="yes"/>
      <point x="801.438" y="511"/>
      <point x="801.438" y="441"/>
    </contour>
  </outline>
</glyph>
<glyph name="uni122A" format="2">
  <advance width="822"/>
  <unicode hex="122A"/>
  <outline>
    <component base="bar"/>
    <contour>
      <point x="722.326" y="1183" type="curve" smooth="yes"/>
      <point x="722.326" y="885.052"/>
      <point x="133.06" y="563.247"/>
      <point x="120.328" y="301.711" type="curve"/>
      <point x="112.92" y="149.543"/>
      <point x="214.05" y="24.1835"/>
      <point x="377.326" y="70" type="curve" smooth="yes"/>
      <point x="527" y="112"/>
      <point x="645.001" y="238.002"/>
      <point x="645.287" y="337.983" type="curve" smooth="yes"/>
      <point x="645.347" y="359.079"/>
      <point x="638.873" y="378.397"/>
      <point x="633.926" y="389.586" type="curve" smooth="yes"/>
      <point x="626.249" y="406.951"/>
      <point x="635.722" y="428.026"/>
      <point x="653.35" y="435.11" type="curve"/>
      <point x="670.979" y="442.194"/>
      <point x="691.601" y="433.236"/>
      <point x="698.875" y="415.685" type="curve"/>
      <point x="709.507" y="392.602"/>
      <point x="715.187" y="366.195"/>
      <point x="715.287" y="337.983" type="curve" smooth="yes"/>
      <point x="715.703" y="219.924"/>
      <point x="618.395" y="70.221"/>
      <point x="377.327" y="0" type="curve"/>
      <point x="181.923" y="-50.2238"/>
      <point x="41.818" y="106.158"/>
      <point x="50.3717" y="304.256" type="curve"/>
      <point x="63.2535" y="602.584"/>
      <point x="652.327" y="924.558"/>
      <point x="652.327" y="1183" type="curve"/>
      <point x="652.327" y="1229.67"/>
      <point x="722.327" y="1229.67"/>
    </contour>
  </outline>
</glyph>
<glyph name="uni122B" format="2">
  <advance width="1142"/>
  <unicode hex="122B"/>
  <outline>
    <component base="bar"/>
    <contour>
      <point x="1041.91" y="431.293" type="curve" smooth="yes"/>
      <point x="1041.91" y="412.293"/>
      <point x="1026.79" y="398.217"/>
      <point x="1006.91" y="396.293" type="curve" smooth="yes"/>
      <point x="696.907" y="366.293" type="line"/>
      <point x="695.598" y="369.029"/>
      <point x="693.465" y="372.479"/>
      <point x="690.864" y="376.373" type="curve"/>
      <point x="649.363" y="84.869" type="line" smooth="yes"/>
      <point x="648.238" y="76.9625"/>
      <point x="644.849" y="68.76"/>
      <point x="638" y="67" type="curve" smooth="yes"/>
      <point x="377.326" y="0" type="line" smooth="yes"/>
      <point x="181.926" y="-50.223"/>
      <point x="41.8183" y="106.159"/>
      <point x="50.3713" y="304.256" type="curve" smooth="yes"/>
      <point x="63.2518" y="602.583"/>
      <point x="652.326" y="924.56"/>
      <point x="652.326" y="1183" type="curve" smooth="yes"/>
      <point x="652.326" y="1229.67"/>
      <point x="722.326" y="1229.67"/>
      <point x="722.326" y="1183" type="curve" smooth="yes"/>
      <point x="722.326" y="885.054"/>
      <point x="133.06" y="563.273"/>
      <point x="120.328" y="301.711" type="curve" smooth="yes"/>
      <point x="112.92" y="149.522"/>
      <point x="213.439" y="26.256"/>
      <point x="377.326" y="70" type="curve" smooth="yes"/>
      <point x="590.725" y="126.959" type="line"/>
      <point x="624.324" y="405.58" type="line" smooth="yes"/>
      <point x="626.597" y="424.435"/>
      <point x="645.098" y="437.972"/>
      <point x="663.907" y="435.293" type="curve"/>
      <point x="1006.91" y="466.293" type="line" smooth="yes"/>
      <point x="1026.83" y="468.093"/>
      <point x="1041.91" y="451.293"/>
    </contour>
  </outline>
</glyph>
<glyph name="uni122C" format="2">
  <advance width="826"/>
  <unicode hex="122C"/>
  <outline>
    <component base="bar"/>
    <contour>
      <point x="725.657" y="172" type="curve" smooth="yes"/>
      <point x="725.657" y="76.4258"/>
      <point x="648.336" y="0"/>
      <point x="553" y="0" type="curve" smooth="yes"/>
      <point x="377.343" y="0" type="line" smooth="yes"/>
      <point x="175.55" y="0"/>
      <point x="41.8333" y="106.158"/>
      <point x="50.388" y="304.256" type="curve" smooth="yes"/>
      <point x="63.2713" y="602.586"/>
      <point x="652.343" y="924.556"/>
      <point x="652.343" y="1183" type="curve" smooth="yes"/>
      <point x="652.343" y="1229.67"/>
      <point x="722.343" y="1229.66"/>
      <point x="722.343" y="1183" type="curve" smooth="yes"/>
      <point x="722.343" y="885.064"/>
      <point x="133.078" y="563.234"/>
      <point x="120.345" y="301.711" type="curve" smooth="yes"/>
      <point x="112.936" y="149.535"/>
      <point x="207.972" y="66.343"/>
      <point x="377.343" y="70" type="curve" smooth="yes"/>
      <point x="423.657" y="71" type="line"/>
      <point x="402.657" y="99"/>
      <point x="381.657" y="134"/>
      <point x="381.657" y="172" type="curve" smooth="yes"/>
      <point x="381.657" y="267"/>
      <point x="458.657" y="344"/>
      <point x="553.657" y="344" type="curve" smooth="yes"/>
      <point x="648.657" y="344"/>
      <point x="725.657" y="267.006"/>
    </contour>
    <contour>
      <point x="655.657" y="172" type="curve" smooth="yes"/>
      <point x="655.657" y="228"/>
      <point x="609.657" y="274"/>
      <point x="553.657" y="274" type="curve" smooth="yes"/>
      <point x="497.657" y="274"/>
      <point x="451.657" y="228"/>
      <point x="451.657" y="172" type="curve" smooth="yes"/>
      <point x="451.657" y="116"/>
      <point x="497.657" y="70"/>
      <point x="553.657" y="70" type="curve" smooth="yes"/>
      <point x="609.657" y="70"/>
      <point x="655.657" y="116"/>
    </contour>
  </outline>
</glyph>
<glyph name="uni122E" format="2">
  <advance width="965"/>
  <unicode hex="122E"/>
  <outline>
    <component base="bar"/>
    <contour>
      <point x="830.343" y="0" type="curve" smooth="yes"/>
      <point x="377.343" y="0" type="line" smooth="yes"/>
      <point x="175.548" y="0"/>
      <point x="41.8335" y="106.158"/>
      <point x="50.388" y="304.256" type="curve" smooth="yes"/>
      <point x="63.2708" y="602.586"/>
      <point x="162" y="1183"/>
      <point x="162" y="1183" type="curve"/>
      <point x="162" y="1211.91"/>
      <point x="188.859" y="1222.91"/>
      <point x="209.303" y="1216" type="curve"/>
      <point x="630.071" y="1218" type="line" smooth="yes"/>
      <point x="720.194" y="1218.43"/>
      <point x="790.071" y="1135"/>
      <point x="790.071" y="1044" type="curve" smooth="yes"/>
      <point x="790.071" y="948.998"/>
      <point x="713.071" y="871.998"/>
      <point x="618.071" y="871.998" type="curve" smooth="yes"/>
      <point x="523.071" y="871.998"/>
      <point x="446.071" y="948.998"/>
      <point x="446.071" y="1044" type="curve" smooth="yes"/>
      <point x="446.071" y="1083"/>
      <point x="459.071" y="1119"/>
      <point x="481.071" y="1148" type="curve"/>
      <point x="229.079" y="1146" type="line"/>
      <point x="229.079" y="1146"/>
      <point x="132.559" y="552.569"/>
      <point x="120.345" y="301.711" type="curve" smooth="yes"/>
      <point x="112.929" y="149.406"/>
      <point x="207.932" y="70"/>
      <point x="377.343" y="70" type="curve" smooth="yes"/>
      <point x="830.343" y="70" type="line" smooth="yes"/>
      <point x="877.008" y="70"/>
      <point x="877.008" y="0"/>
    </contour>
    <contour>
      <point x="720.071" y="1044" type="curve" smooth="yes"/>
      <point x="720.071" y="1101"/>
      <point x="674.071" y="1146"/>
      <point x="618.071" y="1146" type="curve" smooth="yes"/>
      <point x="562.071" y="1146"/>
      <point x="516.071" y="1101"/>
      <point x="516.071" y="1044" type="curve" smooth="yes"/>
      <point x="516.071" y="987.998"/>
      <point x="562.071" y="942.998"/>
      <point x="618.071" y="942.998" type="curve" smooth="yes"/>
      <point x="674.071" y="942.998"/>
      <point x="720.071" y="987.998"/>
    </contour>
  </outline>
</glyph>
<glyph name="uni1230" format="2">
  <advance width="922"/>
  <unicode hex="1230"/>
  <outline>
    <component base="bar"/>
    <contour>
      <point x="822" y="35" type="line" smooth="yes"/>
      <point x="822" y="16"/>
      <point x="806" y="0"/>
      <point x="787" y="0" type="curve" smooth="yes"/>
      <point x="767" y="0"/>
      <point x="752" y="16"/>
      <point x="752" y="35" type="curve" smooth="yes"/>
      <point x="752" y="962" type="line" smooth="yes"/>
      <point x="752" y="1028"/>
      <point x="645" y="1130"/>
      <point x="560" y="1130" type="curve" smooth="yes"/>
      <point x="403" y="1130" type="line" smooth="yes"/>
      <point x="298" y="1130"/>
      <point x="120" y="966"/>
      <point x="120" y="795" type="curve" smooth="yes"/>
      <point x="120" y="35" type="line" smooth="yes"/>
      <point x="120" y="16"/>
      <point x="105" y="0"/>
      <point x="85" y="0" type="curve" smooth="yes"/>
      <point x="66" y="0"/>
      <point x="50" y="16"/>
      <point x="50" y="35" type="curve" smooth="yes"/>
      <point x="50" y="795" type="line" smooth="yes"/>
      <point x="50" y="1015.99"/>
      <point x="270" y="1199"/>
      <point x="401" y="1200" type="curve"/>
      <point x="401" y="1369" type="line" smooth="yes"/>
      <point x="401" y="1388"/>
      <point x="416" y="1404"/>
      <point x="435" y="1404" type="curve" smooth="yes"/>
      <point x="436" y="1404" type="line" smooth="yes"/>
      <point x="456" y="1404"/>
      <point x="471" y="1388"/>
      <point x="471" y="1369" type="curve" smooth="yes"/>
      <point x="471" y="1200" type="line"/>
      <point x="560" y="1200" type="line" smooth="yes"/>
      <point x="676" y="1200"/>
      <point x="822" y="1074"/>
      <point x="822" y="962" type="curve" smooth="yes"/>
    </contour>
  </outline>
</glyph>
<glyph name="uni1231" format="2">
  <advance width="1355"/>
  <unicode hex="1231"/>
  <outline>
    <component base="bar"/>
    <contour>
      <point x="1255" y="697.118" type="line" smooth="yes"/>
      <point x="1255" y="678.118"/>
      <point x="1239" y="662.118"/>
      <point x="1220" y="662.118" type="curve" smooth="yes"/>
      <point x="822" y="662.118" type="line"/>
      <point x="822" y="35" type="line" smooth="yes"/>
      <point x="822" y="16"/>
      <point x="806" y="0"/>
      <point x="787" y="0" type="curve" smooth="yes"/>
      <point x="767" y="0"/>
      <point x="752" y="16"/>
      <point x="752" y="35" type="curve" smooth="yes"/>
      <point x="752" y="962" type="line" smooth="yes"/>
      <point x="752" y="1028"/>
      <point x="645" y="1130"/>
      <point x="560" y="1130" type="curve" smooth="yes"/>
      <point x="403" y="1130" type="line" smooth="yes"/>
      <point x="298" y="1130"/>
      <point x="120" y="966"/>
      <point x="120" y="795" type="curve" smooth="yes"/>
      <point x="120" y="35" type="line" smooth="yes"/>
      <point x="120" y="16"/>
      <point x="105" y="0"/>
      <point x="85" y="0" type="curve" smooth="yes"/>
      <point x="66" y="0"/>
      <point x="50" y="16"/>
      <point x="50" y="35" type="curve" smooth="yes"/>
      <point x="50" y="795" type="line" smooth="yes"/>
      <point x="50" y="1015.99"/>
      <point x="270" y="1199"/>
      <point x="401" y="1200" type="curve"/>
      <point x="401" y="1369" type="line" smooth="yes"/>
      <point x="401" y="1388"/>
      <point x="416" y="1404"/>
      <point x="435" y="1404" type="curve" smooth="yes"/>
      <point x="436" y="1404" type="line" smooth="yes"/>
      <point x="456" y="1404"/>
      <point x="471" y="1388"/>
      <point x="471" y="1369" type="curve" smooth="yes"/>
      <point x="471" y="1200" type="line"/>
      <point x="560" y="1200" type="line" smooth="yes"/>
      <point x="676" y="1200"/>
      <point x="822" y="1074"/>
      <point x="822" y="962" type="curve" smooth="yes"/>
      <point x="822" y="732.118" type="line"/>
      <point x="1220" y="732.118" type="line" smooth="yes"/>
      <point x="1239" y="732.118"/>
      <point x="1255" y="717.118"/>
      <point x="1255" y="698.118" type="curve" smooth="yes"/>
    </contour>
  </outline>
</glyph>
<glyph name="uni1232" format="2">
  <advance width="1355"/>
  <unicode hex="1232"/>
  <outline>
    <component base="bar"/>
    <contour>
      <point x="1255" y="35" type="curve" smooth="yes"/>
      <point x="1255" y="16"/>
      <point x="1240" y="0"/>
      <point x="1220" y="0" type="curve" smooth="yes"/>
      <point x="783" y="0" type="line" smooth="yes"/>
      <point x="764" y="0"/>
      <point x="747.919" y="16"/>
      <point x="748" y="35" type="curve" smooth="yes"/>
      <point x="752" y="962" type="line" smooth="yes"/>
      <point x="752.285" y="1028"/>
      <point x="645" y="1130"/>
      <point x="560" y="1130" type="curve" smooth="yes"/>
      <point x="403" y="1130" type="line" smooth="yes"/>
      <point x="298" y="1130"/>
      <point x="120" y="966"/>
      <point x="120" y="795" type="curve" smooth="yes"/>
      <point x="120" y="35" type="line" smooth="yes"/>
      <point x="120" y="16"/>
      <point x="107.017" y="0.513"/>
      <point x="87" y="0" type="curve" smooth="yes"/>
      <point x="68.005" y="-0.487"/>
      <point x="50" y="16"/>
      <point x="50" y="35" type="curve" smooth="yes"/>
      <point x="50" y="795" type="line" smooth="yes"/>
      <point x="50" y="1015.99"/>
      <point x="270" y="1199"/>
      <point x="401" y="1200" type="curve"/>
      <point x="401" y="1369" type="line" smooth="yes"/>
      <point x="401" y="1388"/>
      <point x="416" y="1404"/>
      <point x="435" y="1404" type="curve" smooth="yes"/>
      <point x="436" y="1404" type="line" smooth="yes"/>
      <point x="456" y="1404"/>
      <point x="471" y="1388"/>
      <point x="471" y="1369" type="curve" smooth="yes"/>
      <point x="471" y="1200" type="line"/>
      <point x="560" y="1200" type="line" smooth="yes"/>
      <point x="676" y="1200"/>
      <point x="822" y="1074"/>
      <point x="822" y="962" type="curve" smooth="yes"/>
      <point x="822" y="70" type="line"/>
      <point x="1220" y="70" type="line" smooth="yes"/>
      <point x="1239" y="70"/>
      <point x="1255" y="55"/>
    </contour>
  </outline>
</glyph>
<glyph name="uni1233" format="2">
  <advance width="922"/>
  <unicode hex="1233"/>
  <outline>
    <component base="bar"/>
    <contour>
      <point x="822" y="35" type="line" smooth="yes"/>
      <point x="822" y="16"/>
      <point x="806" y="0"/>
      <point x="787" y="0" type="curve" smooth="yes"/>
      <point x="767" y="0"/>
      <point x="752" y="16"/>
      <point x="752" y="35" type="curve" smooth="yes"/>
      <point x="752" y="962" type="line" smooth="yes"/>
      <point x="752" y="1028"/>
      <point x="645" y="1130"/>
      <point x="560" y="1130" type="curve" smooth="yes"/>
      <point x="403" y="1130" type="line" smooth="yes"/>
      <point x="298" y="1130"/>
      <point x="120" y="967.007"/>
      <point x="120" y="795" type="curve" smooth="yes"/>
      <point x="120" y="385" type="line" smooth="yes"/>
      <point x="120" y="366"/>
      <point x="105" y="350"/>
      <point x="85" y="350" type="curve" smooth="yes"/>
      <point x="66" y="350"/>
      <point x="50" y="366"/>
      <point x="50" y="385" type="curve" smooth="yes"/>
      <point x="50" y="795" type="line" smooth="yes"/>
      <point x="50" y="1016"/>
      <point x="270" y="1199"/>
      <point x="401" y="1200" type="curve"/>
      <point x="401" y="1369" type="line" smooth="yes"/>
      <point x="401" y="1388"/>
      <point x="416" y="1404"/>
      <point x="435" y="1404" type="curve" smooth="yes"/>
      <point x="436" y="1404" type="line" smooth="yes"/>
      <point x="456" y="1404"/>
      <point x="471" y="1388"/>
      <point x="471" y="1369" type="curve" smooth="yes"/>
      <point x="471" y="1200" type="line"/>
      <point x="560" y="1200" type="line" smooth="yes"/>
      <point x="676" y="1200"/>
      <point x="822" y="1074"/>
      <point x="822" y="962" type="curve" smooth="yes"/>
    </contour>
  </outline>
</glyph>
<glyph name="uni1235" format="2">
  <advance width="922"/>
  <unicode hex="1235"/>
  <outline>
    <component base="bar"/>
    <contour>
      <point x="822" y="35" type="line" smooth="yes"/>
      <point x="822" y="16"/>
      <point x="806" y="0"/>
      <point x="787" y="0" type="curve" smooth="yes"/>
      <point x="767" y="0"/>
      <point x="752" y="16"/>
      <point x="752" y="35" type="curve" smooth="yes"/>
      <point x="752" y="962" type="line" smooth="yes"/>
      <point x="752" y="1028"/>
      <point x="645" y="1130"/>
      <point x="560" y="1130" type="curve" smooth="yes"/>
      <point x="403" y="1130" type="line" smooth="yes"/>
      <point x="298" y="1130"/>
      <point x="120" y="966"/>
      <point x="120" y="795" type="curve" smooth="yes"/>
      <point x="120" y="35" type="line" smooth="yes"/>
      <point x="120" y="16"/>
      <point x="105" y="0"/>
      <point x="85" y="0" type="curve" smooth="yes"/>
      <point x="66" y="0"/>
      <point x="50" y="16"/>
      <point x="50" y="35" type="curve" smooth="yes"/>
      <point x="50" y="795" type="line" smooth="yes"/>
      <point x="50" y="1015"/>
      <point x="269" y="1197"/>
      <point x="400" y="1200" type="curve"/>
      <point x="286" y="1386" type="line"/>
      <point x="281" y="1392"/>
      <point x="279" y="1399"/>
      <point x="279" y="1408" type="curve" smooth="yes"/>
      <point x="279" y="1427"/>
      <point x="294" y="1443"/>
      <point x="314" y="1443" type="curve" smooth="yes"/>
      <point x="325" y="1443"/>
      <point x="336.821" y="1438.89"/>
      <point x="344" y="1427" type="curve" smooth="yes"/>
      <point x="481" y="1200" type="line"/>
      <point x="560" y="1200" type="line" smooth="yes"/>
      <point x="676" y="1200"/>
      <point x="822" y="1074"/>
      <point x="822" y="962" type="curve" smooth="yes"/>
    </contour>
  </outline>
</glyph>
<glyph name="uni1236" format="2">
  <advance width="922"/>
  <unicode hex="1236"/>
  <outline>
    <component base="bar"/>
    <contour>
      <point x="822" y="386" type="line" smooth="yes"/>
      <point x="822" y="367"/>
      <point x="806" y="351"/>
      <point x="787" y="351" type="curve" smooth="yes"/>
      <point x="767" y="351"/>
      <point x="752" y="367"/>
      <point x="752" y="386" type="curve" smooth="yes"/>
      <point x="752" y="962" type="line" smooth="yes"/>
      <point x="752" y="1028"/>
      <point x="645" y="1130"/>
      <point x="560" y="1130" type="curve" smooth="yes"/>
      <point x="403" y="1130" type="line" smooth="yes"/>
      <point x="298" y="1130"/>
      <point x="120" y="966"/>
      <point x="120" y="795" type="curve" smooth="yes"/>
      <point x="120" y="35" type="line" smooth="yes"/>
      <point x="120" y="16"/>
      <point x="105" y="0"/>
      <point x="85" y="0" type="curve" smooth="yes"/>
      <point x="66" y="0"/>
      <point x="50" y="16"/>
      <point x="50" y="35" type="curve" smooth="yes"/>
      <point x="50" y="795" type="line" smooth="yes"/>
      <point x="50" y="1015.99"/>
      <point x="270" y="1199"/>
      <point x="401" y="1200" type="curve"/>
      <point x="401" y="1369" type="line" smooth="yes"/>
      <point x="401" y="1388"/>
      <point x="416" y="1404"/>
      <point x="435" y="1404" type="curve" smooth="yes"/>
      <point x="436" y="1404" type="line" smooth="yes"/>
      <point x="456" y="1404"/>
      <point x="471" y="1388"/>
      <point x="471" y="1369" type="curve" smooth="yes"/>
      <point x="471" y="1200" type="line"/>
      <point x="560" y="1200" type="line" smooth="yes"/>
      <point x="676" y="1200"/>
      <point x="822" y="1074"/>
      <point x="822" y="962" type="curve" smooth="yes"/>
    </contour>
  </outline>
</glyph>
<glyph name="uni1237" format="2">
  <advance width="1434"/>
  <unicode hex="1237"/>
  <outline>
    <contour>
      <point x="1685" y="1561" type="line"/>
      <point x="1470" y="1494" type="line"/>
      <point x="1614" y="1321" type="line"/>
      <point x="1415" y="1426" type="line"/>
      <point x="1394" y="1202" type="line"/>
      <point x="1327" y="1417" type="line"/>
      <point x="1154" y="1273" type="line"/>
      <point x="1259" y="1472" type="line"/>
      <point x="1035" y="1493" type="line"/>
      <point x="1250" y="1560" type="line"/>
      <point x="1106" y="1733" type="line"/>
      <point x="1305" y="1628" type="line"/>
      <point x="1326" y="1852" type="line"/>
      <point x="1393" y="1637" type="line"/>
      <point x="1566" y="1781" type="line"/>
      <point x="1461" y="1582" type="line"/>
    </contour>
    <contour>
      <point x="1358" y="-152" type="curve"/>
      <point x="1353" y="-157"/>
      <point x="1346" y="-161"/>
      <point x="1337" y="-164" type="curve"/>
      <point x="1322" y="-171"/>
      <point x="1297" y="-176"/>
      <point x="1262" y="-176" type="curve" smooth="yes"/>
      <point x="1147" y="-176"/>
      <point x="1055" y="-102"/>
      <point x="1047" y="10" type="curve"/>
      <point x="430" y="-18" type="line"/>
      <point x="443" y="-104"/>
      <point x="312" y="-231"/>
      <point x="168" y="-231" type="curve" smooth="yes"/>
      <point x="149" y="-231"/>
      <point x="128.988" y="-230.184"/>
      <point x="113" y="-229" type="curve" smooth="yes"/>
      <point x="86" y="-227" type="line"/>
      <point x="97" y="-217"/>
      <point x="107.148" y="-203.073"/>
      <point x="116" y="-185" type="curve" smooth="yes"/>
      <point x="131.149" y="-154.072"/>
      <point x="147" y="-105"/>
      <point x="147" y="-29" type="curve" smooth="yes"/>
      <point x="147" y="-14"/>
      <point x="145.236" y="2.057"/>
      <point x="142" y="15" type="curve" smooth="yes"/>
      <point x="140.235" y="22.0627"/>
      <point x="138" y="30"/>
      <point x="137" y="37" type="curve"/>
      <point x="606" y="61" type="line"/>
      <point x="611" y="172"/>
      <point x="670" y="796" name=".hr01"/>
      <point x="670" y="848" type="curve" smooth="yes"/>
      <point x="670" y="981"/>
      <point x="657.003" y="1028"/>
      <point x="561" y="1028" type="curve" smooth="yes"/>
      <point x="419.995" y="1028"/>
      <point x="367" y="953.983"/>
      <point x="367" y="463" type="curve" smooth="yes"/>
      <point x="367" y="401"/>
      <point x="371" y="339"/>
      <point x="408" y="315" type="curve"/>
      <point x="408" y="293" type="line"/>
      <point x="203" y="260" type="line" smooth="yes"/>
      <point x="109.987" y="245.027"/>
      <point x="109" y="310.995"/>
      <point x="109" y="446" type="curve" smooth="yes"/>
      <point x="109" y="737.003"/>
      <point x="115" y="1009"/>
      <point x="426" y="1069" type="curve"/>
      <point x="420" y="1249" type="line"/>
      <point x="406" y="1294"/>
      <point x="421" y="1284"/>
      <point x="383" y="1306" type="curve"/>
      <point x="379" y="1331" type="line"/>
      <point x="611" y="1370" type="line"/>
      <point x="615" y="1369"/>
      <point x="631" y="1375"/>
      <point x="650" y="1375" type="curve" smooth="yes"/>
      <point x="675" y="1375"/>
      <point x="700.666" y="1364.02"/>
      <point x="699" y="1310" type="curve" smooth="yes"/>
      <point x="692" y="1083" type="line"/>
      <point x="893" y="1062"/>
      <point x="915" y="978.007"/>
      <point x="915" y="754" type="curve" smooth="yes"/>
      <point x="915" y="723"/>
      <point x="872" y="184"/>
      <point x="864" y="76" type="curve"/>
      <point x="1311" y="98" type="line"/>
      <point x="1309" y="93"/>
      <point x="1306.64" y="88.042"/>
      <point x="1306" y="81" type="curve"/>
      <point x="1302.78" y="70.062"/>
      <point x="1302" y="56"/>
      <point x="1302" y="37" type="curve" smooth="yes"/>
      <point x="1302" y="25"/>
      <point x="1303.14" y="13.0197"/>
      <point x="1305" y="0" type="curve" smooth="yes"/>
      <point x="1309.14" y="-28.98"/>
      <point x="1321.98" y="-66.0067"/>
      <point x="1334" y="-97" type="curve" smooth="yes"/>
      <point x="1340.98" y="-115.007"/>
      <point x="1349" y="-133"/>
    </contour>
  </outline>
</glyph>
<glyph name="uni1238" format="2">
  <advance width="942"/>
  <unicode hex="1238"/>
  <outline>
    <component base="bar"/>
    <contour>
      <point x="841.628" y="1400.46" type="line"/>
      <point x="843.373" y="1380.54"/>
      <point x="829.736" y="1364.29"/>
      <point x="809.812" y="1362.55" type="curve" smooth="yes"/>
      <point x="528.883" y="1337.97" type="line"/>
      <point x="526" y="1140" type="line"/>
      <point x="560" y="1140" type="line" smooth="yes"/>
      <point x="676" y="1140"/>
      <point x="822" y="1014.01"/>
      <point x="822" y="902" type="curve" smooth="yes"/>
      <point x="822" y="35" type="line" smooth="yes"/>
      <point x="822" y="15.994"/>
      <point x="806" y="0"/>
      <point x="787" y="0" type="curve" smooth="yes"/>
      <point x="767" y="0"/>
      <point x="752" y="15.994"/>
      <point x="752" y="35" type="curve" smooth="yes"/>
      <point x="752" y="902" type="line" smooth="yes"/>
      <point x="752" y="968.024"/>
      <point x="645" y="1070"/>
      <point x="560" y="1070" type="curve" smooth="yes"/>
      <point x="403" y="1070" type="line" smooth="yes"/>
      <point x="298" y="1070"/>
      <point x="120" y="906"/>
      <point x="120" y="735" type="curve" smooth="yes"/>
      <point x="120" y="35" type="line" smooth="yes"/>
      <point x="120" y="16"/>
      <point x="105" y="0"/>
      <point x="85" y="0" type="curve" smooth="yes"/>
      <point x="66" y="0"/>
      <point x="50" y="16"/>
      <point x="50" y="35" type="curve" smooth="yes"/>
      <point x="50" y="735" type="line" smooth="yes"/>
      <point x="50" y="957"/>
      <point x="272" y="1140"/>
      <point x="403" y="1140" type="curve" smooth="yes"/>
      <point x="456" y="1140" type="line"/>
      <point x="459.149" y="1331.87" type="line"/>
      <point x="160.289" y="1305.72" type="line" smooth="yes"/>
      <point x="141.361" y="1304.06"/>
      <point x="124.114" y="1317.61"/>
      <point x="122.371" y="1337.54" type="curve" smooth="yes"/>
      <point x="120.716" y="1356.46"/>
      <point x="135.26" y="1373.8"/>
      <point x="154.188" y="1375.45" type="curve" smooth="yes"/>
      <point x="803.711" y="1432.28" type="line" smooth="yes"/>
      <point x="822.638" y="1433.94"/>
      <point x="839.883" y="1420.39"/>
      <point x="841.541" y="1401.46" type="curve"/>
    </contour>
  </outline>
</glyph>
<glyph name="uni1239" format="2">
  <advance width="1355"/>
  <unicode hex="1239"/>
  <outline>
    <component base="bar"/>
    <contour>
      <point x="1255" y="576" type="line" smooth="yes"/>
      <point x="1255" y="557"/>
      <point x="1239" y="541"/>
      <point x="1220" y="541" type="curve" smooth="yes"/>
      <point x="822" y="541" type="line"/>
      <point x="822" y="35" type="line" smooth="yes"/>
      <point x="822" y="16"/>
      <point x="806" y="0"/>
      <point x="787" y="0" type="curve" smooth="yes"/>
      <point x="767" y="0"/>
      <point x="752" y="15.994"/>
      <point x="752" y="35" type="curve" smooth="yes"/>
      <point x="752" y="902" type="line" smooth="yes"/>
      <point x="752" y="968.024"/>
      <point x="645" y="1070"/>
      <point x="560" y="1070" type="curve" smooth="yes"/>
      <point x="403" y="1070" type="line" smooth="yes"/>
      <point x="298" y="1070"/>
      <point x="120" y="906"/>
      <point x="120" y="735" type="curve" smooth="yes"/>
      <point x="120" y="35" type="line" smooth="yes"/>
      <point x="120" y="16"/>
      <point x="105" y="0"/>
      <point x="85" y="0" type="curve" smooth="yes"/>
      <point x="66" y="0"/>
      <point x="50" y="16"/>
      <point x="50" y="35" type="curve" smooth="yes"/>
      <point x="50" y="735" type="line" smooth="yes"/>
      <point x="50" y="957"/>
      <point x="272" y="1140"/>
      <point x="403" y="1140" type="curve" smooth="yes"/>
      <point x="456" y="1140" type="line"/>
      <point x="459.149" y="1331.87" type="line"/>
      <point x="160.289" y="1305.72" type="line" smooth="yes"/>
      <point x="141.361" y="1304.06"/>
      <point x="124.114" y="1317.61"/>
      <point x="122.371" y="1337.54" type="curve" smooth="yes"/>
      <point x="120.716" y="1356.46"/>
      <point x="135.26" y="1373.8"/>
      <point x="154.188" y="1375.45" type="curve" smooth="yes"/>
      <point x="803.711" y="1432.28" type="line" smooth="yes"/>
      <point x="822.638" y="1433.94"/>
      <point x="839.883" y="1420.39"/>
      <point x="841.541" y="1401.46" type="curve"/>
      <point x="841.628" y="1400.46" type="line"/>
      <point x="843.373" y="1380.54"/>
      <point x="829.736" y="1364.29"/>
      <point x="809.812" y="1362.55" type="curve" smooth="yes"/>
      <point x="528.883" y="1337.97" type="line"/>
      <point x="526" y="1140" type="line"/>
      <point x="560" y="1140" type="line" smooth="yes"/>
      <point x="676" y="1140"/>
      <point x="822" y="1014"/>
      <point x="822" y="902" type="curve" smooth="yes"/>
      <point x="822" y="611" type="line"/>
      <point x="1220" y="611" type="line" smooth="yes"/>
      <point x="1239" y="611"/>
      <point x="1255" y="596"/>
      <point x="1255" y="577" type="curve" smooth="yes"/>
    </contour>
  </outline>
</glyph>
<glyph name="uni123A" format="2">
  <advance width="1355"/>
  <unicode hex="123A"/>
  <outline>
    <component base="bar"/>
    <contour>
      <point x="1255" y="35" type="curve" smooth="yes"/>
      <point x="1255" y="16"/>
      <point x="1240" y="0"/>
      <point x="1220" y="0" type="curve" smooth="yes"/>
      <point x="786" y="0" type="line" smooth="yes"/>
      <point x="767" y="0"/>
      <point x="750.979" y="15.994"/>
      <point x="751" y="35" type="curve" smooth="yes"/>
      <point x="752" y="902" type="line" smooth="yes"/>
      <point x="752.076" y="968.024"/>
      <point x="645" y="1070"/>
      <point x="560" y="1070" type="curve" smooth="yes"/>
      <point x="403" y="1070" type="line" smooth="yes"/>
      <point x="298" y="1070"/>
      <point x="120" y="906"/>
      <point x="120" y="735" type="curve" smooth="yes"/>
      <point x="120" y="35" type="line" smooth="yes"/>
      <point x="120" y="16"/>
      <point x="105" y="0"/>
      <point x="85" y="0" type="curve" smooth="yes"/>
      <point x="66" y="0"/>
      <point x="50" y="16"/>
      <point x="50" y="35" type="curve" smooth="yes"/>
      <point x="50" y="735" type="line" smooth="yes"/>
      <point x="50" y="957"/>
      <point x="272" y="1140"/>
      <point x="403" y="1140" type="curve" smooth="yes"/>
      <point x="469" y="1140" type="line"/>
      <point x="471.128" y="1332.35" type="line"/>
      <point x="160.314" y="1305.15" type="line" smooth="yes"/>
      <point x="141.386" y="1303.5"/>
      <point x="124.052" y="1318.04"/>
      <point x="122.396" y="1336.97" type="curve" smooth="yes"/>
      <point x="120.741" y="1355.9"/>
      <point x="134.335" y="1372.66"/>
      <point x="152.221" y="1374.71" type="curve" smooth="yes"/>
      <point x="171.126" y="1376.88"/>
      <point x="284.718" y="1386.31"/>
      <point x="816.686" y="1432.85" type="curve" smooth="yes"/>
      <point x="835.616" y="1434.5"/>
      <point x="852.948" y="1419.96"/>
      <point x="854.604" y="1401.03" type="curve" smooth="yes"/>
      <point x="856.347" y="1381.11"/>
      <point x="841.716" y="1364.77"/>
      <point x="822.787" y="1363.11" type="curve" smooth="yes"/>
      <point x="540.863" y="1338.45" type="line"/>
      <point x="538" y="1140" type="line"/>
      <point x="560" y="1140" type="line" smooth="yes"/>
      <point x="676" y="1140"/>
      <point x="822" y="1014"/>
      <point x="822" y="902" type="curve" smooth="yes"/>
      <point x="822" y="70" type="line"/>
      <point x="1220" y="70" type="line" smooth="yes"/>
      <point x="1239" y="70"/>
      <point x="1255" y="55"/>
    </contour>
  </outline>
</glyph>
<glyph name="uni123B" format="2">
  <advance width="942"/>
  <unicode hex="123B"/>
  <outline>
    <component base="bar"/>
    <contour>
      <point x="841.628" y="1400.46" type="line"/>
      <point x="843.373" y="1380.54"/>
      <point x="829.736" y="1364.29"/>
      <point x="809.812" y="1362.55" type="curve" smooth="yes"/>
      <point x="528.883" y="1337.97" type="line"/>
      <point x="526" y="1140" type="line"/>
      <point x="560" y="1140" type="line" smooth="yes"/>
      <point x="676" y="1140"/>
      <point x="822" y="1014.01"/>
      <point x="822" y="902" type="curve" smooth="yes"/>
      <point x="822" y="35" type="line" smooth="yes"/>
      <point x="822" y="15.994"/>
      <point x="806" y="0"/>
      <point x="787" y="0" type="curve" smooth="yes"/>
      <point x="767" y="0"/>
      <point x="752" y="15.994"/>
      <point x="752" y="35" type="curve" smooth="yes"/>
      <point x="752" y="902" type="line" smooth="yes"/>
      <point x="752" y="968.024"/>
      <point x="645" y="1070"/>
      <point x="560" y="1070" type="curve" smooth="yes"/>
      <point x="403" y="1070" type="line" smooth="yes"/>
      <point x="298" y="1070"/>
      <point x="120" y="907"/>
      <point x="120" y="735" type="curve" smooth="yes"/>
      <point x="120" y="385" type="line" smooth="yes"/>
      <point x="120" y="366"/>
      <point x="105" y="350"/>
      <point x="85" y="350" type="curve" smooth="yes"/>
      <point x="66" y="350"/>
      <point x="50" y="366"/>
      <point x="50" y="385" type="curve" smooth="yes"/>
      <point x="50" y="735" type="line" smooth="yes"/>
      <point x="50" y="957"/>
      <point x="272" y="1140"/>
      <point x="403" y="1140" type="curve" smooth="yes"/>
      <point x="456" y="1140" type="line"/>
      <point x="459.149" y="1331.87" type="line"/>
      <point x="160.289" y="1305.72" type="line" smooth="yes"/>
      <point x="141.361" y="1304.06"/>
      <point x="124.114" y="1317.61"/>
      <point x="122.371" y="1337.54" type="curve" smooth="yes"/>
      <point x="120.716" y="1356.46"/>
      <point x="135.26" y="1373.8"/>
      <point x="154.188" y="1375.45" type="curve" smooth="yes"/>
      <point x="803.711" y="1432.28" type="line" smooth="yes"/>
      <point x="822.638" y="1433.94"/>
      <point x="839.883" y="1420.39"/>
      <point x="841.541" y="1401.46" type="curve"/>
    </contour>
  </outline>
</glyph>
<glyph name="uni123C" format="2">
  <advance width="1207"/>
  <unicode hex="123C"/>
  <outline>
    <component base="bar"/>
    <contour>
      <point x="1107" y="172" type="curve" smooth="yes"/>
      <point x="1107" y="77"/>
      <point x="1030" y="0"/>
      <point x="935" y="0" type="curve" smooth="yes"/>
      <point x="840" y="0"/>
      <point x="753" y="76.998"/>
      <point x="753" y="172" type="curve" smooth="yes"/>
      <point x="753" y="902" type="line" smooth="yes"/>
      <point x="753" y="968.001"/>
      <point x="645" y="1070"/>
      <point x="560" y="1070" type="curve" smooth="yes"/>
      <point x="403" y="1070" type="line" smooth="yes"/>
      <point x="298" y="1070"/>
      <point x="120" y="906"/>
      <point x="120" y="735" type="curve" smooth="yes"/>
      <point x="120" y="35" type="line" smooth="yes"/>
      <point x="120" y="16"/>
      <point x="105" y="0"/>
      <point x="85" y="0" type="curve" smooth="yes"/>
      <point x="66" y="0"/>
      <point x="50" y="16"/>
      <point x="50" y="35" type="curve" smooth="yes"/>
      <point x="50" y="735" type="line" smooth="yes"/>
      <point x="50" y="957"/>
      <point x="272" y="1140"/>
      <point x="403" y="1140" type="curve" smooth="yes"/>
      <point x="469" y="1140" type="line"/>
      <point x="471.151" y="1331.82" type="line"/>
      <point x="172.291" y="1305.68" type="line" smooth="yes"/>
      <point x="153.363" y="1304.02"/>
      <point x="136.116" y="1317.57"/>
      <point x="134.373" y="1337.49" type="curve" smooth="yes"/>
      <point x="132.718" y="1356.42"/>
      <point x="147.262" y="1373.75"/>
      <point x="166.19" y="1375.41" type="curve" smooth="yes"/>
      <point x="816.709" y="1432.32" type="line" smooth="yes"/>
      <point x="835.637" y="1433.98"/>
      <point x="852.882" y="1420.43"/>
      <point x="854.539" y="1401.5" type="curve"/>
      <point x="854.626" y="1400.51" type="line"/>
      <point x="856.371" y="1380.58"/>
      <point x="841.738" y="1364.25"/>
      <point x="822.81" y="1362.59" type="curve" smooth="yes"/>
      <point x="540.885" y="1337.92" type="line"/>
      <point x="538" y="1140" type="line"/>
      <point x="560" y="1140" type="line" smooth="yes"/>
      <point x="676" y="1140"/>
      <point x="821.626" y="1014"/>
      <point x="822" y="902" type="curve" smooth="yes"/>
      <point x="824" y="303" type="line"/>
      <point x="854" y="328"/>
      <point x="893" y="344"/>
      <point x="935" y="344" type="curve" smooth="yes"/>
      <point x="1030" y="344"/>
      <point x="1107" y="267"/>
    </contour>
    <contour>
      <point x="1037" y="172" type="curve" smooth="yes"/>
      <point x="1037" y="228"/>
      <point x="992" y="274"/>
      <point x="935" y="274" type="curve" smooth="yes"/>
      <point x="879" y="274"/>
      <point x="834" y="228"/>
      <point x="834" y="172" type="curve" smooth="yes"/>
      <point x="834" y="116"/>
      <point x="879" y="70"/>
      <point x="935" y="70" type="curve" smooth="yes"/>
      <point x="992" y="70"/>
      <point x="1037" y="116"/>
    </contour>
  </outline>
</glyph>
<glyph name="uni123D" format="2">
  <advance width="962"/>
  <unicode hex="123D"/>
  <outline>
    <component base="bar"/>
    <contour>
      <point x="861.808" y="35" type="line" smooth="yes"/>
      <point x="861.808" y="15.994"/>
      <point x="845.808" y="0"/>
      <point x="826.808" y="0" type="curve" smooth="yes"/>
      <point x="806.808" y="0"/>
      <point x="791.808" y="15.994"/>
      <point x="791.808" y="35" type="curve" smooth="yes"/>
      <point x="791.808" y="902" type="line" smooth="yes"/>
      <point x="791.808" y="968.024"/>
      <point x="684.808" y="1070"/>
      <point x="599.808" y="1070" type="curve" smooth="yes"/>
      <point x="442.808" y="1070" type="line" smooth="yes"/>
      <point x="337.808" y="1070"/>
      <point x="159.808" y="906"/>
      <point x="159.808" y="735" type="curve" smooth="yes"/>
      <point x="159.808" y="35" type="line" smooth="yes"/>
      <point x="159.808" y="16"/>
      <point x="144.808" y="0"/>
      <point x="124.808" y="0" type="curve" smooth="yes"/>
      <point x="105.808" y="0"/>
      <point x="89.8085" y="16"/>
      <point x="89.8085" y="35" type="curve" smooth="yes"/>
      <point x="89.8085" y="735" type="line" smooth="yes"/>
      <point x="89.8085" y="957"/>
      <point x="311.808" y="1140"/>
      <point x="442.808" y="1140" type="curve" smooth="yes"/>
      <point x="458.808" y="1140" type="line"/>
      <point x="351.043" y="1329.91" type="line"/>
      <point x="88.0462" y="1306.9" type="line" smooth="yes"/>
      <point x="69.1185" y="1305.24"/>
      <point x="51.8715" y="1318.79"/>
      <point x="50.1287" y="1338.71" type="curve" smooth="yes"/>
      <point x="48.4732" y="1357.64"/>
      <point x="63.0182" y="1374.97"/>
      <point x="81.9452" y="1376.63" type="curve" smooth="yes"/>
      <point x="704.571" y="1431.1" type="line" smooth="yes"/>
      <point x="723.498" y="1432.76"/>
      <point x="740.743" y="1419.21"/>
      <point x="742.401" y="1400.28" type="curve"/>
      <point x="742.488" y="1399.29" type="line"/>
      <point x="744.233" y="1379.36"/>
      <point x="729.6" y="1363.03"/>
      <point x="710.672" y="1361.37" type="curve" smooth="yes"/>
      <point x="432.732" y="1337.05" type="line"/>
      <point x="540.808" y="1140" type="line"/>
      <point x="599.808" y="1140" type="line" smooth="yes"/>
      <point x="716.808" y="1140"/>
      <point x="861.808" y="1014.01"/>
      <point x="861.808" y="902" type="curve" smooth="yes"/>
    </contour>
  </outline>
</glyph>
<glyph name="uni1240" format="2">
  <advance width="1160"/>
  <unicode hex="1240"/>
  <outline>
    <component base="bar"/>
    <contour>
      <point x="1060.01" y="899.397" type="curve" smooth="yes"/>
      <point x="1060.01" y="689.427"/>
      <point x="885.25" y="489.89"/>
      <point x="711.622" y="479.383" type="curve" smooth="yes"/>
      <point x="653.438" y="475.862"/>
      <point x="587.467" y="483.409"/>
      <point x="545.467" y="504.409" type="curve"/>
      <point x="463.068" y="31" type="line" smooth="yes"/>
      <point x="455.063" y="-14.99"/>
      <point x="386.245" y="-2.88725"/>
      <point x="394.131" y="43.1555" type="curve" smooth="yes"/>
      <point x="467.835" y="473.516" type="line"/>
      <point x="427.529" y="456.591"/>
      <point x="373.562" y="446.954"/>
      <point x="321.997" y="447.75" type="curve" smooth="yes"/>
      <point x="193.222" y="449.738"/>
      <point x="50" y="508.722"/>
      <point x="50" y="659.938" type="curve" smooth="yes"/>
      <point x="50" y="874.05"/>
      <point x="182.542" y="1153.25"/>
      <point x="534.98" y="1148.4" type="curve" smooth="yes"/>
      <point x="586.75" y="1147.68" type="line"/>
      <point x="624.267" y="1347.86" type="line" smooth="yes"/>
      <point x="632.869" y="1393.76"/>
      <point x="701.822" y="1381.52"/>
      <point x="693.204" y="1335.7" type="curve" smooth="yes"/>
      <point x="657.66" y="1146.72" type="line"/>
      <point x="668.57" y="1146.57" type="line" smooth="yes"/>
      <point x="833.855" y="1144.32"/>
      <point x="1060.01" y="1183.38"/>
    </contour>
    <contour>
      <point x="990.014" y="899.397" type="curve" smooth="yes"/>
      <point x="990.014" y="1120.4"/>
      <point x="797.113" y="1072.88"/>
      <point x="646.601" y="1084" type="curve"/>
      <point x="557.39" y="578.292" type="line"/>
      <point x="583.675" y="549.51"/>
      <point x="691.845" y="548.315"/>
      <point x="707.388" y="549.255" type="curve" smooth="yes"/>
      <point x="846.911" y="557.695"/>
      <point x="990.014" y="729.406"/>
    </contour>
    <contour>
      <point x="574.954" y="1080.84" type="line"/>
      <point x="543.801" y="1078.95" type="line" smooth="yes"/>
      <point x="173.098" y="1056.51"/>
      <point x="119.937" y="789.328"/>
      <point x="119.937" y="658.416" type="curve" smooth="yes"/>
      <point x="119.937" y="573.36"/>
      <point x="204.783" y="514.57"/>
      <point x="327.638" y="518.369" type="curve" smooth="yes"/>
      <point x="370.537" y="519.695"/>
      <point x="457.246" y="529.296"/>
      <point x="483.334" y="561.399" type="curve"/>
    </contour>
  </outline>
</glyph>
<glyph name="uni1242" format="2">
  <advance width="1160"/>
  <unicode hex="1242"/>
  <outline>
    <component base="bar"/>
    <contour>
      <point x="1060.01" y="893.104" type="curve" smooth="yes"/>
      <point x="1060.01" y="683.134"/>
      <point x="885.249" y="483.597"/>
      <point x="711.622" y="473.09" type="curve" smooth="yes"/>
      <point x="653.438" y="469.569"/>
      <point x="587.467" y="477.116"/>
      <point x="545.467" y="498.116" type="curve"/>
      <point x="468.927" y="69.9925" type="line"/>
      <point x="853.844" y="70" type="line" smooth="yes"/>
      <point x="872.85" y="70"/>
      <point x="888.844" y="55"/>
      <point x="888.844" y="35" type="curve" smooth="yes"/>
      <point x="888.844" y="16"/>
      <point x="872.877" y="0" name=".hr01"/>
      <point x="853.844" y="0" type="curve" smooth="yes"/>
      <point x="429.91" y="0" type="line"/>
      <point x="408.848" y="-2.8238"/>
      <point x="389.379" y="22.4619"/>
      <point x="393.029" y="43.1554" type="curve" smooth="yes"/>
      <point x="467.835" y="467.222" type="line"/>
      <point x="427.529" y="450.298"/>
      <point x="373.562" y="440.661"/>
      <point x="321.997" y="441.456" type="curve" smooth="yes"/>
      <point x="193.262" y="443.443"/>
      <point x="50" y="502.428"/>
      <point x="50" y="653.644" type="curve" smooth="yes"/>
      <point x="50" y="867.756"/>
      <point x="182.19" y="1146.96"/>
      <point x="534.98" y="1142.1" type="curve" smooth="yes"/>
      <point x="586.75" y="1141.39" type="line"/>
      <point x="623.165" y="1347.86" type="line" smooth="yes"/>
      <point x="631.286" y="1393.9"/>
      <point x="700.202" y="1381.63"/>
      <point x="692.102" y="1335.7" type="curve" smooth="yes"/>
      <point x="657.66" y="1140.42" type="line"/>
      <point x="668.57" y="1140.28" type="line" smooth="yes"/>
      <point x="833.679" y="1138.03"/>
      <point x="1060.01" y="1177.09"/>
    </contour>
    <contour>
      <point x="990.014" y="893.104" type="curve" smooth="yes"/>
      <point x="990.014" y="1114.1"/>
      <point x="797.113" y="1066.59"/>
      <point x="646.601" y="1077.71" type="curve"/>
      <point x="557.39" y="571.998" type="line"/>
      <point x="583.675" y="543.217"/>
      <point x="691.845" y="542.022"/>
      <point x="707.388" y="542.962" type="curve" smooth="yes"/>
      <point x="846.893" y="551.399"/>
      <point x="990.014" y="723.114"/>
    </contour>
    <contour>
      <point x="574.954" y="1074.54" type="line"/>
      <point x="543.801" y="1072.66" type="line" smooth="yes"/>
      <point x="173.098" y="1050.22"/>
      <point x="119.937" y="783.035"/>
      <point x="119.937" y="652.123" type="curve" smooth="yes"/>
      <point x="119.937" y="567.067"/>
      <point x="204.775" y="508.277"/>
      <point x="327.638" y="512.075" type="curve" smooth="yes"/>
      <point x="370.545" y="513.402"/>
      <point x="457.246" y="523.003"/>
      <point x="483.334" y="555.106" type="curve"/>
    </contour>
  </outline>
</glyph>
<glyph name="uni1243" format="2">
  <advance width="1470"/>
  <unicode hex="1243"/>
  <outline>
    <component base="bar"/>
    <contour>
      <point x="1369.87" y="893.104" type="curve" smooth="yes"/>
      <point x="1369.87" y="683.134"/>
      <point x="1195.11" y="483.597"/>
      <point x="1021.48" y="473.09" type="curve" smooth="yes"/>
      <point x="963.297" y="469.569"/>
      <point x="897.326" y="477.116"/>
      <point x="855.326" y="498.116" type="curve"/>
      <point x="834.706" y="384.217" type="line" smooth="yes"/>
      <point x="790.45" y="139.76"/>
      <point x="660.716" y="61.4255"/>
      <point x="86.8556" y="30.6503" type="curve" smooth="yes"/>
      <point x="40.2843" y="28.1528"/>
      <point x="36.5511" y="98.0533"/>
      <point x="83.1066" y="100.55" type="curve" smooth="yes"/>
      <point x="665.246" y="131.77"/>
      <point x="734.623" y="210.133"/>
      <point x="765.257" y="392.983" type="curve" smooth="yes"/>
      <point x="777.694" y="467.223" type="line"/>
      <point x="777.694" y="467.223"/>
      <point x="683.421" y="440.661"/>
      <point x="631.856" y="441.456" type="curve" smooth="yes"/>
      <point x="503.121" y="443.443"/>
      <point x="359.859" y="502.428"/>
      <point x="359.859" y="653.644" type="curve" smooth="yes"/>
      <point x="359.859" y="867.756"/>
      <point x="492.017" y="1146.96"/>
      <point x="844.839" y="1142.1" type="curve" smooth="yes"/>
      <point x="896.609" y="1141.39" type="line"/>
      <point x="933.024" y="1347.86" type="line" smooth="yes"/>
      <point x="941.129" y="1393.81"/>
      <point x="1010.07" y="1381.66"/>
      <point x="1001.96" y="1335.7" type="curve" smooth="yes"/>
      <point x="967.519" y="1140.42" type="line"/>
      <point x="978.429" y="1140.28" type="line" smooth="yes"/>
      <point x="1143.52" y="1138.03"/>
      <point x="1369.87" y="1177.09"/>
    </contour>
    <contour>
      <point x="1299.87" y="893.104" type="curve" smooth="yes"/>
      <point x="1299.87" y="1114.1"/>
      <point x="1106.97" y="1066.59"/>
      <point x="956.46" y="1077.71" type="curve"/>
      <point x="867.249" y="571.998" type="line"/>
      <point x="893.534" y="543.217"/>
      <point x="1001.7" y="542.022"/>
      <point x="1017.25" y="542.962" type="curve" smooth="yes"/>
      <point x="1156.75" y="551.399"/>
      <point x="1299.87" y="723.114"/>
    </contour>
    <contour>
      <point x="884.813" y="1074.54" type="line"/>
      <point x="853.66" y="1072.66" type="line" smooth="yes"/>
      <point x="482.957" y="1050.22"/>
      <point x="429.796" y="783.035"/>
      <point x="429.796" y="652.123" type="curve" smooth="yes"/>
      <point x="429.796" y="567.067"/>
      <point x="514.634" y="508.277"/>
      <point x="637.497" y="512.075" type="curve" smooth="yes"/>
      <point x="680.404" y="513.402"/>
      <point x="767.105" y="523.003"/>
      <point x="793.193" y="555.106" type="curve"/>
    </contour>
  </outline>
</glyph>
<glyph name="uni1245" format="2">
  <advance width="1160"/>
  <unicode hex="1245"/>
  <outline>
    <component base="bar"/>
    <contour>
      <point x="1060.01" y="765.116" type="curve" smooth="yes"/>
      <point x="1060.01" y="555.147"/>
      <point x="885.248" y="355.608"/>
      <point x="711.622" y="345.102" type="curve" smooth="yes"/>
      <point x="653.438" y="341.582"/>
      <point x="587.467" y="349.129"/>
      <point x="545.467" y="370.129" type="curve"/>
      <point x="483.514" y="29" type="line" smooth="yes"/>
      <point x="475.167" y="-16.959"/>
      <point x="406.35" y="-4.88825"/>
      <point x="414.576" y="41.1555" type="curve" smooth="yes"/>
      <point x="467.835" y="339.235" type="line"/>
      <point x="427.529" y="322.311"/>
      <point x="373.561" y="312.674"/>
      <point x="321.997" y="313.469" type="curve" smooth="yes"/>
      <point x="193.303" y="315.454"/>
      <point x="50" y="374.441"/>
      <point x="50" y="525.657" type="curve" smooth="yes"/>
      <point x="50" y="739.769"/>
      <point x="182.158" y="1018.97"/>
      <point x="534.98" y="1014.12" type="curve" smooth="yes"/>
      <point x="586.75" y="1013.4" type="line"/>
      <point x="633.604" y="1317.75" type="line"/>
      <point x="308.338" y="1317.76" type="line" smooth="yes"/>
      <point x="289.338" y="1317.76"/>
      <point x="273.338" y="1333.76"/>
      <point x="273.338" y="1352.76" type="curve" smooth="yes"/>
      <point x="273.338" y="1372.76"/>
      <point x="289.338" y="1387.76"/>
      <point x="308.338" y="1387.76" type="curve" smooth="yes"/>
      <point x="660.277" y="1387.76" type="line" smooth="yes"/>
      <point x="690.685" y="1387.76"/>
      <point x="709.131" y="1367.35"/>
      <point x="706.818" y="1351.4" type="curve" smooth="yes"/>
      <point x="657.66" y="1012.44" type="line"/>
      <point x="668.57" y="1012.29" type="line" smooth="yes"/>
      <point x="833.663" y="1010.05"/>
      <point x="1060.01" y="1049.1"/>
    </contour>
    <contour>
      <point x="990.014" y="765.116" type="curve" smooth="yes"/>
      <point x="990.014" y="986.115"/>
      <point x="797.113" y="938.6"/>
      <point x="646.601" y="949.719" type="curve"/>
      <point x="557.39" y="444.011" type="line"/>
      <point x="583.675" y="415.229"/>
      <point x="691.845" y="414.035"/>
      <point x="707.388" y="414.974" type="curve" smooth="yes"/>
      <point x="846.883" y="423.41"/>
      <point x="990.014" y="595.127"/>
    </contour>
    <contour>
      <point x="574.954" y="946.557" type="line"/>
      <point x="543.801" y="944.671" type="line" smooth="yes"/>
      <point x="173.098" y="922.229"/>
      <point x="119.937" y="655.047"/>
      <point x="119.937" y="524.135" type="curve" smooth="yes"/>
      <point x="119.937" y="439.079"/>
      <point x="204.774" y="380.29"/>
      <point x="327.638" y="384.088" type="curve" smooth="yes"/>
      <point x="370.55" y="385.414"/>
      <point x="457.246" y="395.015"/>
      <point x="483.334" y="427.119" type="curve"/>
    </contour>
  </outline>
</glyph>
